<?xml version="1.0" encoding="UTF-8"?>
<svg version="1.1" xmlns="http://www.w3.org/2000/svg" width="157" height="484">
<path d="M0 0 C51.81 0 103.62 0 157 0 C157 159.72 157 319.44 157 484 C105.19 484 53.38 484 0 484 C0 324.28 0 164.56 0 0 Z " fill="#FEFEFE" transform="translate(0,0)"/>
<path d="M0 0 C1.65 0 3.3 0 5 0 C5.29865187 6.41752498 5.54476217 12.83562854 5.75683594 19.2565918 C5.83466813 21.43412423 5.92390248 23.61128362 6.02539062 25.7878418 C6.57746927 37.79831275 6.87867268 47.95439817 1.5 58.90649414 C-0.0902623 62.18615131 -1.00136 65.34340554 -1.875 68.875 C-3.79238484 75.40533999 -7.13117136 79.36675985 -12 84 C-12.804375 84.825 -13.60875 85.65 -14.4375 86.5 C-15.283125 87.325 -16.12875 88.15 -17 89 C-18.60552671 90.60280547 -20.2095822 92.20708544 -21.8125 93.8125 C-23.20833333 95.20833333 -24.60416667 96.60416667 -26 98 C-26.99 97.67 -27.98 97.34 -29 97 C-28.4225 96.50628906 -27.845 96.01257813 -27.25 95.50390625 C-26.5075 94.86324219 -25.765 94.22257812 -25 93.5625 C-24.2575 92.92441406 -23.515 92.28632812 -22.75 91.62890625 C-22.1725 91.09136719 -21.595 90.55382812 -21 90 C-21 89.67 -21 89.34 -21 89 C-24.70114955 90.84849161 -24.70114955 90.84849161 -27 94.125 C-27.33 94.74375 -27.66 95.3625 -28 96 C-30.625 96.75 -30.625 96.75 -33 97 C-31.68 94.69 -30.36 92.38 -29 90 C-30.98 91.65 -32.96 93.3 -35 95 C-36.82177738 91.24928186 -37.36624071 88.99362668 -36 85 C-34.4375 83.1875 -34.4375 83.1875 -33 82 C-33 83.32 -33 84.64 -33 86 C-24.96002813 79.72964684 -24.96002813 79.72964684 -18.9375 71.8125 C-18 70 -18 70 -16.08203125 69.23828125 C-13.13499795 67.48554287 -12.79504213 65.58477225 -11.75 62.375 C-11.24726562 60.87066406 -11.24726562 60.87066406 -10.734375 59.3359375 C-10.49203125 58.56507812 -10.2496875 57.79421875 -10 57 C-11.65 57 -13.3 57 -15 57 C-15.15855469 57.68707031 -15.31710938 58.37414063 -15.48046875 59.08203125 C-17.40994854 66.53344768 -17.40994854 66.53344768 -20.6875 69.125 C-21.450625 69.41375 -22.21375 69.7025 -23 70 C-22.566875 69.01 -22.566875 69.01 -22.125 68 C-19.5121135 61.03230268 -18.63666038 54.69935006 -18.625 47.3125 C-18.60050781 46.48427734 -18.57601562 45.65605469 -18.55078125 44.80273438 C-18.53121103 40.72886703 -18.7101545 38.50121754 -20.7890625 34.90625 C-22.98800902 32.56707307 -22.98800902 32.56707307 -26.75 33.1875 C-27.8225 33.455625 -28.895 33.72375 -30 34 C-32.52379241 41.45055737 -34.8995503 48.91868142 -37.0703125 56.48046875 C-38 59 -38 59 -40 60 C-39.855625 59.34 -39.71125 58.68 -39.5625 58 C-39.376875 57.01 -39.19125 56.02 -39 55 C-38.86980469 54.33742187 -38.73960938 53.67484375 -38.60546875 52.9921875 C-38.16587737 50.59381845 -38.16587737 50.59381845 -38 47 C-39.27219734 44.97022023 -39.27219734 44.97022023 -41 44 C-39.02 44.33 -37.04 44.66 -35 45 C-34.92652344 43.62714844 -34.92652344 43.62714844 -34.8515625 42.2265625 C-34.77679688 41.03804687 -34.70203125 39.84953125 -34.625 38.625 C-34.55539063 37.44164062 -34.48578125 36.25828125 -34.4140625 35.0390625 C-34 32 -34 32 -32 30 C-30.38577758 29.6709686 -28.7576017 29.40792545 -27.125 29.1875 C-23.60439513 28.5280207 -22.25402463 28.22227155 -19.5 25.8125 C-17.754171 22.53907062 -16.84866663 19.60683319 -16 16 C-13.31907309 18.68092691 -13.61329743 20.39167363 -13.375 24.125 C-13.30023438 25.22070312 -13.22546875 26.31640625 -13.1484375 27.4453125 C-13.09945312 28.28835937 -13.05046875 29.13140625 -13 30 C-12.07767578 30.14308594 -12.07767578 30.14308594 -11.13671875 30.2890625 C-8.49821594 31.16695557 -8.06729107 31.94736341 -6.8125 34.375 C-6.32716797 35.28378906 -6.32716797 35.28378906 -5.83203125 36.2109375 C-5 38 -5 38 -4 41 C-3.01 40.67 -2.02 40.34 -1 40 C-0.081262 31.06327905 0.12342391 22.2292465 0.0625 13.25 C0.05798828 11.96867188 0.05347656 10.68734375 0.04882812 9.3671875 C0.0371772 6.24474069 0.02082025 3.12239682 0 0 Z " fill="#9E938F" transform="translate(83,0)"/>
<path d="M0 0 C1.67642578 0.03383789 1.67642578 0.03383789 3.38671875 0.06835938 C6.1341989 0.12706622 8.87889761 0.20913154 11.625 0.3125 C12.50944734 13.78452824 12.94155346 26.84133687 11.625 40.3125 C9.645 40.8075 9.645 40.8075 7.625 41.3125 C6.80778283 40.21182004 5.99640549 39.10680269 5.1875 38 C4.73503906 37.38511719 4.28257813 36.77023438 3.81640625 36.13671875 C2.625 34.3125 2.625 34.3125 1.625 31.3125 C0.635 30.9825 -0.355 30.6525 -1.375 30.3125 C-2.9226555 27.21718901 -2.81909451 23.9458237 -3.09375 20.52734375 C-3.1415741 18.34179332 -3.1415741 18.34179332 -4.375 17.3125 C-4.6225 18.364375 -4.87 19.41625 -5.125 20.5 C-6.24565709 24.24057165 -7.36395961 26.67783966 -10.375 29.3125 C-13.67227869 30.30790489 -16.96219326 30.87612967 -20.375 31.3125 C-21.17002868 34.37801599 -21.82432202 37.45573156 -22.4375 40.5625 C-22.61410156 41.45453125 -22.79070313 42.3465625 -22.97265625 43.265625 C-23.10542969 43.94109375 -23.23820312 44.6165625 -23.375 45.3125 C-25.025 45.3125 -26.675 45.3125 -28.375 45.3125 C-27.385 45.9725 -26.395 46.6325 -25.375 47.3125 C-25.89513622 53.13802566 -26.70389734 58.06240167 -29.375 63.3125 C-32.5 64.375 -32.5 64.375 -35.375 64.3125 C-36.375 63.3125 -36.375 63.3125 -36.5625 60.625 C-36.36579436 57.14986703 -35.5111846 54.58738503 -34.375 51.3125 C-34.230625 50.178125 -34.08625 49.04375 -33.9375 47.875 C-33.4180417 44.5850974 -32.43922788 42.31614775 -31.03125 39.34375 C-30.22404834 36.84526869 -30.34551498 34.74916678 -30.375 32.125 C-29.99845892 25.53134727 -27.30775012 20.55794567 -24.1875 14.875 C-23.71763672 14.01044189 -23.24777344 13.14588379 -22.76367188 12.25512695 C-16.7717195 1.78658123 -12.134113 -0.46449785 0 0 Z " fill="#DAB6B2" transform="translate(71.375,-0.3125)"/>
<path d="M0 0 C0.33 0 0.66 0 1 0 C1.81111652 8.30531047 2.18244947 16.53152595 2.1875 24.875 C2.19974609 25.96296875 2.21199219 27.0509375 2.22460938 28.171875 C2.23437612 33.49800831 2.1890991 38.03342733 0 43 C-3.465 43.495 -3.465 43.495 -7 44 C-7 43.34 -7 42.68 -7 42 C-7.99 42.33 -8.98 42.66 -10 43 C-10.33 44.98 -10.66 46.96 -11 49 C-11.33 49 -11.66 49 -12 49 C-12 47.35 -12 45.7 -12 44 C-12.99 44 -13.98 44 -15 44 C-15.33 47.63 -15.66 51.26 -16 55 C-14.68 54.34 -13.36 53.68 -12 53 C-9.66796188 52.9222654 -7.33160941 52.91032272 -5 53 C-5.45890625 53.8559375 -5.9178125 54.711875 -6.390625 55.59375 C-7.95351941 58.9016236 -8.85719373 61.96246572 -9.75 65.5 C-12.27453711 73.99250414 -16.70239755 76.66088503 -24 81 C-25.36984198 82.29579647 -26.7151049 83.61992749 -28 85 C-28.66 84.67 -29.32 84.34 -30 84 C-28.9375 82.9375 -27.875 81.875 -26.8125 80.8125 C-26.17828125 80.17570312 -25.5440625 79.53890625 -24.890625 78.8828125 C-23.74495705 77.74187872 -22.59092485 76.60915097 -21.421875 75.4921875 C-20.246063 74.36367829 -19.11802565 73.18578478 -18 72 C-18 71.34 -18 70.68 -18 70 C-17.38640625 69.78601563 -16.7728125 69.57203125 -16.140625 69.3515625 C-13.19315811 67.49057063 -12.81543218 65.64739883 -11.75 62.375 C-11.24726562 60.87066406 -11.24726562 60.87066406 -10.734375 59.3359375 C-10.49203125 58.56507812 -10.2496875 57.79421875 -10 57 C-11.65 57 -13.3 57 -15 57 C-15.15855469 57.68707031 -15.31710938 58.37414063 -15.48046875 59.08203125 C-17.40994854 66.53344768 -17.40994854 66.53344768 -20.6875 69.125 C-21.450625 69.41375 -22.21375 69.7025 -23 70 C-22.566875 69.01 -22.566875 69.01 -22.125 68 C-19.5121135 61.03230268 -18.63666038 54.69935006 -18.625 47.3125 C-18.60050781 46.48427734 -18.57601562 45.65605469 -18.55078125 44.80273438 C-18.53121103 40.72886703 -18.7101545 38.50121754 -20.7890625 34.90625 C-22.98800902 32.56707307 -22.98800902 32.56707307 -26.75 33.1875 C-27.8225 33.455625 -28.895 33.72375 -30 34 C-32.52379241 41.45055737 -34.8995503 48.91868142 -37.0703125 56.48046875 C-38 59 -38 59 -40 60 C-39.855625 59.34 -39.71125 58.68 -39.5625 58 C-39.376875 57.01 -39.19125 56.02 -39 55 C-38.86980469 54.33742187 -38.73960938 53.67484375 -38.60546875 52.9921875 C-38.16587737 50.59381845 -38.16587737 50.59381845 -38 47 C-39.27219734 44.97022023 -39.27219734 44.97022023 -41 44 C-39.02 44.33 -37.04 44.66 -35 45 C-34.92652344 43.62714844 -34.92652344 43.62714844 -34.8515625 42.2265625 C-34.77679688 41.03804687 -34.70203125 39.84953125 -34.625 38.625 C-34.55539063 37.44164062 -34.48578125 36.25828125 -34.4140625 35.0390625 C-34 32 -34 32 -32 30 C-30.38577758 29.6709686 -28.7576017 29.40792545 -27.125 29.1875 C-23.60439513 28.5280207 -22.25402463 28.22227155 -19.5 25.8125 C-17.754171 22.53907062 -16.84866663 19.60683319 -16 16 C-13.31907309 18.68092691 -13.61329743 20.39167363 -13.375 24.125 C-13.30023438 25.22070312 -13.22546875 26.31640625 -13.1484375 27.4453125 C-13.09945312 28.28835937 -13.05046875 29.13140625 -13 30 C-12.07767578 30.14308594 -12.07767578 30.14308594 -11.13671875 30.2890625 C-8.49821594 31.16695557 -8.06729107 31.94736341 -6.8125 34.375 C-6.32716797 35.28378906 -6.32716797 35.28378906 -5.83203125 36.2109375 C-5 38 -5 38 -4 41 C-3.01 40.67 -2.02 40.34 -1 40 C-0.081262 31.06327905 0.12342391 22.2292465 0.0625 13.25 C0.05798828 11.96867188 0.05347656 10.68734375 0.04882812 9.3671875 C0.0371772 6.24474069 0.02082025 3.12239682 0 0 Z " fill="#9F7D7E" transform="translate(83,0)"/>
<path d="M0 0 C3.96 0 7.92 0 12 0 C12.88444734 13.47202824 13.31655346 26.52883687 12 40 C10.02 40.495 10.02 40.495 8 41 C7.18278283 39.89932004 6.37140549 38.79430269 5.5625 37.6875 C4.88380859 36.76517578 4.88380859 36.76517578 4.19140625 35.82421875 C3 34 3 34 2 31 C1.34 30.67 0.68 30.34 0 30 C-1.44500128 25.66499617 -1.18431828 21.47780913 -1.1875 16.9375 C-1.19974609 16.01388672 -1.21199219 15.09027344 -1.22460938 14.13867188 C-1.22654297 13.25630859 -1.22847656 12.37394531 -1.23046875 11.46484375 C-1.23457764 10.656521 -1.23868652 9.84819824 -1.24291992 9.01538086 C-1 7 -1 7 1 5 C2.32 5 3.64 5 5 5 C3.35 3.35 1.7 1.7 0 0 Z " fill="#FDF7ED" transform="translate(71,0)"/>
<path d="M0 0 C1.65 0 3.3 0 5 0 C6.0690003 3.20700089 6.13332529 5.56992069 6.125 8.9375 C6.12886719 10.49791016 6.12886719 10.49791016 6.1328125 12.08984375 C6.01932023 14.57665971 5.71928571 16.63092407 5 19 C4.34 19 3.68 19 3 19 C3 19.99 3 20.98 3 22 C1.30099815 23.01577335 -0.40970451 24.0119898 -2.125 25 C-3.07632813 25.556875 -4.02765625 26.11375 -5.0078125 26.6875 C-8.26515122 28.11630654 -10.4837829 28.25041309 -14 28 C-15.9749257 22.37905762 -13.85594811 18.59169331 -11.51953125 13.48828125 C-9.93129217 10.88748872 -8.59936837 9.55753736 -6 8 C-5.34 8 -4.68 8 -4 8 C-4 7.01 -4 6.02 -4 5 C-3.01 5 -2.02 5 -1 5 C-0.67 3.35 -0.34 1.7 0 0 Z " fill="#FCF4E9" transform="translate(60,1)"/>
<path d="M0 0 C1.32 0 2.64 0 4 0 C3.9278125 1.11890625 3.855625 2.2378125 3.78125 3.390625 C2.89630037 18.26282654 2.89508719 33.1056096 3 48 C0.625 49.0625 0.625 49.0625 -2 50 C-2.66 49.67 -3.32 49.34 -4 49 C-4.165 49.639375 -4.33 50.27875 -4.5 50.9375 C-6 53 -6 53 -9.9375 53.6875 C-10.62714844 53.73261719 -11.31679687 53.77773438 -12.02734375 53.82421875 C-14.21182596 53.94239909 -14.21182596 53.94239909 -17 55 C-17.0270043 53.54176788 -17.04639787 52.08339325 -17.0625 50.625 C-17.07410156 49.81289063 -17.08570312 49.00078125 -17.09765625 48.1640625 C-17 46 -17 46 -16 44 C-14.1875 43.4375 -14.1875 43.4375 -12 43 C-11.2575 42.814375 -10.515 42.62875 -9.75 42.4375 C-9.1725 42.293125 -8.595 42.14875 -8 42 C-8 42.66 -8 43.32 -8 44 C-5.69 43.34 -3.38 42.68 -1 42 C0.13702786 37.47942904 0.12814634 33.04660217 0.09765625 28.41796875 C0.09553383 27.19670036 0.09553383 27.19670036 0.09336853 25.95075989 C0.08779317 23.36296844 0.07524524 20.77526508 0.0625 18.1875 C0.05748181 16.42773563 0.05291946 14.66796989 0.04882812 12.90820312 C0.03783181 8.60543506 0.02058421 4.30273244 0 0 Z " fill="#DFB3B5" transform="translate(84,0)"/>
<path d="M0 0 C3.96 0 7.92 0 12 0 C12 4.62 12 9.24 12 14 C11.67 14 11.34 14 11 14 C11 12.35 11 10.7 11 9 C8.69 8.67 6.38 8.34 4 8 C2.58554704 16.48671775 2.84374593 23.68302002 5 32 C5.66 32 6.32 32 7 32 C7.268125 32.804375 7.53625 33.60875 7.8125 34.4375 C8.204375 35.283125 8.59625 36.12875 9 37 C9.99 37.33 10.98 37.66 12 38 C11.67 38.99 11.34 39.98 11 41 C10.01 41 9.02 41 8 41 C6.6484375 39.57421875 6.6484375 39.57421875 5.375 37.6875 C4.94960937 37.07261719 4.52421875 36.45773438 4.0859375 35.82421875 C3 34 3 34 2 31 C1.34 30.67 0.68 30.34 0 30 C-1.44500128 25.66499617 -1.18431828 21.47780913 -1.1875 16.9375 C-1.19974609 16.01388672 -1.21199219 15.09027344 -1.22460938 14.13867188 C-1.22654297 13.25630859 -1.22847656 12.37394531 -1.23046875 11.46484375 C-1.23457764 10.656521 -1.23868652 9.84819824 -1.24291992 9.01538086 C-1 7 -1 7 1 5 C2.32 5 3.64 5 5 5 C3.35 3.35 1.7 1.7 0 0 Z " fill="#DFC4BA" transform="translate(71,0)"/>
<path d="M0 0 C0.66 0.33 1.32 0.66 2 1 C1.77183594 1.68707031 1.54367188 2.37414063 1.30859375 3.08203125 C0.87740234 4.43361328 0.87740234 4.43361328 0.4375 5.8125 C0.14746094 6.70582031 -0.14257812 7.59914063 -0.44140625 8.51953125 C-1.24979556 11.11215139 -1.24979556 11.11215139 0 14 C-0.77734375 16.26171875 -0.77734375 16.26171875 -1.9375 18.6875 C-2.31777344 19.49574219 -2.69804688 20.30398437 -3.08984375 21.13671875 C-3.39019531 21.75160156 -3.69054687 22.36648437 -4 23 C-4.33 22.01 -4.66 21.02 -5 20 C-5.55429688 20.7940625 -6.10859375 21.588125 -6.6796875 22.40625 C-7.76636719 23.93765625 -7.76636719 23.93765625 -8.875 25.5 C-9.95394531 27.03140625 -9.95394531 27.03140625 -11.0546875 28.59375 C-11.69664063 29.3878125 -12.33859375 30.181875 -13 31 C-13.66 31 -14.32 31 -15 31 C-15.495 32.485 -15.495 32.485 -16 34 C-17.95597184 35.39712274 -19.95436401 36.73779907 -22 38 C-22.66 37.67 -23.32 37.34 -24 37 C-22.41727985 34.93702698 -20.83384324 32.87461051 -19.25 30.8125 C-18.8065625 30.23435547 -18.363125 29.65621094 -17.90625 29.06054688 C-17.46796875 28.49013672 -17.0296875 27.91972656 -16.578125 27.33203125 C-16.14322754 26.76178223 -15.70833008 26.1915332 -15.26025391 25.60400391 C-14.1551574 24.19747852 -12.97716886 22.84886318 -11.7890625 21.51171875 C-9.58486577 18.41718054 -8.96083873 15.69361116 -8.125 12 C-6.55485546 6.00832844 -5.33421977 3.15203895 0 0 Z " fill="#EED3CD" transform="translate(81,51)"/>
<path d="M0 0 C1.4540625 0.0309375 1.4540625 0.0309375 2.9375 0.0625 C1.27448313 7.7915689 -1.45946746 12.53417456 -7.0625 18.0625 C-7.8875 18.908125 -8.7125 19.75375 -9.5625 20.625 C-10.3875 21.429375 -11.2125 22.23375 -12.0625 23.0625 C-12.64257812 23.66449219 -13.22265625 24.26648438 -13.8203125 24.88671875 C-14.43648437 25.52222656 -15.05265625 26.15773438 -15.6875 26.8125 C-16.54214844 27.70195313 -16.54214844 27.70195313 -17.4140625 28.609375 C-19.0625 30.0625 -19.0625 30.0625 -22.0625 31.0625 C-21.31781915 23.31781915 -21.31781915 23.31781915 -18.0625 20.0625 C-17.4025 20.0625 -16.7425 20.0625 -16.0625 20.0625 C-15.876875 19.505625 -15.69125 18.94875 -15.5 18.375 C-13.96720591 15.90920082 -13.05335197 15.37709263 -10.625 13.9375 C-6.43880333 11.16991052 -5.67766158 7.90964702 -4.5703125 3.171875 C-3.7710581 -0.14810481 -3.57146659 0.07288707 0 0 Z " fill="#C6A8AF" transform="translate(71.0625,55.9375)"/>
<path d="M0 0 C0 2.64 0 5.28 0 8 C-0.33 8 -0.66 8 -1 8 C-1 6.35 -1 4.7 -1 3 C-1.99 3 -2.98 3 -4 3 C-4.33 6.63 -4.66 10.26 -5 14 C-3.68 13.34 -2.36 12.68 -1 12 C1.33203812 11.9222654 3.66839059 11.91032272 6 12 C5.54109375 12.8559375 5.0821875 13.711875 4.609375 14.59375 C3.04648059 17.9016236 2.14280627 20.96246572 1.25 24.5 C-1.27453711 32.99250414 -5.70239755 35.66088503 -13 40 C-14.36984198 41.29579647 -15.7151049 42.61992749 -17 44 C-17.66 43.67 -18.32 43.34 -19 43 C-17.9375 41.9375 -16.875 40.875 -15.8125 39.8125 C-15.17828125 39.17570312 -14.5440625 38.53890625 -13.890625 37.8828125 C-12.74495705 36.74187872 -11.59092485 35.60915097 -10.421875 34.4921875 C-9.246063 33.36367829 -8.11802565 32.18578478 -7 31 C-7 30.34 -7 29.68 -7 29 C-6.38640625 28.78601563 -5.7728125 28.57203125 -5.140625 28.3515625 C-2.19315811 26.49057063 -1.81543218 24.64739883 -0.75 21.375 C-0.24726562 19.87066406 -0.24726562 19.87066406 0.265625 18.3359375 C0.50796875 17.56507812 0.7503125 16.79421875 1 16 C-0.65 16 -2.3 16 -4 16 C-4.15855469 16.68707031 -4.31710938 17.37414062 -4.48046875 18.08203125 C-6.40994854 25.53344768 -6.40994854 25.53344768 -9.6875 28.125 C-10.450625 28.41375 -11.21375 28.7025 -12 29 C-11.55333984 27.95585938 -11.55333984 27.95585938 -11.09765625 26.890625 C-8.54786291 20.17586673 -7.04983272 12.9716497 -6.5625 5.8125 C-6.376875 4.554375 -6.19125 3.29625 -6 2 C-3.86395156 0.61528148 -2.55384017 0 0 0 Z " fill="#907B7D" transform="translate(72,41)"/>
<path d="M0 0 C1.12758089 3.38274266 0.81750262 4.76778223 0.0625 8.1875 C-0.13214844 9.08855469 -0.32679687 9.98960938 -0.52734375 10.91796875 C-0.68332031 11.60503906 -0.83929688 12.29210938 -1 13 C-2.65 13 -4.3 13 -6 13 C-5.01 13.66 -4.02 14.32 -3 15 C-3.46671627 20.41390868 -4.24297811 24.20517932 -7 29 C-7.99 29 -8.98 29 -10 29 C-10.33 26.36 -10.66 23.72 -11 21 C-10.01 20.34 -9.02 19.68 -8 19 C-8.33 18.67 -8.66 18.34 -9 18 C-9.78854831 12.00703285 -7.5042207 6.36488158 -5 1 C-3 0 -3 0 0 0 Z " fill="#E9C9C6" transform="translate(49,32)"/>
<path d="M0 0 C0.66 0.66 1.32 1.32 2 2 C-0.31 4.97 -2.62 7.94 -5 11 C-3.68 10.34 -2.36 9.68 -1 9 C-1.25 10.875 -1.25 10.875 -2 13 C-3.32467746 13.6837045 -4.65863633 14.34964186 -6 15 C-6.309375 15.680625 -6.61875 16.36125 -6.9375 17.0625 C-7.288125 17.701875 -7.63875 18.34125 -8 19 C-10.625 19.75 -10.625 19.75 -13 20 C-11.68 17.69 -10.36 15.38 -9 13 C-11.97 15.475 -11.97 15.475 -15 18 C-16.82177738 14.24928186 -17.36624071 11.99362668 -16 8 C-14.4375 6.1875 -14.4375 6.1875 -13 5 C-13 6.32 -13 7.64 -13 9 C-7.86782097 6.74684823 -4.0903084 3.73936478 0 0 Z " fill="#B08C92" transform="translate(63,77)"/>
<path d="M0 0 C1.65 0 3.3 0 5 0 C6.0690003 3.20700089 6.13332529 5.56992069 6.125 8.9375 C6.12886719 10.49791016 6.12886719 10.49791016 6.1328125 12.08984375 C6.01932023 14.57665971 5.71928571 16.63092407 5 19 C4.34 19 3.68 19 3 19 C3 19.99 3 20.98 3 22 C1.30099815 23.01577335 -0.40970451 24.0119898 -2.125 25 C-3.07632813 25.556875 -4.02765625 26.11375 -5.0078125 26.6875 C-8.26515122 28.11630654 -10.4837829 28.25041309 -14 28 C-15.66052477 23.27389104 -14.56611389 20.4867999 -12.5625 16.125 C-11.7230044 14.40940954 -10.87345486 12.69855235 -10 11 C-9.01 11.33 -8.02 11.66 -7 12 C-7.165 13.11375 -7.33 14.2275 -7.5 15.375 C-8.110931 19.79486223 -8.110931 19.79486223 -7 24 C-1.7786608 22.37580496 -1.7786608 22.37580496 1.4375 18.3125 C1.623125 17.549375 1.80875 16.78625 2 16 C2.66 16 3.32 16 4 16 C4.62020813 8.55715322 4.62020813 8.55715322 2 1.8125 C1.34 1.214375 0.68 0.61625 0 0 Z " fill="#F1D4CF" transform="translate(60,1)"/>
<path d="M0 0 C0.33 0.99 0.66 1.98 1 3 C0.07421875 4.734375 0.07421875 4.734375 -1.3125 6.75 C-4.51049304 12.12121482 -4.97282165 17.45695208 -5.54296875 23.546875 C-5.96533782 26.73810799 -6.74136857 29.06998755 -8 32 C-8.33397787 35.12586875 -8.33397787 35.12586875 -8 38 C-7.34 38.66 -6.68 39.32 -6 40 C-7.98 40.495 -7.98 40.495 -10 41 C-9.814375 41.94875 -9.62875 42.8975 -9.4375 43.875 C-9 47 -9 47 -10 49 C-8.02 48.505 -8.02 48.505 -6 48 C-6.33 48.99 -6.66 49.98 -7 51 C-8.9914056 51.38133299 -10.99279077 51.71325582 -13 52 C-14 51 -14 51 -14.1875 48.3125 C-13.99079436 44.83736703 -13.1361846 42.27488503 -12 39 C-11.855625 37.865625 -11.71125 36.73125 -11.5625 35.5625 C-11.04462493 32.28262453 -10.07170071 30.02331895 -8.671875 27.05859375 C-7.82189955 24.4543085 -7.8219086 22.11112212 -7.75 19.375 C-7.33613229 11.77138387 -3.93271039 6.36626747 0 0 Z " fill="#8D7B7A" transform="translate(49,12)"/>
<path d="M0 0 C1.32 0 2.64 0 4 0 C3.9278125 1.13050781 3.855625 2.26101563 3.78125 3.42578125 C2.92255849 17.95465797 2.89315586 32.44947121 3 47 C0.525 47.495 0.525 47.495 -2 48 C-2.33 46.35 -2.66 44.7 -3 43 C-2.01 42.505 -2.01 42.505 -1 42 C0.35190902 37.57416452 0.12784394 33.00069507 0.09765625 28.41796875 C0.0962413 27.60378983 0.09482635 26.7896109 0.09336853 25.95075989 C0.08779317 23.36296844 0.07524524 20.77526508 0.0625 18.1875 C0.05748181 16.42773563 0.05291946 14.66796989 0.04882812 12.90820312 C0.03783181 8.60543506 0.02058421 4.30273244 0 0 Z " fill="#D3CBBC" transform="translate(84,0)"/>
<path d="M0 0 C0.33 0 0.66 0 1 0 C1.81111652 8.30531047 2.18244947 16.53152595 2.1875 24.875 C2.19974609 25.96296875 2.21199219 27.0509375 2.22460938 28.171875 C2.23437612 33.49800831 2.1890991 38.03342733 0 43 C-2.97 42.01 -5.94 41.02 -9 40 C-9.66 36.7 -10.32 33.4 -11 30 C-7.78455056 31.60772472 -6.56845387 34.89025164 -5 38 C-4.67 38.99 -4.34 39.98 -4 41 C-2.515 40.505 -2.515 40.505 -1 40 C-0.081262 31.06327905 0.12342391 22.2292465 0.0625 13.25 C0.05798828 11.96867188 0.05347656 10.68734375 0.04882812 9.3671875 C0.0371772 6.24474069 0.02082025 3.12239682 0 0 Z " fill="#9F8A82" transform="translate(83,0)"/>
<path d="M0 0 C1.485 0.99 1.485 0.99 3 2 C2.835 2.66 2.67 3.32 2.5 4 C1.32102292 11.07386247 2.22172836 17.14095223 4 24 C4.66 24 5.32 24 6 24 C6.268125 24.804375 6.53625 25.60875 6.8125 26.4375 C7.204375 27.283125 7.59625 28.12875 8 29 C8.99 29.33 9.98 29.66 11 30 C10.67 30.99 10.34 31.98 10 33 C9.01 33 8.02 33 7 33 C-1.11958617 24.42263301 -1.10916867 15.14488277 -1.1328125 3.9140625 C-1 1 -1 1 0 0 Z " fill="#F0D4CC" transform="translate(72,8)"/>
<path d="M0 0 C0.99 0.33 1.98 0.66 3 1 C2.54109375 1.69222656 2.0821875 2.38445313 1.609375 3.09765625 C-0.11314233 6.20404066 -0.89144556 8.99923245 -1.75 12.4375 C-4.26897998 20.97886889 -8.66554231 23.6389711 -16 28 C-17.36984198 29.29579647 -18.7151049 30.61992749 -20 32 C-20.66 31.67 -21.32 31.34 -22 31 C-20.9375 29.9375 -19.875 28.875 -18.8125 27.8125 C-18.17828125 27.17570312 -17.5440625 26.53890625 -16.890625 25.8828125 C-15.74495705 24.74187872 -14.59092485 23.60915097 -13.421875 22.4921875 C-12.246063 21.36367829 -11.11802565 20.18578478 -10 19 C-10 18.34 -10 17.68 -10 17 C-9.40703125 16.82726562 -8.8140625 16.65453125 -8.203125 16.4765625 C-4.88688518 14.25397623 -4.05681442 10.98874193 -2.75 7.375 C-2.481875 6.66859375 -2.21375 5.9621875 -1.9375 5.234375 C-1.27908961 3.4942904 -0.63785546 1.74772397 0 0 Z " fill="#876663" transform="translate(75,53)"/>
<path d="M0 0 C2.66355234 -0.39169887 4.39224373 -0.40564529 6.66796875 1.11328125 C8.1510888 2.36389317 9.57954352 3.67864514 11 5 C9 6 9 6 5 7 C5 14.59 5 22.18 5 30 C2.5162463 27.5162463 2.67196884 26.43222478 2.4375 23 C2.22782477 19.36281225 2.22782477 19.36281225 1 16 C0.92937076 12.68484019 1.00323387 9.38160534 1.0625 6.06640625 C1.15090725 2.95800526 1.15090725 2.95800526 0 0 Z " fill="#D2A4A4" transform="translate(66,0)"/>
<path d="M0 0 C1.98 0 3.96 0 6 0 C3.29384966 10.74259681 3.29384966 10.74259681 -1 14 C-1.66 13.67 -2.32 13.34 -3 13 C-2.45144652 8.428721 -1.58255197 4.32564205 0 0 Z " fill="#F3D8D6" transform="translate(68,56)"/>
<path d="M0 0 C0.99 0.33 1.98 0.66 3 1 C2.67 2.98 2.34 4.96 2 7 C1.67 7 1.34 7 1 7 C0.67 8.65 0.34 10.3 0 12 C-1.98 12.33 -3.96 12.66 -6 13 C-6.0270043 11.54176788 -6.04639787 10.08339325 -6.0625 8.625 C-6.07410156 7.81289063 -6.08570312 7.00078125 -6.09765625 6.1640625 C-6 4 -6 4 -5 2 C-3.67696283 1.6278958 -2.34262065 1.29369827 -1 1 C-0.67 0.67 -0.34 0.34 0 0 Z " fill="#CEA0A3" transform="translate(73,42)"/>
<path d="M0 0 C1.32554118 3.97662354 0.34765994 6.09887911 -1 10 C-1.66 10.66 -2.32 11.32 -3 12 C-4.32 11.34 -5.64 10.68 -7 10 C-6.71872579 8.51882199 -6.42466268 7.04006751 -6.125 5.5625 C-5.96257813 4.73878906 -5.80015625 3.91507813 -5.6328125 3.06640625 C-5.42398438 2.38449219 -5.21515625 1.70257813 -5 1 C-3 0 -3 0 0 0 Z " fill="#F7D8D7" transform="translate(49,32)"/>
<path d="M0 0 C2 3 2 3 2 5 C2.66 5 3.32 5 4 5 C5.31626692 8.61973402 6 11.09567131 6 15 C8.31 15.66 10.62 16.32 13 17 C10 19 10 19 8 19 C8 18.34 8 17.68 8 17 C6.68 16.34 5.36 15.68 4 15 C4 14.01 4 13.02 4 12 C3.34 12 2.68 12 2 12 C2 11.01 2 10.02 2 9 C1.01 9.33 0.02 9.66 -1 10 C-0.67 6.7 -0.34 3.4 0 0 Z " fill="#9E7174" transform="translate(68,25)"/>
<path d="M0 0 C3.96 0 7.92 0 12 0 C12 2.64 12 5.28 12 8 C11.01 7.67 10.02 7.34 9 7 C9 6.01 9 5.02 9 4 C8.443125 4.268125 7.88625 4.53625 7.3125 4.8125 C6.549375 4.874375 5.78625 4.93625 5 5 C2.25 2.5625 2.25 2.5625 0 0 Z " fill="#F2E6DB" transform="translate(71,0)"/>
<path d="M0 0 C0 5.77290754 -2.60469857 9.00898664 -6.4375 13.125 C-7.21996094 13.97320312 -8.00242187 14.82140625 -8.80859375 15.6953125 C-10.51557963 17.49053829 -12.23440867 19.26279438 -14 21 C-14.99 20.67 -15.98 20.34 -17 20 C-16.43410156 19.51789063 -15.86820313 19.03578125 -15.28515625 18.5390625 C-14.55167969 17.90742187 -13.81820312 17.27578125 -13.0625 16.625 C-12.33160156 15.99851562 -11.60070313 15.37203125 -10.84765625 14.7265625 C-8.91619094 13.12252286 -8.91619094 13.12252286 -8 11 C-8 10.01 -8 9.02 -8 8 C-6.625 6.3125 -6.625 6.3125 -5 5 C-4.34 5 -3.68 5 -3 5 C-2.690625 4.360625 -2.38125 3.72125 -2.0625 3.0625 C-1 1 -1 1 0 0 Z " fill="#83716E" transform="translate(71,77)"/>
<path d="M0 0 C0.33 0 0.66 0 1 0 C1.33 7.26 1.66 14.52 2 22 C0.35 22.33 -1.3 22.66 -3 23 C-3.33 21.35 -3.66 19.7 -4 18 C-3.34 17.67 -2.68 17.34 -2 17 C-1.52381188 14.12817413 -1.15832403 11.32879853 -0.875 8.4375 C-0.78863281 7.63119141 -0.70226562 6.82488281 -0.61328125 5.99414062 C-0.40056372 3.99695936 -0.19922145 1.99857263 0 0 Z " fill="#F7ECE4" transform="translate(85,25)"/>
<path d="M0 0 C0.84498047 0.34417969 0.84498047 0.34417969 1.70703125 0.6953125 C0.1287631 2.15912609 -1.45579104 3.61616413 -3.04296875 5.0703125 C-3.9246875 5.88242188 -4.80640625 6.69453125 -5.71484375 7.53125 C-7.89099396 9.3578973 -9.70116994 10.59319244 -12.29296875 11.6953125 C-11.96829096 8.51457073 -11.58445025 7.00630493 -9.3671875 4.640625 C-8.57957031 4.03992188 -7.79195312 3.43921875 -6.98046875 2.8203125 C-5.81064453 1.89605469 -5.81064453 1.89605469 -4.6171875 0.953125 C-2.29296875 -0.3046875 -2.29296875 -0.3046875 0 0 Z " fill="#E2BCC6" transform="translate(61.29296875,75.3046875)"/>
<path d="M0 0 C2.56695636 0.39491636 4.67123994 0.83561997 7 2 C6.67 2.99 6.34 3.98 6 5 C6 4.34 6 3.68 6 3 C4.35 3.66 2.7 4.32 1 5 C1 7.64 1 10.28 1 13 C0.34 13 -0.32 13 -1 13 C-1.33 13.99 -1.66 14.98 -2 16 C-2.08997924 10.87118304 -1.93119789 6.0698552 -1 1 C-0.67 0.67 -0.34 0.34 0 0 Z " fill="#F9EDE2" transform="translate(75,7)"/>
<path d="M0 0 C0.66 0.33 1.32 0.66 2 1 C1.01 3.97 0.02 6.94 -1 10 C-2.98 10 -4.96 10 -7 10 C-5.76075855 5.04303419 -4.21422242 2.88341534 0 0 Z " fill="#E0C7C0" transform="translate(81,51)"/>
<path d="M0 0 C0.556875 0.268125 1.11375 0.53625 1.6875 0.8125 C1.0275 2.1325 0.3675 3.4525 -0.3125 4.8125 C-1.3025 4.8125 -2.2925 4.8125 -3.3125 4.8125 C-3.3125 5.8025 -3.3125 6.7925 -3.3125 7.8125 C-6.64583333 10.8125 -6.64583333 10.8125 -9.3125 10.8125 C-8.0966464 6.05961775 -5.84586916 -0.47398939 0 0 Z " fill="#D8C9C3" transform="translate(59.3125,1.1875)"/>
<path d="M0 0 C2.00720923 0.28674418 4.0085944 0.61866701 6 1 C5.34 3.31 4.68 5.62 4 8 C2.68 8.33 1.36 8.66 0 9 C-0.87890625 2.84765625 -0.87890625 2.84765625 -1 1 C-0.67 0.67 -0.34 0.34 0 0 Z " fill="#F3D5D7" transform="translate(39,52)"/>
<path d="M0 0 C0.99 0.33 1.98 0.66 3 1 C2.835 2.11375 2.67 3.2275 2.5 4.375 C1.7936288 8.39577481 1.7936288 8.39577481 3 12 C2.34 12 1.68 12 1 12 C0.67 12.66 0.34 13.32 0 14 C-0.33 13.01 -0.66 12.02 -1 11 C-1.66 11 -2.32 11 -3 11 C-2.44894091 7.0507432 -1.61064629 3.65079826 0 0 Z " fill="#EBE1DB" transform="translate(50,12)"/>
<path d="M0 0 C2.31 0 4.62 0 7 0 C8.77410934 3.02255666 9.20346075 4.86197197 8.7578125 8.328125 C8.66113281 9.12734375 8.56445312 9.9265625 8.46484375 10.75 C8.35269531 11.575 8.24054688 12.4 8.125 13.25 C7.96837891 14.51070312 7.96837891 14.51070312 7.80859375 15.796875 C7.54995635 17.86597421 7.27642363 19.93320179 7 22 C6.01 22.33 5.02 22.66 4 23 C4 22.01 4 21.02 4 20 C4.66 20 5.32 20 6 20 C6 14.06 6 8.12 6 2 C3.03 1.505 3.03 1.505 0 1 C0 0.67 0 0.34 0 0 Z " fill="#D2ABAD" transform="translate(59,0)"/>
<path d="M0 0 C0.66 0.33 1.32 0.66 2 1 C1.3503125 1.62648438 0.700625 2.25296875 0.03125 2.8984375 C-1.22171875 4.12433594 -1.22171875 4.12433594 -2.5 5.375 C-3.3353125 6.18710938 -4.170625 6.99921875 -5.03125 7.8359375 C-7.22431286 9.7589659 -7.22431286 9.7589659 -7 12 C-8.65 11.67 -10.3 11.34 -12 11 C-11 10 -10 9 -9 8 C-8.195625 7.175 -7.39125 6.35 -6.5625 5.5 C-4.45708954 3.44594102 -2.39843818 1.68778983 0 0 Z " fill="#E6D8D7" transform="translate(63,87)"/>
<path d="M0 0 C0.99 0.33 1.98 0.66 3 1 C2.67 2.32 2.34 3.64 2 5 C3.32 4.67 4.64 4.34 6 4 C5.67 4.99 5.34 5.98 5 7 C3.0085944 7.38133299 1.00720923 7.71325582 -1 8 C-2 7 -2 7 -2.0625 3.9375 C-2.041875 2.968125 -2.02125 1.99875 -2 1 C-1.34 0.67 -0.68 0.34 0 0 Z " fill="#BDAAAD" transform="translate(37,56)"/>
<path d="M0 0 C1 3 1 3 0.0625 5.1875 C-0.288125 5.785625 -0.63875 6.38375 -1 7 C-1.66 7 -2.32 7 -3 7 C-3.66 8.98 -4.32 10.96 -5 13 C-6.04449911 9.86650268 -5.93423645 9.01031744 -5 6 C-6.32 6.33 -7.64 6.66 -9 7 C-8.375 5.0625 -8.375 5.0625 -7 3 C-3.9375 2.375 -3.9375 2.375 -1 2 C-0.67 1.34 -0.34 0.68 0 0 Z " fill="#84756E" transform="translate(87,46)"/>
<path d="M0 0 C0 2.64 0 5.28 0 8 C-0.33 8 -0.66 8 -1 8 C-1 6.35 -1 4.7 -1 3 C-1.99 3 -2.98 3 -4 3 C-4.66 7.62 -5.32 12.24 -6 17 C-6.33 17 -6.66 17 -7 17 C-6.94012211 14.53901884 -6.85321526 12.08421588 -6.75 9.625 C-6.73582031 8.92632812 -6.72164063 8.22765625 -6.70703125 7.5078125 C-6.609375 5.4765625 -6.609375 5.4765625 -6 2 C-3.83034067 0.33306661 -2.70866848 0 0 0 Z " fill="#7D5D5F" transform="translate(72,41)"/>
<path d="M0 0 C1.32 0 2.64 0 4 0 C3.25 5.75 3.25 5.75 1 8 C0.01 8 -0.98 8 -2 8 C-1.125 1.125 -1.125 1.125 0 0 Z " fill="#F7E3D9" transform="translate(75,60)"/>
<path d="M0 0 C0.66 0.33 1.32 0.66 2 1 C0.35 6.28 -1.3 11.56 -3 17 C-3.66 16.34 -4.32 15.68 -5 15 C-4.69728039 13.65938457 -4.36162029 12.32594105 -4 11 C-4.33 10.01 -4.66 9.02 -5 8 C-4.67 7.34 -4.34 6.68 -4 6 C-3.34 6 -2.68 6 -2 6 C-1.34 4.02 -0.68 2.04 0 0 Z " fill="#A0958F" transform="translate(84,53)"/>
<path d="M0 0 C0.66 0 1.32 0 2 0 C2 2.64 2 5.28 2 8 C2.66 8 3.32 8 4 8 C3.67 8.66 3.34 9.32 3 10 C0.9375 10.625 0.9375 10.625 -1 11 C-1.0270043 9.54176788 -1.04639787 8.08339325 -1.0625 6.625 C-1.07410156 5.81289063 -1.08570312 5.00078125 -1.09765625 4.1640625 C-1 2 -1 2 0 0 Z " fill="#CFA8AD" transform="translate(68,44)"/>
<path d="M0 0 C1.61635488 2.86973884 2.2733418 5.04464203 2.4140625 8.328125 C2.45273438 9.12734375 2.49140625 9.9265625 2.53125 10.75 C2.5621875 11.575 2.593125 12.4 2.625 13.25 C2.66367188 14.09046875 2.70234375 14.9309375 2.7421875 15.796875 C2.83615836 17.86423382 2.91915564 19.93208627 3 22 C0.55716634 19.55716634 0.67727797 18.61709488 0.4375 15.25 C0.20435137 12.30808822 -0.08649913 9.53290472 -0.625 6.625 C-0.99534178 4.03260756 -0.84863218 2.45160408 0 0 Z " fill="#BE9592" transform="translate(68,8)"/>
<path d="M0 0 C0.185625 0.9590625 0.185625 0.9590625 0.375 1.9375 C0.684375 2.9584375 0.684375 2.9584375 1 4 C1.66 4.33 2.32 4.66 3 5 C2.01 5.99 1.02 6.98 0 8 C0.66 8.66 1.32 9.32 2 10 C1.01 10.99 0.02 11.98 -1 13 C-2.83354669 9.22505093 -3.27227191 7.02886104 -2 3 C-1.34 2.01 -0.68 1.02 0 0 Z " fill="#8C777B" transform="translate(49,82)"/>
<path d="M0 0 C1.32 0.33 2.64 0.66 4 1 C4.33 2.65 4.66 4.3 5 6 C4.01 6.495 4.01 6.495 3 7 C2.53348793 9.12576782 2.53348793 9.12576782 2.375 11.5625 C2.30023438 12.38878906 2.22546875 13.21507812 2.1484375 14.06640625 C2.09945312 14.70449219 2.05046875 15.34257813 2 16 C1.67 16 1.34 16 1 16 C0.67 10.72 0.34 5.44 0 0 Z " fill="#947A7C" transform="translate(64,36)"/>
<path d="M0 0 C0.66 0 1.32 0 2 0 C2.268125 0.804375 2.53625 1.60875 2.8125 2.4375 C3.204375 3.283125 3.59625 4.12875 4 5 C4.99 5.33 5.98 5.66 7 6 C6.67 6.99 6.34 7.98 6 9 C5.01 9 4.02 9 3 9 C0.50022457 5.66696609 0 4.26696398 0 0 Z " fill="#F6DDD7" transform="translate(76,32)"/>
<path d="M0 0 C1.32 0.66 2.64 1.32 4 2 C1.4837822 4.60608273 -1.05134359 6.89381685 -4 9 C-4.66 8.67 -5.32 8.34 -6 8 C-4.02 5.36 -2.04 2.72 0 0 Z " fill="#F3D4D5" transform="translate(63,80)"/>
<path d="M0 0 C0.99 0.495 0.99 0.495 2 1 C3.04976964 4.14930893 3.10131595 6.38814456 3.0625 9.6875 C3.05347656 10.68136719 3.04445313 11.67523438 3.03515625 12.69921875 C3.02355469 13.45847656 3.01195313 14.21773437 3 15 C2.34 15 1.68 15 1 15 C0.67 10.05 0.34 5.1 0 0 Z " fill="#EFE5D8" transform="translate(81,13)"/>
<path d="M0 0 C0.33 0.99 0.66 1.98 1 3 C1.99 3 2.98 3 4 3 C4.33 2.34 4.66 1.68 5 1 C5 1.99 5 2.98 5 4 C1.25 5.125 1.25 5.125 -1 4 C-1.33 4.99 -1.66 5.98 -2 7 C-2.66 7 -3.32 7 -4 7 C-3.6875 4.625 -3.6875 4.625 -3 2 C-2.01 1.34 -1.02 0.68 0 0 Z " fill="#E6CAC7" transform="translate(81,45)"/>
<path d="M0 0 C0.33 0.66 0.66 1.32 1 2 C1.66 2.33 2.32 2.66 3 3 C2.360625 3.12375 1.72125 3.2475 1.0625 3.375 C0.381875 3.58125 -0.29875 3.7875 -1 4 C-1.33 4.66 -1.66 5.32 -2 6 C-3.32796291 6.35412344 -4.66216607 6.68521554 -6 7 C-6.99 7.66 -7.98 8.32 -9 9 C-7.48328036 4.44984107 -3.83108947 2.49942736 0 0 Z " fill="#AB9095" transform="translate(64,67)"/>
<path d="M0 0 C0.44472656 0.92039063 0.44472656 0.92039063 0.8984375 1.859375 C2.05882978 4.11432169 3.43586289 6.00928004 5 8 C4.38125 8.04125 3.7625 8.0825 3.125 8.125 C2.42375 8.41375 1.7225 8.7025 1 9 C-0.3045656 11.99615946 -0.3045656 11.99615946 -1 15 C-2.20220203 11.46905698 -1.79532349 8.87101018 -1.0625 5.25 C-0.86785156 4.26515625 -0.67320313 3.2803125 -0.47265625 2.265625 C-0.31667969 1.51796875 -0.16070312 0.7703125 0 0 Z " fill="#A08B88" transform="translate(38,44)"/>
<path d="M0 0 C0.66 0.33 1.32 0.66 2 1 C1.54625 1.433125 1.0925 1.86625 0.625 2.3125 C-1.20024334 4.10798342 -1.20024334 4.10798342 -3 7 C-6.625 7.6875 -6.625 7.6875 -10 8 C-7.62630732 5.37644494 -5.03386523 3.78920257 -2 2 C-1.34 1.34 -0.68 0.68 0 0 Z " fill="#BB9393" transform="translate(64,22)"/>
<path d="M0 0 C1.21386936 3.64160808 0.6674695 4.33165469 -0.9375 7.6875 C-1.31777344 8.49574219 -1.69804688 9.30398437 -2.08984375 10.13671875 C-2.39019531 10.75160156 -2.69054687 11.36648437 -3 12 C-4.22419163 8.06204091 -3.48320272 5.83887763 -2 2 C-1.34 2 -0.68 2 0 2 C0 1.34 0 0.68 0 0 Z " fill="#C5B7B1" transform="translate(80,62)"/>
<path d="M0 0 C0.66 0.66 1.32 1.32 2 2 C1.113125 2.391875 0.22625 2.78375 -0.6875 3.1875 C-4.12129608 5.06636955 -6.36541769 7.13295455 -9 10 C-9.66 9.67 -10.32 9.34 -11 9 C-9.92319498 7.86874978 -8.83824365 6.74525081 -7.75 5.625 C-7.14671875 4.99851562 -6.5434375 4.37203125 -5.921875 3.7265625 C-4.0299412 2.02689839 -2.31798691 1.01540134 0 0 Z " fill="#7C525B" transform="translate(64,75)"/>
<path d="M0 0 C1.4540625 0.0309375 1.4540625 0.0309375 2.9375 0.0625 C-0.6875 4.9375 -0.6875 4.9375 -4.0625 6.0625 C-4.105221 4.39638095 -4.10313832 2.72867115 -4.0625 1.0625 C-3.0625 0.0625 -3.0625 0.0625 0 0 Z " fill="#EBCBCE" transform="translate(71.0625,55.9375)"/>
<path d="M0 0 C2 2 2 2 3 5 C3.66 5.33 4.32 5.66 5 6 C5 6.66 5 7.32 5 8 C3.35 8.33 1.7 8.66 0 9 C0 6.03 0 3.06 0 0 Z " fill="#C6A2A0" transform="translate(44,24)"/>
<path d="M0 0 C0.66 0.33 1.32 0.66 2 1 C1.57847656 1.47050781 1.15695313 1.94101562 0.72265625 2.42578125 C0.17480469 3.04839844 -0.37304688 3.67101562 -0.9375 4.3125 C-1.48277344 4.92738281 -2.02804688 5.54226562 -2.58984375 6.17578125 C-4.20081559 8.05241958 -4.20081559 8.05241958 -5 11 C-5.66 11 -6.32 11 -7 11 C-5.72278474 6.00724943 -3.82669043 3.42388092 0 0 Z " fill="#8C817C" transform="translate(57,1)"/>
<path d="M0 0 C2.66355234 -0.39169887 4.39224373 -0.40564529 6.66796875 1.11328125 C8.1510888 2.36389317 9.57954352 3.67864514 11 5 C10.01 5.495 10.01 5.495 9 6 C5.42230149 4.4775751 2.54631035 2.97069541 0 0 Z " fill="#94636A" transform="translate(66,0)"/>
<path d="M0 0 C0.99 0.33 1.98 0.66 3 1 C3.33 2.65 3.66 4.3 4 6 C2.02 6 0.04 6 -2 6 C-1.34 4.02 -0.68 2.04 0 0 Z " fill="#ECCFC9" transform="translate(76,55)"/>
<path d="M0 0 C1.32 0.33 2.64 0.66 4 1 C2.35 2.65 0.7 4.3 -1 6 C-1.33 5.01 -1.66 4.02 -2 3 C-1.34 2.01 -0.68 1.02 0 0 Z " fill="#EACBD3" transform="translate(51,81)"/>
<path d="M0 0 C0.66 0 1.32 0 2 0 C2 0.99 2 1.98 2 3 C4.31 3.66 6.62 4.32 9 5 C6 7 6 7 4 7 C4 6.34 4 5.68 4 5 C2.68 4.34 1.36 3.68 0 3 C0 2.01 0 1.02 0 0 Z " fill="#885D5F" transform="translate(72,37)"/>
<path d="M0 0 C0.66 0.66 1.32 1.32 2 2 C0.35 3.65 -1.3 5.3 -3 7 C-3.33 6.34 -3.66 5.68 -4 5 C-2.52830189 1.26415094 -2.52830189 1.26415094 0 0 Z " fill="#9D727A" transform="translate(63,77)"/>
<path d="M0 0 C0.99 1.32 1.98 2.64 3 4 C2.01 4.99 1.02 5.98 0 7 C-0.99 6.01 -1.98 5.02 -3 4 C-2.01 2.68 -1.02 1.36 0 0 Z " fill="#E9CBC9" transform="translate(67,75)"/>
<path d="M0 0 C0.66 0.33 1.32 0.66 2 1 C-1.465 3.97 -1.465 3.97 -5 7 C-5.66 6.34 -6.32 5.68 -7 5 C-4.69 3.35 -2.38 1.7 0 0 Z " fill="#E2CACB" transform="translate(63,87)"/>
<path d="M0 0 C0.66 0 1.32 0 2 0 C1.1875 2.4375 1.1875 2.4375 0 5 C-0.99 5.33 -1.98 5.66 -3 6 C-2.42655063 3.13275314 -2.1385485 2.1385485 0 0 Z " fill="#E1C7CB" transform="translate(52,90)"/>
<path d="M0 0 C0.33 0.66 0.66 1.32 1 2 C1.5775 1.62875 2.155 1.2575 2.75 0.875 C5 0 5 0 7.25 0.875 C8.11625 1.431875 8.11625 1.431875 9 2 C8 3 8 3 6.15234375 3.09765625 C4.1015625 3.06510417 2.05078125 3.03255208 0 3 C0 2.01 0 1.02 0 0 Z " fill="#986D74" transform="translate(66,53)"/>
</svg>
