<?xml version="1.0" encoding="UTF-8"?>
<svg version="1.1" xmlns="http://www.w3.org/2000/svg" width="139" height="484">
<path d="M0 0 C45.87 0 91.74 0 139 0 C139 159.72 139 319.44 139 484 C93.13 484 47.26 484 0 484 C0 324.28 0 164.56 0 0 Z " fill="#FEFEFE" transform="translate(0,0)"/>
<path d="M0 0 C4.00370282 -0.24420175 7.99242614 -0.4217658 12 -0.5625 C13.12535156 -0.63791016 14.25070313 -0.71332031 15.41015625 -0.79101562 C23.62794301 -1.00727317 23.62794301 -1.00727317 27.48120117 1.8215332 C31.20092913 5.88241079 34.0542164 10.28298932 36.3125 15.3125 C38.11853551 19.35031502 38.11853551 19.35031502 40.63671875 22.94140625 C42.55394048 25.836466 42.40835181 28.18055565 42.5 31.625 C42.7738471 37.01811133 43.52524511 41.58915085 45.234375 46.69140625 C47.12938191 52.4054322 48.30989547 57.95703842 48 64 C45.01528097 64.33163545 43.46927042 64.31284695 40.9375 62.625 C35.80487168 55.67111646 34.25148005 47.34133144 32.61328125 39.00390625 C32.05615796 35.96836279 32.05615796 35.96836279 31 33 C29.7625 32.896875 28.525 32.79375 27.25 32.6875 C26.20585938 32.60048828 26.20585938 32.60048828 25.140625 32.51171875 C22.80151145 32.87189499 22.80151145 32.87189499 20.76171875 34.90234375 C18.27837715 39.26884018 18.45047697 42.93875917 18.5625 47.875 C18.55541016 48.74769531 18.54832031 49.62039062 18.54101562 50.51953125 C18.65671488 62.35645519 25.10749064 70.80370963 32.66796875 79.44140625 C34.45792431 81.53581174 35.90303284 83.46326345 37 86 C36.125 88 36.125 88 35 90 C35.30378052 92.68993053 35.30378052 92.68993053 36 95 C32.25 96.125 32.25 96.125 30 95 C29.34 95.99 28.68 96.98 28 98 C23.83066932 96.36240747 21.0206453 93.3160413 17.9375 90.1875 C17.14375977 89.40536133 17.14375977 89.40536133 16.33398438 88.60742188 C9 81.23662955 9 81.23662955 9 78 C8.08154297 77.67322266 8.08154297 77.67322266 7.14453125 77.33984375 C4.23143474 75.51982171 3.79260197 73.77540262 2.6875 70.5625 C2.34074219 69.59441406 1.99398437 68.62632813 1.63671875 67.62890625 C1 65 1 65 2 62 C2.66 62 3.32 62 4 62 C5.25664978 64.90600261 6 66.79604584 6 70 C6.66 70 7.32 70 8 70 C8.24492188 70.56847656 8.48984375 71.13695313 8.7421875 71.72265625 C12.08955738 78.63670646 16.49484165 82.07164224 23 86 C21.05859921 82.96899176 21.05859921 82.96899176 18.72265625 80.28515625 C13.37140115 73.86324875 10.19638849 68.93082528 8.63671875 60.53515625 C7.73366629 56.939567 5.88002154 55.23201669 3 53 C2 52 1 51 0 50 C1.485 49.505 1.485 49.505 3 49 C4.32 50.32 5.64 51.64 7 53 C7.495 50.03 7.495 50.03 8 47 C8.33 47 8.66 47 9 47 C9.2475 48.11375 9.495 49.2275 9.75 50.375 C10.61005339 54.04615198 10.61005339 54.04615198 13.125 55.4375 C14.053125 55.7159375 14.053125 55.7159375 15 56 C13.68 56 12.36 56 11 56 C11.47811177 57.77111844 11.9575278 59.54188483 12.4375 61.3125 C12.70433594 62.29863281 12.97117187 63.28476562 13.24609375 64.30078125 C13.78079425 66.21517526 14.37144538 68.11433615 15 70 C15.99 70 16.98 70 18 70 C17.7834375 68.81857422 17.7834375 68.81857422 17.5625 67.61328125 C16.20755718 59.66240151 15.76262281 52.057637 16 44 C14.37512529 43.83211627 12.75009558 43.66573213 11.125 43.5 C10.22007813 43.4071875 9.31515625 43.314375 8.3828125 43.21875 C6.06686789 42.96952705 6.06686789 42.96952705 4 43 C3.67 43.99 3.34 44.98 3 46 C3 45.01 3 44.02 3 43 C2.01 42.67 1.02 42.34 0 42 C-3.04054876 35.91890247 -2.12945959 27.57680111 -2.0625 20.9375 C-2.05798828 20.07189453 -2.05347656 19.20628906 -2.04882812 18.31445312 C-2.03719913 16.20960461 -2.01927073 14.10479242 -2 12 C-1.67 12 -1.34 12 -1 12 C-0.67 8.04 -0.34 4.08 0 0 Z " fill="#938584" transform="translate(52,0)"/>
<path d="M0 0 C0.33 0 0.66 0 1 0 C1.33 1.98 1.66 3.96 2 6 C2.7425 5.690625 3.485 5.38125 4.25 5.0625 C6.50692176 4.1905075 8.6450153 3.52332993 11 3 C8.47211993 5.79872437 6.79588866 7.45773019 3 8 C0.75471659 14.2832437 0.73329175 20.1215204 0.8125 26.75 C0.81314453 27.79027344 0.81378906 28.83054687 0.81445312 29.90234375 C0.78745112 35.54256259 0.78745112 35.54256259 2 41 C3.99983534 40.20882096 3.99983534 40.20882096 6 39 C6.33 38.01 6.66 37.02 7 36 C7.66 36 8.32 36 9 36 C9.33 34.68 9.66 33.36 10 32 C10.66 32 11.32 32 12 32 C13.45732062 25.35009036 14.45136137 18.7857936 15 12 C15.66 12 16.32 12 17 12 C17.18175781 12.66386719 17.36351563 13.32773438 17.55078125 14.01171875 C19.47070452 20.86482408 19.47070452 20.86482408 23 27 C23.66 27.33 24.32 27.66 25 28 C25 28.66 25 29.32 25 30 C29.455 30.99 29.455 30.99 34 32 C34.13277344 32.69867188 34.26554687 33.39734375 34.40234375 34.1171875 C34.57894531 35.02726562 34.75554687 35.93734375 34.9375 36.875 C35.11152344 37.77992187 35.28554687 38.68484375 35.46484375 39.6171875 C36.28986319 43.2906317 36.73193569 43.82129046 40 46 C39.01 46.33 38.02 46.66 37 47 C37.59738947 48.73151972 38.20323967 50.46012147 38.8125 52.1875 C39.14894531 53.15042969 39.48539063 54.11335938 39.83203125 55.10546875 C40.97962401 57.94950298 42.35307674 60.41871912 44 63 C40.2045063 61.54949285 39.08025596 59.9150265 37.4375 56.25 C35.02037634 50.62739851 33.71925137 44.9662979 32.578125 38.96875 C32.05866317 35.9608898 32.05866317 35.9608898 31 33 C29.7625 32.896875 28.525 32.79375 27.25 32.6875 C26.20585938 32.60048828 26.20585938 32.60048828 25.140625 32.51171875 C22.80151145 32.87189499 22.80151145 32.87189499 20.76171875 34.90234375 C18.27837715 39.26884018 18.45047697 42.93875917 18.5625 47.875 C18.55541016 48.74769531 18.54832031 49.62039062 18.54101562 50.51953125 C18.65671488 62.35645519 25.10749064 70.80370963 32.66796875 79.44140625 C34.45792431 81.53581174 35.90303284 83.46326345 37 86 C36.125 88 36.125 88 35 90 C35.30378052 92.68993053 35.30378052 92.68993053 36 95 C32.25 96.125 32.25 96.125 30 95 C29.34 95.99 28.68 96.98 28 98 C23.83066932 96.36240747 21.0206453 93.3160413 17.9375 90.1875 C17.14375977 89.40536133 17.14375977 89.40536133 16.33398438 88.60742188 C9 81.23662955 9 81.23662955 9 78 C8.08154297 77.67322266 8.08154297 77.67322266 7.14453125 77.33984375 C4.23143474 75.51982171 3.79260197 73.77540262 2.6875 70.5625 C2.34074219 69.59441406 1.99398437 68.62632813 1.63671875 67.62890625 C1 65 1 65 2 62 C2.66 62 3.32 62 4 62 C5.25664978 64.90600261 6 66.79604584 6 70 C6.66 70 7.32 70 8 70 C8.24492188 70.56847656 8.48984375 71.13695313 8.7421875 71.72265625 C12.08955738 78.63670646 16.49484165 82.07164224 23 86 C21.05859921 82.96899176 21.05859921 82.96899176 18.72265625 80.28515625 C13.37140115 73.86324875 10.19638849 68.93082528 8.63671875 60.53515625 C7.73366629 56.939567 5.88002154 55.23201669 3 53 C2 52 1 51 0 50 C1.485 49.505 1.485 49.505 3 49 C4.32 50.32 5.64 51.64 7 53 C7.495 50.03 7.495 50.03 8 47 C8.33 47 8.66 47 9 47 C9.2475 48.11375 9.495 49.2275 9.75 50.375 C10.61005339 54.04615198 10.61005339 54.04615198 13.125 55.4375 C14.053125 55.7159375 14.053125 55.7159375 15 56 C13.68 56 12.36 56 11 56 C11.47811177 57.77111844 11.9575278 59.54188483 12.4375 61.3125 C12.70433594 62.29863281 12.97117187 63.28476562 13.24609375 64.30078125 C13.78079425 66.21517526 14.37144538 68.11433615 15 70 C15.99 70 16.98 70 18 70 C17.7834375 68.81857422 17.7834375 68.81857422 17.5625 67.61328125 C16.20755718 59.66240151 15.76262281 52.057637 16 44 C14.37512529 43.83211627 12.75009558 43.66573213 11.125 43.5 C10.22007813 43.4071875 9.31515625 43.314375 8.3828125 43.21875 C6.06686789 42.96952705 6.06686789 42.96952705 4 43 C3.67 43.99 3.34 44.98 3 46 C3 45.01 3 44.02 3 43 C2.01 42.67 1.02 42.34 0 42 C-3.04054876 35.91890247 -2.12945959 27.57680111 -2.0625 20.9375 C-2.05798828 20.07189453 -2.05347656 19.20628906 -2.04882812 18.31445312 C-2.03719913 16.20960461 -2.01927073 14.10479242 -2 12 C-1.67 12 -1.34 12 -1 12 C-0.67 8.04 -0.34 4.08 0 0 Z " fill="#9E8389" transform="translate(52,0)"/>
<path d="M0 0 C1.32 0 2.64 0 4 0 C4 4.29 4 8.58 4 13 C3.67 13 3.34 13 3 13 C1.68180003 28.04740549 1.68180003 28.04740549 5.30078125 41.75 C7.1741796 43.42457472 7.1741796 43.42457472 10.875 42.5625 C11.57496094 42.44390625 12.27492188 42.3253125 12.99609375 42.203125 C15.78416836 41.92051315 17.59844656 42.61728741 20 44 C21.44785794 46.89571587 21.01688588 49.40124287 20.9375 52.625 C20.88027045 58.1991585 21.46583587 62.68156436 23 68 C22.67 68.66 22.34 69.32 22 70 C21.01 70 20.02 70 19 70 C16.40827931 64.79341826 14.71109385 60.92257611 15 55 C14.34 54.34 13.68 53.68 13 53 C12.01 53 11.02 53 10 53 C7.8125 51.5 7.8125 51.5 6 50 C5.505 50.495 5.505 50.495 5 51 C6.093125 51.66 7.18625 52.32 8.3125 53 C12.49976152 55.99693113 13.78352479 59.09751342 15 64 C15.20625 65.258125 15.4125 66.51625 15.625 67.8125 C16.80173483 73.09730018 20.60636168 76.72140014 24.1015625 80.6796875 C26 83 26 83 26 85 C27.485 85.495 27.485 85.495 29 86 C28.01 86.495 28.01 86.495 27 87 C14.9368874 78.99258905 14.9368874 78.99258905 12 72 C12 71.34 12 70.68 12 70 C11.34 70 10.68 70 10 70 C9.01 67.03 9.01 67.03 8 64 C7.34 64 6.68 64 6 64 C6 63.34 6 62.68 6 62 C5.34 62 4.68 62 4 62 C-1.99281417 50.50587449 -1.62281329 39.70627293 -1.375 27.0625 C-1.35845487 25.10092894 -1.34411673 23.13933798 -1.33203125 21.17773438 C-1.18872874 5.91780175 -1.18872874 5.91780175 0 0 Z " fill="#F2E1DA" transform="translate(48,0)"/>
<path d="M0 0 C0.66 0.33 1.32 0.66 2 1 C2.268125 1.969375 2.53625 2.93875 2.8125 3.9375 C3.69360946 7.20646204 3.69360946 7.20646204 6.625 8.375 C7.40875 8.58125 8.1925 8.7875 9 9 C9 10.32 9 11.64 9 13 C9.5775 13.20625 10.155 13.4125 10.75 13.625 C13.92408567 15.56471902 15.27179767 17.73561782 17 21 C16.83329485 24.58416072 16.01930479 25.97104282 14 29 C10.44219804 28.39009109 7.3171411 27.4216319 4 26 C4 25.34 4 24.68 4 24 C3.030625 23.71125 2.06125 23.4225 1.0625 23.125 C-2 22 -2 22 -3 20 C-3.26109139 17.00615207 -3.23139941 14.00399479 -3.25 11 C-3.270625 10.16726563 -3.29125 9.33453125 -3.3125 8.4765625 C-3.31765625 7.67992187 -3.3228125 6.88328125 -3.328125 6.0625 C-3.3374707 5.33160156 -3.34681641 4.60070312 -3.35644531 3.84765625 C-3.23881836 3.23792969 -3.12119141 2.62820312 -3 2 C-2.01 1.34 -1.02 0.68 0 0 Z " fill="#FCF6EC" transform="translate(74,2)"/>
<path d="M0 0 C0 0.66 0 1.32 0 2 C0.66 2 1.32 2 2 2 C2.54975728 17.63754045 2.54975728 17.63754045 -1 25 C-1.47942563 26.27073566 -1.95859772 27.54156701 -2.4375 28.8125 C-3.98098709 31.96121366 -5.02164144 33.25406567 -8 35 C-10.86227755 30.1094153 -10.32974504 25.20936078 -10.3125 19.6875 C-10.32861328 18.66720703 -10.34472656 17.64691406 -10.36132812 16.59570312 C-10.36518892 10.62305486 -9.94053776 6.24431673 -7 1 C-4.08340041 -1.1874497 -3.5379398 -1.17931327 0 0 Z " fill="#FCF7ED" transform="translate(62,7)"/>
<path d="M0 0 C0.66 0 1.32 0 2 0 C2.27263672 0.99580078 2.27263672 0.99580078 2.55078125 2.01171875 C4.47070452 8.86482408 4.47070452 8.86482408 8 15 C8.66 15.33 9.32 15.66 10 16 C10 16.66 10 17.32 10 18 C12.97 18.66 15.94 19.32 19 20 C19.19916016 21.04800781 19.19916016 21.04800781 19.40234375 22.1171875 C19.57894531 23.02726562 19.75554687 23.93734375 19.9375 24.875 C20.11152344 25.77992187 20.28554687 26.68484375 20.46484375 27.6171875 C21.28986319 31.2906317 21.73193569 31.82129046 25 34 C23.515 34.495 23.515 34.495 22 35 C22.59738947 36.73151972 23.20323967 38.46012147 23.8125 40.1875 C24.14894531 41.15042969 24.48539063 42.11335938 24.83203125 43.10546875 C25.97962401 45.94950298 27.35307674 48.41871912 29 51 C25.2045063 49.54949285 24.08025596 47.9150265 22.4375 44.25 C20.02037634 38.62739851 18.71925137 32.9662979 17.578125 26.96875 C17.05866317 23.9608898 17.05866317 23.9608898 16 21 C13.14215347 20.76184612 10.80112571 20.57152953 8 21 C4.68365065 23.97621096 3.50219883 26.60576023 3 31 C0.36 30.34 -2.28 29.68 -5 29 C-4.60583285 24.11232735 -4.01659965 19.7306677 -2.5 15.0625 C-0.8938683 10.07173956 -0.32193324 5.21753873 0 0 Z " fill="#AA817E" transform="translate(67,12)"/>
<path d="M0 0 C3.22899426 -0.0875127 6.45768116 -0.14056146 9.6875 -0.1875 C11.05551758 -0.22520508 11.05551758 -0.22520508 12.45117188 -0.26367188 C21.02630083 -0.35721874 21.02630083 -0.35721874 25 3 C26.984375 5.12109375 26.984375 5.12109375 28.75 7.4375 C29.63945313 8.58025391 29.63945313 8.58025391 30.546875 9.74609375 C31.9343914 11.89823613 32.56698439 13.49876511 33 16 C32.01 15.67 31.02 15.34 30 15 C30 13.68 30 12.36 30 11 C29.236875 10.79375 28.47375 10.5875 27.6875 10.375 C24.17770897 8.57929296 23.47400219 6.56863688 22 3 C21.01 3.33 20.02 3.66 19 4 C18.67 9.28 18.34 14.56 18 20 C17.67 20 17.34 20 17 20 C16.67 17.36 16.34 14.72 16 12 C15.34 12 14.68 12 14 12 C14.03480469 12.60585937 14.06960937 13.21171875 14.10546875 13.8359375 C14.31824384 20.42183303 13.2121768 25.81117204 11 32 C10.34 32 9.68 32 9 32 C8.34 33.32 7.68 34.64 7 36 C7.43563786 32.95053499 7.93429627 30.17863201 9 27.28125 C10.13629658 23.55277686 10.44523147 19.99002338 10.625 16.125 C10.66367187 15.43664063 10.70234375 14.74828125 10.7421875 14.0390625 C10.83548166 12.35976754 10.91878238 10.67992233 11 9 C10.34 9 9.68 9 9 9 C8.34 7.68 7.68 6.36 7 5 C5.02 5.66 3.04 6.32 1 7 C0 6 0 6 -0.0625 2.9375 C-0.041875 1.968125 -0.02125 0.99875 0 0 Z " fill="#D3ABA7" transform="translate(53,0)"/>
<path d="M0 0 C0.99 0 1.98 0 3 0 C4.25664978 2.90600261 5 4.79604584 5 8 C5.66 8 6.32 8 7 8 C7.36738281 8.85271484 7.36738281 8.85271484 7.7421875 9.72265625 C11.08955738 16.63670646 15.49484165 20.07164224 22 24 C21.68289062 23.39671875 21.36578125 22.7934375 21.0390625 22.171875 C19.90057436 19.79217799 19.43215157 17.5929094 19 15 C22.51435055 16.44572845 24.19921494 18.21048126 26.4375 21.25 C29.1958945 24.92984094 32.0297601 28.48971648 35 32 C33.125 33.0625 33.125 33.0625 31 34 C30.34 33.67 29.68 33.34 29 33 C28.34 33.99 27.68 34.98 27 36 C22.83066932 34.36240747 20.0206453 31.3160413 16.9375 28.1875 C16.40833984 27.66607422 15.87917969 27.14464844 15.33398438 26.60742188 C8 19.23662955 8 19.23662955 8 16 C7.07960938 15.67322266 7.07960938 15.67322266 6.140625 15.33984375 C3.22974064 13.51788511 2.82756964 11.7823807 1.75 8.5625 C1.41484375 7.59441406 1.0796875 6.62632813 0.734375 5.62890625 C0 3 0 3 0 0 Z " fill="#A48284" transform="translate(53,62)"/>
<path d="M0 0 C0.66 0.33 1.32 0.66 2 1 C2 1.66 2 2.32 2 3 C1.01 3 0.02 3 -1 3 C-1.02715383 4.74991334 -1.04646551 6.49994945 -1.0625 8.25 C-1.07410156 9.22453125 -1.08570312 10.1990625 -1.09765625 11.203125 C-1.0111252 13.68137426 -0.84745178 15.67616995 0 18 C0.66 18.33 1.32 18.66 2 19 C2 19.99 2 20.98 2 22 C3.32 22 4.64 22 6 22 C6 22.66 6 23.32 6 24 C7.98 23.67 9.96 23.34 12 23 C11.855625 22.278125 11.71125 21.55625 11.5625 20.8125 C11.04166667 18.20833333 10.52083333 15.60416667 10 13 C15.39058824 18.20470588 15.39058824 18.20470588 17 21 C16.7434556 24.50610679 15.9814066 26.0278901 14 29 C10.44219804 28.39009109 7.3171411 27.4216319 4 26 C4 25.34 4 24.68 4 24 C3.030625 23.71125 2.06125 23.4225 1.0625 23.125 C-2 22 -2 22 -3 20 C-3.26109139 17.00615207 -3.23139941 14.00399479 -3.25 11 C-3.270625 10.16726563 -3.29125 9.33453125 -3.3125 8.4765625 C-3.31765625 7.67992187 -3.3228125 6.88328125 -3.328125 6.0625 C-3.3374707 5.33160156 -3.34681641 4.60070312 -3.35644531 3.84765625 C-3.23881836 3.23792969 -3.12119141 2.62820312 -3 2 C-2.01 1.34 -1.02 0.68 0 0 Z " fill="#F2D2CE" transform="translate(74,2)"/>
<path d="M0 0 C0.99 0 1.98 0 3 0 C4.25664978 2.90600261 5 4.79604584 5 8 C5.66 8 6.32 8 7 8 C7.36738281 8.85271484 7.36738281 8.85271484 7.7421875 9.72265625 C11.08955738 16.63670646 15.49484165 20.07164224 22 24 C21.01 24.66 20.02 25.32 19 26 C17.68 25.01 16.36 24.02 15 23 C16.62192821 24.64886059 18.24763772 26.2940024 19.875 27.9375 C21.23238281 29.31228516 21.23238281 29.31228516 22.6171875 30.71484375 C24.77682255 33.01187627 24.77682255 33.01187627 27 34 C27.33 33.34 27.66 32.68 28 32 C27.67 33.32 27.34 34.64 27 36 C22.83066932 34.36240747 20.0206453 31.3160413 16.9375 28.1875 C16.40833984 27.66607422 15.87917969 27.14464844 15.33398438 26.60742188 C8 19.23662955 8 19.23662955 8 16 C7.07960938 15.67322266 7.07960938 15.67322266 6.140625 15.33984375 C3.22974064 13.51788511 2.82756964 11.7823807 1.75 8.5625 C1.41484375 7.59441406 1.0796875 6.62632813 0.734375 5.62890625 C0 3 0 3 0 0 Z " fill="#81706F" transform="translate(53,62)"/>
<path d="M0 0 C1.32 0.33 2.64 0.66 4 1 C4.33 2.32 4.66 3.64 5 5 C5.66 5 6.32 5 7 5 C7.144375 6.093125 7.28875 7.18625 7.4375 8.3125 C8.7532686 13.84268531 12.41720246 17.50717881 16.1015625 21.6796875 C18 24 18 24 18 26 C18.99 26.33 19.98 26.66 21 27 C20.34 27.33 19.68 27.66 19 28 C6.9368874 19.99258905 6.9368874 19.99258905 4 13 C4 12.34 4 11.68 4 11 C3.34 11 2.68 11 2 11 C0.57741188 7.17679443 -0.24042276 4.08718695 0 0 Z " fill="#F0D3D1" transform="translate(56,59)"/>
<path d="M0 0 C0.33 0 0.66 0 1 0 C1.33 1.98 1.66 3.96 2 6 C2.7425 5.690625 3.485 5.38125 4.25 5.0625 C6.50692176 4.1905075 8.6450153 3.52332993 11 3 C8.47211993 5.79872437 6.79588866 7.45773019 3 8 C0.75471659 14.2832437 0.73329175 20.1215204 0.8125 26.75 C0.81314453 27.79027344 0.81378906 28.83054687 0.81445312 29.90234375 C0.78745112 35.54256259 0.78745112 35.54256259 2 41 C3.99983534 40.20882096 3.99983534 40.20882096 6 39 C6.33 38.01 6.66 37.02 7 36 C7.66 36 8.32 36 9 36 C9.66 34.68 10.32 33.36 11 32 C10.46968862 36.5076467 8.74778884 39.41954788 6 43 C5.34 43 4.68 43 4 43 C3.67 43.99 3.34 44.98 3 46 C3 45.01 3 44.02 3 43 C2.01 42.67 1.02 42.34 0 42 C-3.04054876 35.91890247 -2.12945959 27.57680111 -2.0625 20.9375 C-2.05798828 20.07189453 -2.05347656 19.20628906 -2.04882812 18.31445312 C-2.03719913 16.20960461 -2.01927073 14.10479242 -2 12 C-1.67 12 -1.34 12 -1 12 C-0.67 8.04 -0.34 4.08 0 0 Z " fill="#A19188" transform="translate(52,0)"/>
<path d="M0 0 C0.33 0 0.66 0 1 0 C1 16.5 1 33 1 50 C1.66 50 2.32 50 3 50 C3.69965443 51.26418246 4.38434763 52.53665402 5.0625 53.8125 C5.63677734 54.87404297 5.63677734 54.87404297 6.22265625 55.95703125 C7 58 7 58 6 61 C5.01 61.495 5.01 61.495 4 62 C-1.99281417 50.50587449 -1.62281329 39.70627293 -1.375 27.0625 C-1.35845487 25.10092894 -1.34411673 23.13933798 -1.33203125 21.17773438 C-1.18872874 5.91780175 -1.18872874 5.91780175 0 0 Z " fill="#A89F95" transform="translate(48,0)"/>
<path d="M0 0 C0 0.66 0 1.32 0 2 C0.66 2 1.32 2 2 2 C2.54975728 17.63754045 2.54975728 17.63754045 -1 25 C-1.47942563 26.27073566 -1.95859772 27.54156701 -2.4375 28.8125 C-3.98098709 31.96121366 -5.02164144 33.25406567 -8 35 C-9.85776765 31.86501708 -10.20140476 29.62528568 -10 26 C-9.01 26.99 -8.02 27.98 -7 29 C-4.75700418 28.16481866 -4.75700418 28.16481866 -4.1484375 25.6640625 C-1.04824165 14.26631765 -1.04824165 14.26631765 -3 3 C-4.32 3 -5.64 3 -7 3 C-7 2.34 -7 1.68 -7 1 C-3.375 -1.125 -3.375 -1.125 0 0 Z " fill="#F9E4DA" transform="translate(62,7)"/>
<path d="M0 0 C0.67155349 2.26949102 1.3373963 4.5403961 2 6.8125 C2.37125 8.07707031 2.7425 9.34164062 3.125 10.64453125 C4 14 4 14 4 17 C1.67578125 16.80078125 1.67578125 16.80078125 -1 16 C-2.58203125 13.85546875 -2.58203125 13.85546875 -3.8125 11.1875 C-4.23144531 10.31480469 -4.65039062 9.44210938 -5.08203125 8.54296875 C-6 6 -6 6 -6 2 C-3 0 -3 0 0 0 Z " fill="#DEBDBD" transform="translate(95,45)"/>
<path d="M0 0 C0.33 0 0.66 0 1 0 C1.38854209 2.28940956 1.7604628 4.58164574 2.125 6.875 C2.33382812 8.15117188 2.54265625 9.42734375 2.7578125 10.7421875 C2.83773437 11.81726563 2.91765625 12.89234375 3 14 C2.34 14.66 1.68 15.32 1 16 C-1.125 15.625 -1.125 15.625 -3 15 C-5.41835447 6.85762667 -5.41835447 6.85762667 -3.75 3.4375 C-2 2 -2 2 0 2 C0 1.34 0 0.68 0 0 Z " fill="#F5E4DF" transform="translate(91,29)"/>
<path d="M0 0 C0.99 0.33 1.98 0.66 3 1 C3.144375 1.639375 3.28875 2.27875 3.4375 2.9375 C3.623125 3.618125 3.80875 4.29875 4 5 C4.59425781 5.27714844 5.18851562 5.55429688 5.80078125 5.83984375 C8.59006923 7.31127986 9.87768214 9.10457211 11.75 11.625 C12.36359375 12.44226563 12.9771875 13.25953125 13.609375 14.1015625 C14.29773438 15.04128906 14.29773438 15.04128906 15 16 C14.67 16.66 14.34 17.32 14 18 C7.98426861 14.6065105 2.88806523 9.70859459 -1 4 C-0.75390625 1.6875 -0.75390625 1.6875 0 0 Z " fill="#E9C7CE" transform="translate(72,69)"/>
<path d="M0 0 C5.445 1.485 5.445 1.485 11 3 C11.48828125 5.5390625 11.9765625 8.078125 12.46484375 10.6171875 C13.28986319 14.2906317 13.73193569 14.82129046 17 17 C16.01 17.33 15.02 17.66 14 18 C14.59738947 19.73151972 15.20323967 21.46012147 15.8125 23.1875 C16.14894531 24.15042969 16.48539063 25.11335938 16.83203125 26.10546875 C17.97962401 28.94950298 19.35307674 31.41871912 21 34 C17.2045063 32.54949285 16.08025596 30.9150265 14.4375 27.25 C12.02037634 21.62739851 10.71925137 15.9662979 9.578125 9.96875 C9.05866317 6.9608898 9.05866317 6.9608898 8 4 C5.03 3.67 2.06 3.34 -1 3 C-0.67 2.01 -0.34 1.02 0 0 Z " fill="#917C7C" transform="translate(75,29)"/>
<path d="M0 0 C0.33 0.99 0.66 1.98 1 3 C0.01 4.485 0.01 4.485 -1 6 C0.134375 6.144375 1.26875 6.28875 2.4375 6.4375 C6 7 6 7 7 8 C7.15977229 10.37291441 7.2773446 12.74871857 7.375 15.125 C7.65905024 20.72164654 8.39860431 25.02341694 11 30 C11 30.99 11 31.98 11 33 C10.34 33 9.68 33 9 33 C3.87853096 25.31779644 4.6118697 17.88387128 5 9 C3.081875 8.814375 3.081875 8.814375 1.125 8.625 C-2.75 8.25 -2.75 8.25 -5 6 C-3.35 4.02 -1.7 2.04 0 0 Z " fill="#8D6963" transform="translate(63,35)"/>
<path d="M0 0 C0.33 0 0.66 0 1 0 C1.2475 1.11375 1.495 2.2275 1.75 3.375 C2.61005339 7.04615198 2.61005339 7.04615198 5.125 8.4375 C5.74375 8.623125 6.3625 8.80875 7 9 C5.68 9 4.36 9 3 9 C3.2165625 9.98742188 3.433125 10.97484375 3.65625 11.9921875 C3.9346875 13.27351563 4.213125 14.55484375 4.5 15.875 C4.7784375 17.15117188 5.056875 18.42734375 5.34375 19.7421875 C6 23 6 23 6 25 C5.34 25 4.68 25 4 25 C3.76925781 24.04738281 3.53851563 23.09476563 3.30078125 22.11328125 C2.97464844 20.85902344 2.64851563 19.60476562 2.3125 18.3125 C1.99925781 17.07113281 1.68601562 15.82976563 1.36328125 14.55078125 C-0.14587627 10.62005292 -1.85811731 8.74417602 -5 6 C-6 5 -7 4 -8 3 C-7.01 2.67 -6.02 2.34 -5 2 C-3.68 3.32 -2.36 4.64 -1 6 C-0.67 4.02 -0.34 2.04 0 0 Z " fill="#876867" transform="translate(60,47)"/>
<path d="M0 0 C1.8125 0.1875 1.8125 0.1875 4 1 C6.68566098 4.48141238 7.61292009 7.645351 8 12 C7.67 12.66 7.34 13.32 7 14 C6.01 14 5.02 14 4 14 C-0.59225513 4.58997722 -0.59225513 4.58997722 0 0 Z " fill="#F5D4D6" transform="translate(63,56)"/>
<path d="M0 0 C2.88575819 0.39803561 3.82189513 0.79009069 5.75 3.0625 C6.36875 4.0215625 6.36875 4.0215625 7 5 C6.01 5.495 6.01 5.495 5 6 C4.855625 6.598125 4.71125 7.19625 4.5625 7.8125 C4 10 4 10 2.5 11.9375 C0.78284932 14.29858218 0.39765184 16.13690678 0 19 C-0.66 18.67 -1.32 18.34 -2 18 C-1.67 15.36 -1.34 12.72 -1 10 C-0.01 10 0.98 10 2 10 C2 9.34 2 8.68 2 8 C1.34 8 0.68 8 0 8 C0 6.68 0 5.36 0 4 C-0.66 4 -1.32 4 -2 4 C-2 3.34 -2 2.68 -2 2 C-1.34 2 -0.68 2 0 2 C0 1.34 0 0.68 0 0 Z " fill="#A98581" transform="translate(70,24)"/>
<path d="M0 0 C3.37578028 2.75941591 6.50000821 5.35715341 9.1875 8.8125 C11.12812832 11.15463763 12.02914221 11.68169381 15 12 C15.33 11.34 15.66 10.68 16 10 C16.66 11.65 17.32 13.3 18 15 C17.34 15.66 16.68 16.32 16 17 C16.3185177 19.10820797 16.3185177 19.10820797 17 21 C16.566875 20.54625 16.13375 20.0925 15.6875 19.625 C13.89201658 17.79975666 13.89201658 17.79975666 11 16 C10.07007041 14.60510561 9.14416336 13.2071497 8.25 11.7890625 C6.21961709 8.88307696 3.79117808 6.33665523 1.390625 3.734375 C0 2 0 2 0 0 Z " fill="#826267" transform="translate(71,73)"/>
<path d="M0 0 C1.32 0 2.64 0 4 0 C5.32229189 2.64458379 5.09677194 4.67761301 5.0625 7.625 C5.05347656 8.62789062 5.04445313 9.63078125 5.03515625 10.6640625 C5.02355469 11.43492188 5.01195313 12.20578125 5 13 C2 13 2 13 0.29296875 11.82421875 C-1.49637584 9.29967517 -1.11866108 7.83062754 -0.6875 4.8125 C-0.56761719 3.91144531 -0.44773438 3.01039062 -0.32421875 2.08203125 C-0.21722656 1.39496094 -0.11023437 0.70789062 0 0 Z " fill="#BB9799" transform="translate(64,44)"/>
<path d="M0 0 C3.42404231 0.10770994 4.7325582 0.73967101 7.203125 3.14453125 C7.87859375 4.02496094 8.5540625 4.90539062 9.25 5.8125 C10.27867188 7.12154297 10.27867188 7.12154297 11.328125 8.45703125 C12.83926382 10.75551576 13.57479687 12.31746848 14 15 C13.01 14.67 12.02 14.34 11 14 C11 12.68 11 11.36 11 10 C10.236875 9.79375 9.47375 9.5875 8.6875 9.375 C5.17770897 7.57929296 4.47400219 5.56863688 3 2 C2.01 2.33 1.02 2.66 0 3 C-0.33 6.3 -0.66 9.6 -1 13 C-1.33 13 -1.66 13 -2 13 C-2.05391993 11.20866022 -2.09275571 9.41686101 -2.125 7.625 C-2.14820312 6.62726562 -2.17140625 5.62953125 -2.1953125 4.6015625 C-2 2 -2 2 0 0 Z " fill="#DFC5C0" transform="translate(72,1)"/>
<path d="M0 0 C1.32 0.33 2.64 0.66 4 1 C4.33 2.32 4.66 3.64 5 5 C5.66 5 6.32 5 7 5 C7 7.64 7 10.28 7 13 C6.01 13 5.02 13 4 13 C4 12.34 4 11.68 4 11 C3.34 11 2.68 11 2 11 C0.57741188 7.17679443 -0.24042276 4.08718695 0 0 Z " fill="#E7D3D0" transform="translate(56,59)"/>
<path d="M0 0 C2.475 0.99 2.475 0.99 5 2 C5 2.66 5 3.32 5 4 C5.721875 4.12375 6.44375 4.2475 7.1875 4.375 C9.95721894 4.9904931 12.3970354 5.88444374 15 7 C15.433125 6.071875 15.433125 6.071875 15.875 5.125 C17 3 17 3 19 1 C18.67506385 4.5742977 18.36129314 6.55712453 16.0625 9.375 C14 11 14 11 12 11 C12 10.34 12 9.68 12 9 C9.36 8.01 6.72 7.02 4 6 C4 5.34 4 4.68 4 4 C3.01 3.67 2.02 3.34 1 3 C0.67 2.01 0.34 1.02 0 0 Z " fill="#CDACA9" transform="translate(73,24)"/>
<path d="M0 0 C0.82555811 22.80127986 0.82555811 22.80127986 -4 32 C-5.26508458 28.1288412 -4.31538418 26.34253057 -2.76953125 22.63671875 C-1.11986249 16.98430041 -1.22130824 10.86085262 -1 5 C-1.66 5 -2.32 5 -3 5 C-3.66 3.68 -4.32 2.36 -5 1 C-3 0 -3 0 0 0 Z " fill="#EAC4BD" transform="translate(65,4)"/>
<path d="M0 0 C3.96 0 7.92 0 12 0 C8.89640609 3.10359391 6.83505543 5.13163966 3 7 C2.01 6.67 1.02 6.34 0 6 C0 4.02 0 2.04 0 0 Z " fill="#F2E8D9" transform="translate(53,0)"/>
<path d="M0 0 C7.04565538 4.28865979 7.04565538 4.28865979 8 8 C7.625 11.75 7.625 11.75 7 15 C6.67 15 6.34 15 6 15 C5.67 12.69 5.34 10.38 5 8 C4.34 8 3.68 8 3 8 C1.36323743 9.9600281 1.36323743 9.9600281 0 12 C-1.125 7.25 -1.125 7.25 0 5 C0.0396713 3.33380554 0.04384447 1.66608987 0 0 Z " fill="#E4CAC6" transform="translate(54,52)"/>
<path d="M0 0 C0.33 0 0.66 0 1 0 C1.33 4.62 1.66 9.24 2 14 C2.66 14 3.32 14 4 14 C4.69965443 15.26418246 5.38434763 16.53665402 6.0625 17.8125 C6.63677734 18.87404297 6.63677734 18.87404297 7.22265625 19.95703125 C8 22 8 22 7 25 C6.34 25.33 5.68 25.66 5 26 C0.91445585 17.08475901 -0.72194844 9.80245544 0 0 Z " fill="#7E7470" transform="translate(47,36)"/>
<path d="M0 0 C0.66 0 1.32 0 2 0 C2.66 3.3 3.32 6.6 4 10 C2.35 9.67 0.7 9.34 -1 9 C-3 6 -3 6 -2.75 3.9375 C-2 2 -2 2 0 0 Z " fill="#F0DCDB" transform="translate(95,52)"/>
<path d="M0 0 C1 1 1 1 1.09765625 3.50390625 C1.08605469 4.51324219 1.07445313 5.52257813 1.0625 6.5625 C1.05347656 7.57441406 1.04445313 8.58632813 1.03515625 9.62890625 C1.02355469 10.41136719 1.01195313 11.19382812 1 12 C0.01 11.67 -0.98 11.34 -2 11 C-2.33 8.03 -2.66 5.06 -3 2 C-4.32 2.33 -5.64 2.66 -7 3 C-7 2.34 -7 1.68 -7 1 C-4.51588385 -0.24205807 -2.74800896 -0.14092354 0 0 Z " fill="#C8A9A6" transform="translate(63,42)"/>
<path d="M0 0 C5.83713101 4.44129533 7.74796306 7.69645118 9 15 C5.13859288 11.99668335 2.05110844 9.55801875 0 5 C-0.1875 2.1875 -0.1875 2.1875 0 0 Z " fill="#9D7A7A" transform="translate(65,67)"/>
<path d="M0 0 C3.35740829 2.47387979 5.2039074 4.29555902 7 8 C8.62746694 9.70496537 10.28891311 11.37897032 12 13 C10.02 13.99 10.02 13.99 8 15 C7.03697644 13.44038638 6.07978996 11.87716775 5.125 10.3125 C4.59132813 9.44238281 4.05765625 8.57226562 3.5078125 7.67578125 C2.09359186 5.16608918 1.00105211 2.69700931 0 0 Z " fill="#E2C3C8" transform="translate(76,81)"/>
<path d="M0 0 C0.66 0 1.32 0 2 0 C0.80805531 5.52628901 -0.5991297 8.17819158 -5 12 C-6.85776765 8.86501708 -7.20140476 6.62528568 -7 3 C-6.01 3.99 -5.02 4.98 -4 6 C-1.2160817 4.60804085 -1.02101003 2.84424221 0 0 Z " fill="#F4DCD3" transform="translate(59,30)"/>
<path d="M0 0 C0 3.3 0 6.6 0 10 C-1.98 8.35 -3.96 6.7 -6 5 C-3.74193548 0 -3.74193548 0 0 0 Z " fill="#EACDC9" transform="translate(60,44)"/>
<path d="M0 0 C3.26349249 2.84239669 4.55623039 4.67324631 5 9 C5 9.99 5 10.98 5 12 C4.34 12 3.68 12 3 12 C2.67 12.66 2.34 13.32 2 14 C0.68 13.01 -0.64 12.02 -2 11 C-0.68 10.34 0.64 9.68 2 9 C1.67 8.2575 1.34 7.515 1 6.75 C0 4 0 4 0 0 Z " fill="#F7E4DE" transform="translate(84,15)"/>
<path d="M0 0 C0.99 0 1.98 0 3 0 C3 4.29 3 8.58 3 13 C2.01 12.67 1.02 12.34 0 12 C0 8.04 0 4.08 0 0 Z " fill="#E3D9C9" transform="translate(49,0)"/>
<path d="M0 0 C0.99 0 1.98 0 3 0 C4.25664978 2.90600261 5 4.79604584 5 8 C5.66 8.33 6.32 8.66 7 9 C6.34 10.32 5.68 11.64 5 13 C1.68441485 8.61487125 0.45003347 5.62541841 0 0 Z " fill="#A19791" transform="translate(53,62)"/>
<path d="M0 0 C3 0.25 3 0.25 5 2.25 C1 3.58333333 -3 4.91666667 -7 6.25 C-4.24855491 0.35404624 -4.24855491 0.35404624 0 0 Z " fill="#F1E9E7" transform="translate(78,31.75)"/>
<path d="M0 0 C0.556875 0.78375 1.11375 1.5675 1.6875 2.375 C4.07668565 5.08704858 5.60073413 5.96133543 9 7 C8.67 7.99 8.34 8.98 8 10 C8 9.34 8 8.68 8 8 C7.38125 8.165 6.7625 8.33 6.125 8.5 C3.65508983 9.08115533 1.5516522 9 -1 9 C-0.835 8.443125 -0.67 7.88625 -0.5 7.3125 C0.04041351 4.81308751 0.07082065 2.54954338 0 0 Z " fill="#F5EEEE" transform="translate(90,57)"/>
<path d="M0 0 C0.66 0 1.32 0 2 0 C2.99 3.96 3.98 7.92 5 12 C4.34 12 3.68 12 3 12 C2.67 12.66 2.34 13.32 2 14 C1.67 12.02 1.34 10.04 1 8 C0.67 8 0.34 8 0 8 C0 5.36 0 2.72 0 0 Z " fill="#B58F88" transform="translate(67,12)"/>
<path d="M0 0 C0.66 0.33 1.32 0.66 2 1 C2 1.66 2 2.32 2 3 C1.01 3 0.02 3 -1 3 C-1 7.95 -1 12.9 -1 18 C-3.3797234 14.43041489 -3.29830341 12.67281698 -3.3125 8.4375 C-3.32925781 7.28121094 -3.34601563 6.12492188 -3.36328125 4.93359375 C-3.24339844 3.96550781 -3.12351562 2.99742187 -3 2 C-2.01 1.34 -1.02 0.68 0 0 Z " fill="#F4DED6" transform="translate(74,2)"/>
<path d="M0 0 C0.68835938 0.59748047 0.68835938 0.59748047 1.390625 1.20703125 C5.31674827 4.60015709 5.31674827 4.60015709 9.4375 7.75 C9.953125 8.1625 10.46875 8.575 11 9 C11 9.66 11 10.32 11 11 C11.66 11 12.32 11 13 11 C13 11.66 13 12.32 13 13 C9.36938333 11.46781315 7.0136227 9.2816856 4.25 6.5 C3.45078125 5.7059375 2.6515625 4.911875 1.828125 4.09375 C0 2 0 2 0 0 Z " fill="#DCC6C9" transform="translate(67,83)"/>
<path d="M0 0 C5.445 1.485 5.445 1.485 11 3 C11 4.98 11 6.96 11 9 C9.5 7.625 9.5 7.625 8 6 C8 5.34 8 4.68 8 4 C5.03 3.67 2.06 3.34 -1 3 C-0.67 2.01 -0.34 1.02 0 0 Z " fill="#816665" transform="translate(75,29)"/>
<path d="M0 0 C1.9453125 -0.29296875 1.9453125 -0.29296875 4.125 -0.1875 C5.40375 -0.125625 6.6825 -0.06375 8 0 C6.515 1.98 6.515 1.98 5 4 C2.69 3.67 0.38 3.34 -2 3 C-1.34 2.01 -0.68 1.02 0 0 Z " fill="#B68693" transform="translate(65,0)"/>
<path d="M0 0 C0.33 0 0.66 0 1 0 C1 2.97 1 5.94 1 9 C-2.93673644 7.68775452 -5.22719294 6.08089673 -8 3 C-7.01 2.67 -6.02 2.34 -5 2 C-3.68 3.32 -2.36 4.64 -1 6 C-0.67 4.02 -0.34 2.04 0 0 Z " fill="#886966" transform="translate(60,47)"/>
<path d="M0 0 C0.8125 1.625 0.8125 1.625 1 4 C-1.25 7.25 -1.25 7.25 -4 10 C-4.99 10 -5.98 10 -7 10 C-6.67 9.01 -6.34 8.02 -6 7 C-5.34 7 -4.68 7 -4 7 C-3.67 6.01 -3.34 5.02 -3 4 C-2.34 4 -1.68 4 -1 4 C-0.67 2.68 -0.34 1.36 0 0 Z " fill="#C8A69E" transform="translate(62,32)"/>
<path d="M0 0 C0.33 0 0.66 0 1 0 C0.67 2.31 0.34 4.62 0 7 C-1.65 7.66 -3.3 8.32 -5 9 C-4.75 6.625 -4.75 6.625 -4 4 C-1.9375 2.6875 -1.9375 2.6875 0 2 C0 1.34 0 0.68 0 0 Z " fill="#EFD0CD" transform="translate(91,29)"/>
<path d="M0 0 C0.66 0 1.32 0 2 0 C2 0.66 2 1.32 2 2 C2.99 2 3.98 2 5 2 C5.33 1.34 5.66 0.68 6 0 C5.67 1.65 5.34 3.3 5 5 C6.32 5.33 7.64 5.66 9 6 C8.01 6.66 7.02 7.32 6 8 C4.99403703 7.0479279 3.99538437 6.08812654 3 5.125 C2.443125 4.59132813 1.88625 4.05765625 1.3125 3.5078125 C0 2 0 2 0 0 Z " fill="#F5EFF0" transform="translate(77,70)"/>
<path d="M0 0 C2.7053871 4.05808065 5 8.04889399 5 13 C4.34 13 3.68 13 3 13 C-1.07877462 5.9452954 -1.07877462 5.9452954 -0.75 2 C-0.5025 1.34 -0.255 0.68 0 0 Z " fill="#836D70" transform="translate(69,55)"/>
<path d="M0 0 C0 1.65 0 3.3 0 5 C-3 6 -3 6 -6 5 C-6 4.01 -6 3.02 -6 2 C-3 0 -3 0 0 0 Z " fill="#F3D4D4" transform="translate(95,45)"/>
<path d="M0 0 C3.08914085 0.33097938 4.0026931 1.00284699 6.1875 3.3125 C7.79407709 5.69466602 8.58574686 7.20379133 9 10 C8.01 9.67 7.02 9.34 6 9 C6 7.68 6 6.36 6 5 C5.195625 4.731875 4.39125 4.46375 3.5625 4.1875 C2.716875 3.795625 1.87125 3.40375 1 3 C0.67 2.01 0.34 1.02 0 0 Z " fill="#E3D5CF" transform="translate(77,6)"/>
<path d="M0 0 C1.32 0.33 2.64 0.66 4 1 C4 3.31 4 5.62 4 8 C3.01 7.67 2.02 7.34 1 7 C0.67 4.69 0.34 2.38 0 0 Z " fill="#F7E7E0" transform="translate(56,59)"/>
<path d="M0 0 C1.66611905 -0.042721 3.33382885 -0.04063832 5 0 C6 1 6 1 6.09765625 3.72265625 C6.08605469 4.82480469 6.07445313 5.92695312 6.0625 7.0625 C6.05347656 8.16722656 6.04445313 9.27195312 6.03515625 10.41015625 C6.02355469 11.26480469 6.01195313 12.11945312 6 13 C5.67 13 5.34 13 5 13 C4.67 9.37 4.34 5.74 4 2 C2.68 2 1.36 2 0 2 C0 1.34 0 0.68 0 0 Z " fill="#795B5F" transform="translate(64,42)"/>
<path d="M0 0 C0.66 0.66 1.32 1.32 2 2 C1.0409375 3.0828125 1.0409375 3.0828125 0.0625 4.1875 C-1.98673535 6.98191184 -2.61332946 8.61663274 -3 12 C-3.66 11.67 -4.32 11.34 -5 11 C-4.67 8.36 -4.34 5.72 -4 3 C-3.01 3 -2.02 3 -1 3 C-0.67 2.01 -0.34 1.02 0 0 Z " fill="#92787A" transform="translate(73,31)"/>
<path d="M0 0 C2.5654594 2.5654594 2.54046087 4.47686668 3 8 C2.01 8.33 1.02 8.66 0 9 C-0.66 6.69 -1.32 4.38 -2 2 C-1.34 1.34 -0.68 0.68 0 0 Z " fill="#92817E" transform="translate(52,53)"/>
<path d="M0 0 C1.98 0.66 3.96 1.32 6 2 C4.68 2.33 3.36 2.66 2 3 C2 4.98 2 6.96 2 9 C0.4375 7.3125 0.4375 7.3125 -1 5 C-0.6875 2.25 -0.6875 2.25 0 0 Z " fill="#775656" transform="translate(61,53)"/>
<path d="M0 0 C0.66 0 1.32 0 2 0 C2 3.3 2 6.6 2 10 C1.01 9.67 0.02 9.34 -1 9 C-0.67 6.03 -0.34 3.06 0 0 Z " fill="#EBC9C7" transform="translate(62,44)"/>
<path d="M0 0 C0.33 0.99 0.66 1.98 1 3 C3.01508358 3.73323796 3.01508358 3.73323796 5 4 C4.67 5.32 4.34 6.64 4 8 C3.01 7.67 2.02 7.34 1 7 C0.67 4.69 0.34 2.38 0 0 Z " fill="#E9CFC5" transform="translate(71,17)"/>
<path d="M0 0 C2.64 0 5.28 0 8 0 C5.63707344 2.52588702 4.33537489 3.88820837 1 5 C1.33 4.01 1.66 3.02 2 2 C1.34 1.34 0.68 0.68 0 0 Z " fill="#E9D3CF" transform="translate(57,0)"/>
<path d="M0 0 C2.475 0.99 2.475 0.99 5 2 C4.01 3.485 4.01 3.485 3 5 C0.375 5.1875 0.375 5.1875 -2 5 C-1.34 3.35 -0.68 1.7 0 0 Z " fill="#F3EEEE" transform="translate(81,94)"/>
<path d="M0 0 C2.25 0.25 2.25 0.25 4 1 C4 1.66 4 2.32 4 3 C-0.625 5.125 -0.625 5.125 -4 4 C-2.25 1.9375 -2.25 1.9375 0 0 Z " fill="#F9F6F8" transform="translate(86,95)"/>
<path d="M0 0 C0.66 0 1.32 0 2 0 C1.34 1.98 0.68 3.96 0 6 C-0.99 6 -1.98 6 -3 6 C-2.42655063 3.13275314 -2.1385485 2.1385485 0 0 Z " fill="#F3D1D0" transform="translate(95,52)"/>
<path d="M0 0 C0.33 0.66 0.66 1.32 1 2 C1.66 2 2.32 2 3 2 C3.66 3.65 4.32 5.3 5 7 C3.68 6.67 2.36 6.34 1 6 C0.67 4.02 0.34 2.04 0 0 Z " fill="#F2DAD7" transform="translate(87,38)"/>
<path d="M0 0 C1.65 0.33 3.3 0.66 5 1 C3.1875 3 3.1875 3 1 5 C0.01 5 -0.98 5 -2 5 C-2 3 -2 3 0 1 C0 0.67 0 0.34 0 0 Z " fill="#A07E7D" transform="translate(72,27)"/>
<path d="M0 0 C2.475 0.99 2.475 0.99 5 2 C5 2.99 5 3.98 5 5 C5.99 5.33 6.98 5.66 8 6 C7.01 6.495 7.01 6.495 6 7 C5.34 6.67 4.68 6.34 4 6 C4 5.34 4 4.68 4 4 C3.01 3.67 2.02 3.34 1 3 C0.67 2.01 0.34 1.02 0 0 Z " fill="#CAA3A0" transform="translate(73,24)"/>
</svg>
