<?xml version="1.0" encoding="UTF-8"?>
<svg version="1.1" xmlns="http://www.w3.org/2000/svg" width="503" height="186">
<path d="M0 0 C165.99 0 331.98 0 503 0 C503 61.38 503 122.76 503 186 C337.01 186 171.02 186 0 186 C0 124.62 0 63.24 0 0 Z " fill="#FEFEFE" transform="translate(0,0)"/>
<path d="M0 0 C0 0.66 0 1.32 0 2 C0.99 2.2784375 0.99 2.2784375 2 2.5625 C10.99677811 6.87345618 15.64851432 14.29702863 20 23 C20.36351562 23.70640625 20.72703125 24.4128125 21.1015625 25.140625 C25.51007372 35.60568902 23.3506481 50.05010294 22 61 C22.43957031 60.50886719 22.87914062 60.01773438 23.33203125 59.51171875 C25 58 25 58 27.6875 57.8125 C28.8321875 57.9053125 28.8321875 57.9053125 30 58 C28.515 58.495 28.515 58.495 27 59 C27.04640625 59.59425781 27.0928125 60.18851562 27.140625 60.80078125 C27.44786244 67.85626966 26.03513572 73.61956871 23 80 C22.34 80.66 21.68 81.32 21 82 C21.165 81.05125 21.33 80.1025 21.5 79.125 C22.18541792 74.4236123 22.08583441 69.73996714 22 65 C21.34 65 20.68 65 20 65 C19.814375 66.60875 19.814375 66.60875 19.625 68.25 C18.92856704 73.86183661 17.95657732 79.42770496 17 85 C17.99 84.67 18.98 84.34 20 84 C19.75 85.875 19.75 85.875 19 88 C18.36578125 88.22429687 17.7315625 88.44859375 17.078125 88.6796875 C14.37919313 90.39442241 14.12192769 92.12518025 13.42871094 95.15136719 C13.28723633 95.84391602 13.14576172 96.53646484 13 97.25 C12.6748508 98.71941164 12.34667216 100.18815588 12.015625 101.65625 C11.7690918 102.76033203 11.7690918 102.76033203 11.51757812 103.88671875 C10.77880439 106.90314585 9.74423269 109.80931176 8.75 112.75 C6.21786489 121.99723787 6.21786489 121.99723787 7 140 C-15.77 140 -38.54 140 -62 140 C-61.34 137.69 -60.68 135.38 -60 133 C-59.06721513 124.46582257 -60.83694028 116.15027236 -62.5 107.8125 C-62.73847656 106.57435547 -62.97695312 105.33621094 -63.22265625 104.06054688 C-63.80606651 101.03848172 -64.39865918 98.01853897 -65 95 C-67.97 95.495 -67.97 95.495 -71 96 C-73.9018918 92.67063405 -74.84869408 89.56024499 -75.9375 85.3125 C-77.07469962 81.08299218 -78.24854991 77.17707646 -80.1875 73.25 C-82.4083847 68.62533422 -82.78792867 64.07910843 -83 59 C-81.35 58.34 -79.7 57.68 -78 57 C-75.525 58.98 -75.525 58.98 -73 61 C-73.0721875 60.3915625 -73.144375 59.783125 -73.21875 59.15625 C-75.12991683 41.10634101 -74.35183025 26.28210331 -63.875 10.875 C-47.16210627 -7.56681377 -21.81231403 -8.72492561 0 0 Z " fill="#FAF5E8" transform="translate(271,46)"/>
<path d="M0 0 C0 0.66 0 1.32 0 2 C0.99 2.2784375 0.99 2.2784375 2 2.5625 C10.99677811 6.87345618 15.64851432 14.29702863 20 23 C20.36351562 23.70640625 20.72703125 24.4128125 21.1015625 25.140625 C25.51007372 35.60568902 23.3506481 50.05010294 22 61 C22.43957031 60.50886719 22.87914062 60.01773438 23.33203125 59.51171875 C25 58 25 58 27.6875 57.8125 C28.8321875 57.9053125 28.8321875 57.9053125 30 58 C28.515 58.495 28.515 58.495 27 59 C27.04640625 59.59425781 27.0928125 60.18851562 27.140625 60.80078125 C27.44786244 67.85626966 26.03513572 73.61956871 23 80 C22.34 80.66 21.68 81.32 21 82 C21.165 81.05125 21.33 80.1025 21.5 79.125 C22.18541792 74.4236123 22.08583441 69.73996714 22 65 C21.34 65 20.68 65 20 65 C19.814375 66.60875 19.814375 66.60875 19.625 68.25 C18.92856704 73.86183661 17.95657732 79.42770496 17 85 C17.99 84.67 18.98 84.34 20 84 C19.75 85.875 19.75 85.875 19 88 C18.36578125 88.22429687 17.7315625 88.44859375 17.078125 88.6796875 C14.37919313 90.39442241 14.12192769 92.12518025 13.42871094 95.15136719 C13.28723633 95.84391602 13.14576172 96.53646484 13 97.25 C12.6748508 98.71941164 12.34667216 100.18815588 12.015625 101.65625 C11.7690918 102.76033203 11.7690918 102.76033203 11.51757812 103.88671875 C10.77880439 106.90314585 9.74423269 109.80931176 8.75 112.75 C6.09646136 121.68496214 6.66608562 130.78025294 7 140 C3.93726169 140.05410136 0.87548548 140.09372225 -2.1875 140.125 C-3.05181641 140.14175781 -3.91613281 140.15851563 -4.80664062 140.17578125 C-9.32208103 140.21038233 -12.90081483 140.15567916 -17 138 C-16.47731534 135.23723823 -15.89130413 132.6739124 -15 130 C-15.99 130 -16.98 130 -18 130 C-17.67 127.69 -17.34 125.38 -17 123 C-17.66 122.67 -18.32 122.34 -19 122 C-18.7215625 120.14375 -18.7215625 120.14375 -18.4375 118.25 C-18.04092376 115.16974342 -18.11317031 112.99305019 -19 110 C-18.505 108.515 -18.505 108.515 -18 107 C-18.32033957 104.99787771 -18.65259077 102.99760305 -19 101 C-18.67 100.67 -18.34 100.34 -18 100 C-17.92820036 98.48071962 -17.91607993 96.95832518 -17.9375 95.4375 C-17.94652344 94.61121094 -17.95554687 93.78492188 -17.96484375 92.93359375 C-17.97644531 92.29550781 -17.98804688 91.65742188 -18 91 C-18.99 90.505 -18.99 90.505 -20 90 C-20.33 90.66 -20.66 91.32 -21 92 C-21.33 91.01 -21.66 90.02 -22 89 C-19.525 88.505 -19.525 88.505 -17 88 C-17.103125 86.948125 -17.20625 85.89625 -17.3125 84.8125 C-17 81 -17 81 -14.8125 78.25 C-12.27216129 76.21772904 -9.83084603 74.58803558 -7 73 C-5.948125 72.278125 -4.89625 71.55625 -3.8125 70.8125 C-1 69 -1 69 1 69 C1.268125 68.4328125 1.53625 67.865625 1.8125 67.28125 C3.47744027 64.08281212 5.52717775 61.19032049 7.5625 58.21875 C8.87331116 56.19554147 9.97081281 54.17712674 11 52 C11.66 52 12.32 52 13 52 C13.80239648 46.3055734 14.210759 40.74880648 14.25 35 C14.270625 34.24460938 14.29125 33.48921875 14.3125 32.7109375 C14.35082711 27.1343425 13.17383417 23.13266402 11 18 C10.505 16.2984375 10.505 16.2984375 10 14.5625 C9.505 13.2940625 9.505 13.2940625 9 12 C7.515 11.505 7.515 11.505 6 11 C5.5875 10.566875 5.175 10.13375 4.75 9.6875 C3.00464895 8.00448291 1.51126226 7.1698686 -0.625 6.0625 C-4 4 -4 4 -4.7109375 1.87109375 C-4.80632812 1.25363281 -4.90171875 0.63617188 -5 0 C-9.08319218 -0.0885085 -13.16613163 -0.14089063 -17.25 -0.1875 C-18.38953125 -0.21263672 -19.5290625 -0.23777344 -20.703125 -0.26367188 C-28.57135151 -0.33073062 -35.47116051 0.7161147 -43 3 C-43 3.66 -43 4.32 -43 5 C-51 9 -51 9 -53.203125 9.94140625 C-55.35473323 10.94212894 -55.35473323 10.94212894 -56 14.0625 C-56.33 15.031875 -56.66 16.00125 -57 17 C-59.0625 17.68359375 -59.0625 17.68359375 -61 18 C-62.92631325 27.8551562 -64.67678704 37.3995005 -61 47 C-60.25685215 50.31905898 -59.6211866 53.65616575 -59 57 C-57.68 57.33 -56.36 57.66 -55 58 C-55 59.98 -55 61.96 -55 64 C-54.34 64 -53.68 64 -53 64 C-53 65.32 -53 66.64 -53 68 C-51.68 68 -50.36 68 -49 68 C-48.67 67.34 -48.34 66.68 -48 66 C-46.68 66 -45.36 66 -44 66 C-43.505 69.96 -43.505 69.96 -43 74 C-42.01 74 -41.02 74 -40 74 C-40 74.99 -40 75.98 -40 77 C-39.34 77 -38.68 77 -38 77 C-37.814375 78.7015625 -37.814375 78.7015625 -37.625 80.4375 C-37.41875 81.613125 -37.2125 82.78875 -37 84 C-36.01 84.495 -36.01 84.495 -35 85 C-35.66 85.99 -36.32 86.98 -37 88 C-36.8400524 91.11790887 -36.8400524 91.11790887 -36.1875 94.5 C-35.99542969 95.6446875 -35.80335938 96.789375 -35.60546875 97.96875 C-35.05968253 101.02808683 -35.05968253 101.02808683 -34 104 C-35.4375 107.1875 -35.4375 107.1875 -37 110 C-36.01 110.33 -35.02 110.66 -34 111 C-34.2784375 112.3303125 -34.2784375 112.3303125 -34.5625 113.6875 C-34.98042484 116.85178811 -34.80777742 118.94839642 -34 122 C-34.99 122.495 -34.99 122.495 -36 123 C-35.505 126.465 -35.505 126.465 -35 130 C-36.32 130 -37.64 130 -39 130 C-39 131.32 -39 132.64 -39 134 C-38.34 134 -37.68 134 -37 134 C-37 134.99 -37 135.98 -37 137 C-38.32 137.33 -39.64 137.66 -41 138 C-41 138.66 -41 139.32 -41 140 C-47.93 140 -54.86 140 -62 140 C-61.34 137.69 -60.68 135.38 -60 133 C-59.06721513 124.46582257 -60.83694028 116.15027236 -62.5 107.8125 C-62.73847656 106.57435547 -62.97695312 105.33621094 -63.22265625 104.06054688 C-63.80606651 101.03848172 -64.39865918 98.01853897 -65 95 C-67.97 95.495 -67.97 95.495 -71 96 C-73.9018918 92.67063405 -74.84869408 89.56024499 -75.9375 85.3125 C-77.07469962 81.08299218 -78.24854991 77.17707646 -80.1875 73.25 C-82.4083847 68.62533422 -82.78792867 64.07910843 -83 59 C-81.35 58.34 -79.7 57.68 -78 57 C-75.525 58.98 -75.525 58.98 -73 61 C-73.0721875 60.3915625 -73.144375 59.783125 -73.21875 59.15625 C-75.12991683 41.10634101 -74.35183025 26.28210331 -63.875 10.875 C-47.16210627 -7.56681377 -21.81231403 -8.72492561 0 0 Z " fill="#D1B095" transform="translate(271,46)"/>
<path d="M0 0 C-0.99 0.33 -1.98 0.66 -3 1 C-2.95359375 1.59425781 -2.9071875 2.18851562 -2.859375 2.80078125 C-2.55213756 9.85626966 -3.96486428 15.61956871 -7 22 C-7.66 22.66 -8.32 23.32 -9 24 C-8.835 23.05125 -8.67 22.1025 -8.5 21.125 C-7.81458208 16.4236123 -7.91416559 11.73996714 -8 7 C-8.66 7 -9.32 7 -10 7 C-10.185625 8.60875 -10.185625 8.60875 -10.375 10.25 C-11.07143296 15.86183661 -12.04342268 21.42770496 -13 27 C-12.01 26.67 -11.02 26.34 -10 26 C-10.25 27.875 -10.25 27.875 -11 30 C-11.63421875 30.22429687 -12.2684375 30.44859375 -12.921875 30.6796875 C-15.62080687 32.39442241 -15.87807231 34.12518025 -16.57128906 37.15136719 C-16.71276367 37.84391602 -16.85423828 38.53646484 -17 39.25 C-17.3251492 40.71941164 -17.65332784 42.18815588 -17.984375 43.65625 C-18.14873047 44.39230469 -18.31308594 45.12835938 -18.48242188 45.88671875 C-19.22119561 48.90314585 -20.25576731 51.80931176 -21.25 54.75 C-23.90353864 63.68496214 -23.33391438 72.78025294 -23 82 C-26.06273831 82.05410136 -29.12451452 82.09372225 -32.1875 82.125 C-33.05181641 82.14175781 -33.91613281 82.15851563 -34.80664062 82.17578125 C-39.32208103 82.21038233 -42.90081483 82.15567916 -47 80 C-46.47731534 77.23723823 -45.89130413 74.6739124 -45 72 C-45.99 72 -46.98 72 -48 72 C-47.67 69.69 -47.34 67.38 -47 65 C-47.66 64.67 -48.32 64.34 -49 64 C-48.814375 62.7625 -48.62875 61.525 -48.4375 60.25 C-48.04092376 57.16974342 -48.11317031 54.99305019 -49 52 C-48.67 51.01 -48.34 50.02 -48 49 C-48.32033957 46.99787771 -48.65259077 44.99760305 -49 43 C-48.505 42.505 -48.505 42.505 -48 42 C-47.63128912 40.34080104 -47.30404678 38.67225729 -47 37 C-46.11111111 32.11111111 -46.11111111 32.11111111 -45 31 C-43.41305659 31.06465325 -41.8288284 31.20216967 -40.25 31.375 C-39.38890625 31.46523437 -38.5278125 31.55546875 -37.640625 31.6484375 C-35.06321319 31.99158404 -32.54283227 32.46033416 -30 33 C-23.36691999 25.11400487 -17.24871247 17.31837691 -12.4375 8.1875 C-9.48414995 2.79032356 -6.56386012 -0.75015544 0 0 Z " fill="#7F3771" transform="translate(301,104)"/>
<path d="M0 0 C2.83727712 2.70718363 5.15799225 5.45566475 7.375 8.6875 C7.97570312 9.55761719 8.57640625 10.42773438 9.1953125 11.32421875 C11.39196954 14.58116696 13.53306122 17.87223114 15.640625 21.1875 C17.04636947 23.27128306 17.04636947 23.27128306 20 25 C20.680625 24.505 21.36125 24.01 22.0625 23.5 C25.6413106 21.67252225 28.02991497 21.62546368 32 22 C34.47352021 24.47352021 34.32672635 25.52129024 34.5625 28.9375 C34.77706165 31.91071147 35.05019358 34.15058074 36 37 C34.5625 40.1875 34.5625 40.1875 33 43 C33.99 43.33 34.98 43.66 36 44 C35.7215625 45.3303125 35.7215625 45.3303125 35.4375 46.6875 C35.01957516 49.85178811 35.19222258 51.94839642 36 55 C35.01 55.495 35.01 55.495 34 56 C34.495 59.465 34.495 59.465 35 63 C33.68 63 32.36 63 31 63 C31 64.32 31 65.64 31 67 C31.66 67 32.32 67 33 67 C33 67.99 33 68.98 33 70 C31.02 70.495 31.02 70.495 29 71 C29 71.66 29 72.32 29 73 C22.07 73 15.14 73 8 73 C8.66 70.69 9.32 68.38 10 66 C10.91218482 57.42351492 9.24498922 48.91914983 7.75 40.5 C7.54503906 39.25863281 7.34007812 38.01726562 7.12890625 36.73828125 C5.95321181 29.97625688 4.33215838 23.84486524 1.84277344 17.45654297 C0.60034375 13.83506919 0.39041703 10.63886393 0.25 6.8125 C0.19328125 5.51957031 0.1365625 4.22664063 0.078125 2.89453125 C0.05234375 1.93933594 0.0265625 0.98414062 0 0 Z " fill="#6D2161" transform="translate(201,113)"/>
<path d="M0 0 C-1.32 0.33 -2.64 0.66 -4 1 C-4.08636719 1.6084375 -4.17273438 2.216875 -4.26171875 2.84375 C-5.21424592 5.62573412 -6.27013742 6.10382315 -8.8125 7.5 C-12.03093801 9.35966991 -14.41195647 11.31241633 -17 14 C-17.66 14 -18.32 14 -19 14 C-19 14.66 -19 15.32 -19 16 C-19.99 16.66 -20.98 17.32 -22 18 C-22.54838752 20.78551937 -22.54838752 20.78551937 -22.625 23.9375 C-22.79451907 27.25926649 -22.94517084 29.83551251 -24 33 C-24.66531053 43.16532606 -22.94156175 52.33486853 -20 62 C-19.34 62 -18.68 62 -18 62 C-17.34 63.98 -16.68 65.96 -16 68 C-15.01 68 -14.02 68 -13 68 C-13 69.32 -13 70.64 -13 72 C-11.35 72 -9.7 72 -8 72 C-8 72.66 -8 73.32 -8 74 C-7.34 74 -6.68 74 -6 74 C-6 75.32 -6 76.64 -6 78 C-5.01 78 -4.02 78 -3 78 C-3 79.32 -3 80.64 -3 82 C-7.00200378 83.60080151 -10.04556236 82.29279692 -14 81 C-14 80.01 -14 79.02 -14 78 C-14.9590625 77.62875 -14.9590625 77.62875 -15.9375 77.25 C-18 76 -18 76 -18.75 73.875 C-18.8325 73.25625 -18.915 72.6375 -19 72 C-19.66 72 -20.32 72 -21 72 C-21.66 71.34 -22.32 70.68 -23 70 C-23.66 69.67 -24.32 69.34 -25 69 C-24.71060362 77.97128765 -23.24376495 85.62656023 -20 94 C-23.734375 96.0234375 -23.734375 96.0234375 -26.125 95.8125 C-28 95 -28 95 -30 92 C-30.67137958 89.80532222 -31.28996733 87.59425616 -31.875 85.375 C-33.037806 81.13315339 -34.24326664 77.19502624 -36.1875 73.25 C-38.4083847 68.62533422 -38.78792867 64.07910843 -39 59 C-37.35 58.34 -35.7 57.68 -34 57 C-31.525 58.98 -31.525 58.98 -29 61 C-29.0721875 60.3915625 -29.144375 59.783125 -29.21875 59.15625 C-31.12991683 41.10634101 -30.35183025 26.28210331 -19.875 10.875 C-15.24556507 5.67991064 -7.14107305 -2.14232191 0 0 Z " fill="#BA9C81" transform="translate(227,46)"/>
<path d="M0 0 C1.66611905 -0.042721 3.33382885 -0.04063832 5 0 C6 1 6 1 6.1328125 2.890625 C6.11888306 7.09731485 5.82602574 10.86987128 5 15 C5.32380126 16.33568021 5.65657551 17.66923011 6 19 C5.66666667 20.33333333 5.33333333 21.66666667 5 23 C5.2475 23.99 5.2475 23.99 5.5 25 C6 27 6 27 5.4375 29 C4.7572312 31.06059551 4.7572312 31.06059551 6.0625 32.9375 C7 35 7 35 6.125 37.75 C5.75375 38.4925 5.3825 39.235 5 40 C5.99 40 6.98 40 8 40 C7.33333333 42.66666667 6.66666667 45.33333333 6 48 C7.65 48.33 9.3 48.66 11 49 C11 49.33 11 49.66 11 50 C1.43 50 -8.14 50 -18 50 C-18 49.34 -18 48.68 -18 48 C-16.02 47.505 -16.02 47.505 -14 47 C-14 46.01 -14 45.02 -14 44 C-14.66 44 -15.32 44 -16 44 C-16 42.68 -16 41.36 -16 40 C-14.68 40 -13.36 40 -12 40 C-12.5259375 39.13375 -12.5259375 39.13375 -13.0625 38.25 C-14.14917407 35.64198224 -13.93065133 34.60582371 -13 32 C-12.34 32 -11.68 32 -11 32 C-11.350625 31.29875 -11.70125 30.5975 -12.0625 29.875 C-13.1639193 26.49731414 -12.79516141 24.41919407 -12 21 C-12.66 20.67 -13.32 20.34 -14 20 C-12.95231942 15.56515794 -11.4593827 11.31469667 -10 7 C-6.04 7.33 -2.08 7.66 2 8 C2 7.01 2 6.02 2 5 C1.34 5 0.68 5 0 5 C0 3.35 0 1.7 0 0 Z " fill="#F7E5D4" transform="translate(248,136)"/>
<path d="M0 0 C2.99200581 0.88951524 4.66757647 1.58347886 6.63671875 4.05078125 C8.39959041 7.86444345 8.4414118 11.37842838 8.5 15.5 C8.72676922 22.48434977 9.57241311 28.72822711 11.37890625 35.49609375 C12 38 12 38 12 41 C12.66 41 13.32 41 14 41 C17 46.75 17 46.75 17 49 C17.66 49 18.32 49 19 49 C19.33 45.37 19.66 41.74 20 38 C20.33 38 20.66 38 21 38 C21.33 42.29 21.66 46.58 22 51 C18.93726169 51.05410136 15.87548548 51.09372225 12.8125 51.125 C11.94818359 51.14175781 11.08386719 51.15851563 10.19335938 51.17578125 C5.67791897 51.21038233 2.09918517 51.15567916 -2 49 C-1.47731534 46.23723823 -0.89130413 43.6739124 0 41 C-0.99 41 -1.98 41 -3 41 C-2.67 38.69 -2.34 36.38 -2 34 C-2.66 33.67 -3.32 33.34 -4 33 C-3.814375 31.7625 -3.62875 30.525 -3.4375 29.25 C-3.04092376 26.16974342 -3.11317031 23.99305019 -4 21 C-3.505 19.515 -3.505 19.515 -3 18 C-3.32033957 15.99787771 -3.65259077 13.99760305 -4 12 C-3.67 11.67 -3.34 11.34 -3 11 C-2.63128912 9.34080104 -2.30404678 7.67225729 -2 6 C-1.11111111 1.11111111 -1.11111111 1.11111111 0 0 Z " fill="#A75297" transform="translate(256,135)"/>
<path d="M0 0 C8.32438105 2.38873543 14.1537869 7.45884035 18.38671875 15.01171875 C25.52911099 28.73698979 26.9503151 42.79135561 23.9453125 58.0703125 C20.65814267 68.2578223 13.88786624 76.98129005 7 85 C5.99876014 86.20730617 4.99856011 87.41547648 4 88.625 C3.01 89.800625 3.01 89.800625 2 91 C-1.34373475 90.44271087 -4.03312999 89.64826111 -7 88 C-6.34 86.35 -5.68 84.7 -5 83 C-5.66 82.67 -6.32 82.34 -7 82 C1.666675 73.15999151 1.666675 73.15999151 5.4375 70.25 C8.09329764 67.91808012 9.0401435 66.35949774 10 63 C10.66 63 11.32 63 12 63 C12 62.34 12 61.68 12 61 C12.66 61 13.32 61 14 61 C14.33 58.69 14.66 56.38 15 54 C15.66 54 16.32 54 17 54 C17 53.01 17 52.02 17 51 C17.66 51 18.32 51 19 51 C20.37925733 29.43944193 20.37925733 29.43944193 12.3125 10.0625 C9.20530198 6.85945011 5.54128139 4.49907465 1.7578125 2.1640625 C1.17773438 1.77992187 0.59765625 1.39578125 0 1 C0 0.67 0 0.34 0 0 Z " fill="#BB9C83" transform="translate(269,47)"/>
<path d="M0 0 C3 2 3 2 3.4765625 4.27734375 C3.52554688 5.15519531 3.57453125 6.03304687 3.625 6.9375 C3.81012337 9.93032789 4.04379385 12.13138156 5 15 C3.5625 18.1875 3.5625 18.1875 2 21 C2.99 21.33 3.98 21.66 5 22 C4.814375 22.886875 4.62875 23.77375 4.4375 24.6875 C4.01957516 27.85178811 4.19222258 29.94839642 5 33 C4.01 33.495 4.01 33.495 3 34 C3.33 36.31 3.66 38.62 4 41 C2.68 41 1.36 41 0 41 C0 42.32 0 43.64 0 45 C0.66 45 1.32 45 2 45 C2 45.99 2 46.98 2 48 C0.02 48.495 0.02 48.495 -2 49 C-2 49.66 -2 50.32 -2 51 C-7.61 51 -13.22 51 -19 51 C-18.01 49.02 -17.02 47.04 -16 45 C-15.34 45 -14.68 45 -14 45 C-13.71125 43.88625 -13.4225 42.7725 -13.125 41.625 C-12 38 -12 38 -10 36 C-9.39320493 33.67223125 -9.39320493 33.67223125 -9 31.0625 C-8.42540289 27.57900503 -8.00936183 26.01404274 -6 23 C-5.71599712 21.05375339 -5.71599712 21.05375339 -5.76171875 18.9453125 C-5.74560547 18.16542969 -5.72949219 17.38554687 -5.71289062 16.58203125 C-5.69604509 14.95190163 -5.69072388 13.32160978 -5.69726562 11.69140625 C-5.58255802 7.1993085 -5.43400611 5.52400737 -2.45703125 1.9296875 C-1.64621094 1.29289063 -0.83539063 0.65609375 0 0 Z " fill="#A3528F" transform="translate(232,135)"/>
<path d="M0 0 C-0.99 0.33 -1.98 0.66 -3 1 C-2.95359375 1.59425781 -2.9071875 2.18851562 -2.859375 2.80078125 C-2.55213756 9.85626966 -3.96486428 15.61956871 -7 22 C-7.66 22.66 -8.32 23.32 -9 24 C-8.835 23.05125 -8.67 22.1025 -8.5 21.125 C-7.81458208 16.4236123 -7.91416559 11.73996714 -8 7 C-8.66 7 -9.32 7 -10 7 C-10.12375 8.0725 -10.2475 9.145 -10.375 10.25 C-11.07143296 15.86183661 -12.04342268 21.42770496 -13 27 C-12.01 26.67 -11.02 26.34 -10 26 C-10.25 27.875 -10.25 27.875 -11 30 C-11.64195312 30.23847656 -12.28390625 30.47695312 -12.9453125 30.72265625 C-15.32242411 31.89447111 -15.32242411 31.89447111 -15.9765625 35.00390625 C-16.19054687 36.17824219 -16.40453125 37.35257813 -16.625 38.5625 C-17.02666172 40.71965971 -17.47259393 42.87009085 -18 45 C-18.99 45.495 -18.99 45.495 -20 46 C-20.66 46.99 -21.32 47.98 -22 49 C-22 48.01 -22 47.02 -22 46 C-22.99 46 -23.98 46 -25 46 C-25 46.66 -25 47.32 -25 48 C-25.66 48 -26.32 48 -27 48 C-27.33 49.32 -27.66 50.64 -28 52 C-28 50.02 -28 48.04 -28 46 C-28.66 46 -29.32 46 -30 46 C-30.09087891 44.95199219 -30.09087891 44.95199219 -30.18359375 43.8828125 C-30.26738281 42.97273438 -30.35117187 42.06265625 -30.4375 41.125 C-30.51871094 40.22007812 -30.59992188 39.31515625 -30.68359375 38.3828125 C-30.86989285 35.98889139 -30.86989285 35.98889139 -32 34 C-30.88431641 33.17048828 -30.88431641 33.17048828 -29.74609375 32.32421875 C-26.99376302 29.99472119 -25.13527428 27.74998993 -23.0625 24.8125 C-22.03769531 23.36230469 -22.03769531 23.36230469 -20.9921875 21.8828125 C-20.00605469 20.45582031 -20.00605469 20.45582031 -19 19 C-18.42507813 18.17242187 -17.85015625 17.34484375 -17.2578125 16.4921875 C-15.06647708 13.27604845 -13.10113821 10.214413 -11.4375 6.6875 C-8.78058715 1.72022814 -5.69613193 -0.65098651 0 0 Z " fill="#985387" transform="translate(301,104)"/>
<path d="M0 0 C0.66 0.33 1.32 0.66 2 1 C1.7834375 2.07314453 1.7834375 2.07314453 1.5625 3.16796875 C-1.06363039 17.26518258 -1.98859312 33.4166605 6 46 C6.45632812 46.72445312 6.91265625 47.44890625 7.3828125 48.1953125 C10.53426207 52.79873884 12.55133292 54.42594062 18 56 C19.75 58.5 19.75 58.5 21 61 C23.35953094 63.35953094 24.77895617 63.49141413 28 64 C28 65.32 28 66.64 28 68 C28.99 68.495 28.99 68.495 30 69 C29.34 70.65 28.68 72.3 28 74 C26.80375 73.938125 25.6075 73.87625 24.375 73.8125 C20.26502405 73.79056063 17.5521739 74.86869566 14 77 C14 76.34 14 75.68 14 75 C13.38769531 74.7421875 12.77539062 74.484375 12.14453125 74.21875 C9.74227489 72.85353327 9.02728856 71.8775157 7.6875 69.5 C4.72942462 64.47127186 1.37921146 59.75232045 -2 55 C-1.67 54.34 -1.34 53.68 -1 53 C-0.67 53.99 -0.34 54.98 0 56 C0.66 56 1.32 56 2 56 C3.01866229 57.65532623 4.01810813 59.32260138 5 61 C5.66 61.33 6.32 61.66 7 62 C7.33 62.99 7.66 63.98 8 65 C11.3 65.33 14.6 65.66 18 66 C18 64.68 18 63.36 18 62 C17.01 62 16.02 62 15 62 C15 60.68 15 59.36 15 58 C14.34 58 13.68 58 13 58 C13 57.34 13 56.68 13 56 C11.35 56 9.7 56 8 56 C8 54.68 8 53.36 8 52 C7.01 52 6.02 52 5 52 C4.34 50.02 3.68 48.04 3 46 C2.34 46 1.68 46 1 46 C-2.85153933 35.93225533 -6.57792167 24.733765 -3 14 C-2.73269846 10.90693933 -2.55548241 7.81431891 -2.37890625 4.71484375 C-2 2 -2 2 0 0 Z " fill="#C7A88C" transform="translate(206,62)"/>
<path d="M0 0 C0 0.33 0 0.66 0 1 C-6.66666667 2.33333333 -13.33333333 3.66666667 -20 5 C-20 5.66 -20 6.32 -20 7 C-28 11 -28 11 -30.203125 11.94140625 C-32.35473323 12.94212894 -32.35473323 12.94212894 -33 16.0625 C-33.495 17.5165625 -33.495 17.5165625 -34 19 C-36.0625 19.68359375 -36.0625 19.68359375 -38 20 C-39.92631325 29.8551562 -41.67678704 39.3995005 -38 49 C-37.25685215 52.31905898 -36.6211866 55.65616575 -36 59 C-34.68 59.33 -33.36 59.66 -32 60 C-32 61.98 -32 63.96 -32 66 C-31.34 66 -30.68 66 -30 66 C-30 67.32 -30 68.64 -30 70 C-28.68 70 -27.36 70 -26 70 C-25.67 69.34 -25.34 68.68 -25 68 C-23.68 68 -22.36 68 -21 68 C-20.67 70.64 -20.34 73.28 -20 76 C-19.01 76 -18.02 76 -17 76 C-17 76.99 -17 77.98 -17 79 C-16.34 79 -15.68 79 -15 79 C-15 79.99 -15 80.98 -15 82 C-18.18609925 81.64598897 -19.79066678 81.16972964 -22.3125 79.125 C-24 77 -24 77 -24 74 C-25.36125 73.9071875 -25.36125 73.9071875 -26.75 73.8125 C-30.84073865 72.78981534 -31.66145429 71.42986704 -34 68 C-34.99 66.948125 -34.99 66.948125 -36 65.875 C-40.42342226 59.5163305 -42.69992572 51.71440974 -43 44 C-43.0515625 42.80246094 -43.103125 41.60492188 -43.15625 40.37109375 C-43.39242784 32.2042607 -43.50520025 23.55972293 -40 16 C-38.04296875 14.8359375 -38.04296875 14.8359375 -36 14 C-35.195625 13.175 -34.39125 12.35 -33.5625 11.5 C-31 9 -31 9 -28.25 7.9375 C-27.5075 7.628125 -26.765 7.31875 -26 7 C-25.6278958 5.67696283 -25.29369827 4.34262065 -25 3 C-17.83364689 -1.378563 -8.05440589 -0.12265593 0 0 Z " fill="#E8CFB2" transform="translate(248,44)"/>
<path d="M0 0 C2.83727712 2.70718363 5.15799225 5.45566475 7.375 8.6875 C7.97441406 9.55761719 8.57382813 10.42773438 9.19140625 11.32421875 C11.40144987 14.59393772 13.58330369 17.88123305 15.73828125 21.1875 C17.00906049 23.12662939 17.00906049 23.12662939 19 25 C18.71484375 27.14453125 18.71484375 27.14453125 18 30 C17.77441406 31.22074219 17.54882812 32.44148438 17.31640625 33.69921875 C17.06524344 35.02867215 16.81393865 36.35809874 16.5625 37.6875 C16.44068359 38.36361328 16.31886719 39.03972656 16.19335938 39.73632812 C15.22590825 44.77409175 15.22590825 44.77409175 13 47 C13 45.68 13 44.36 13 43 C12.34 43 11.68 43 11 43 C11 41.68 11 40.36 11 39 C10.34 39 9.68 39 9 39 C8.67 37.02 8.34 35.04 8 33 C7.34 33 6.68 33 6 33 C5.89042969 32.3709375 5.78085938 31.741875 5.66796875 31.09375 C4.90532098 26.9766921 4.16141976 23.14061593 2.4375 19.3125 C-0.02636694 13.30215791 0.24231857 6.41726412 0 0 Z " fill="#964E7D" transform="translate(201,113)"/>
<path d="M0 0 C2.27024968 -0.08097324 4.54132075 -0.13917704 6.8125 -0.1875 C8.07707031 -0.22230469 9.34164063 -0.25710937 10.64453125 -0.29296875 C14 0 14 0 15.94921875 1.38671875 C17 3 17 3 17 5 C18.0828125 5.4021875 18.0828125 5.4021875 19.1875 5.8125 C21.99766383 6.99901362 24.48416557 8.27485639 27 10 C27 10.66 27 11.32 27 12 C27.61875 12.04125 28.2375 12.0825 28.875 12.125 C29.57625 12.41375 30.2775 12.7025 31 13 C32.0625 15.5625 32.0625 15.5625 33 19 C33.50789063 20.20527344 34.01578125 21.41054687 34.5390625 22.65234375 C36.24588753 27.16327549 36.41449809 31.21832948 36.3125 36 C36.31572266 36.75539062 36.31894531 37.51078125 36.32226562 38.2890625 C36.27323072 43.47784677 35.56558623 48.04323229 34 53 C33.01 53.495 33.01 53.495 32 54 C31.06029103 55.91297897 30.12138156 57.82635694 29.1875 59.7421875 C25.43878388 66.86968064 21.04948708 71.1985204 14 75 C10.92337909 76.77760319 8.39016444 78.3582393 6 81 C5.34 79.68 4.68 78.36 4 77 C4.61875 76.9175 5.2375 76.835 5.875 76.75 C8.15303678 76.22658559 8.15303678 76.22658559 8.875 74.1875 C10.48709524 71.05287036 13.09978713 69.91290636 16 68 C16.495 66.515 16.495 66.515 17 65 C19.5 63.5 19.5 63.5 22 62 C22.33 61.01 22.66 60.02 23 59 C23.969375 58.236875 24.93875 57.47375 25.9375 56.6875 C29.11558358 54.16171997 30.00586159 51.97655362 31 48 C31.34289062 47.28457031 31.68578125 46.56914063 32.0390625 45.83203125 C33.30482293 42.10163975 33.2153006 38.57389887 33.125 34.6875 C33.11597656 33.94693359 33.10695313 33.20636719 33.09765625 32.44335938 C33.07424213 30.62876533 33.03837615 28.81433929 33 27 C32.34 27 31.68 27 31 27 C31 24.36 31 21.72 31 19 C30.34 19 29.68 19 29 19 C29 17.68 29 16.36 29 15 C28.01 14.67 27.02 14.34 26 14 C26 13.34 26 12.68 26 12 C25.01 12 24.02 12 23 12 C22.67 11.34 22.34 10.68 22 10 C19.67799776 8.93187897 17.36757931 7.95360833 15 7 C13.80375 6.46375 12.6075 5.9275 11.375 5.375 C8.16617575 3.93289056 8.16617575 3.93289056 5.25 3.5 C2.5976793 2.9105954 1.80724908 1.95265993 0 0 Z " fill="#F4DDC1" transform="translate(250,45)"/>
<path d="M0 0 C8.32438105 2.38873543 14.1537869 7.45884035 18.38671875 15.01171875 C22.71508324 23.32937673 25.19534468 30.04127137 25.1875 39.5 C25.1884668 40.69471924 25.1884668 40.69471924 25.18945312 41.91357422 C25.13178486 48.4156709 24.39635857 54.64158149 23 61 C22.01 60.01 21.02 59.02 20 58 C19.566875 59.7015625 19.566875 59.7015625 19.125 61.4375 C18.75375 62.613125 18.3825 63.78875 18 65 C17.01 65.495 17.01 65.495 16 66 C15.71125 66.825 15.4225 67.65 15.125 68.5 C14 71 14 71 11.875 71.8125 C11.25625 71.874375 10.6375 71.93625 10 72 C9.67 71.01 9.34 70.02 9 69 C9.66 69 10.32 69 11 69 C11.47970123 67.25014646 11.95873924 65.50011109 12.4375 63.75 C12.70433594 62.77546875 12.97117187 61.8009375 13.24609375 60.796875 C13.85544584 58.53627347 14.44238255 56.27377991 15 54 C15.66 54 16.32 54 17 54 C17 53.01 17 52.02 17 51 C17.66 51 18.32 51 19 51 C20.37925733 29.43944193 20.37925733 29.43944193 12.3125 10.0625 C9.20530198 6.85945011 5.54128139 4.49907465 1.7578125 2.1640625 C1.17773438 1.77992187 0.59765625 1.39578125 0 1 C0 0.67 0 0.34 0 0 Z " fill="#A8917C" transform="translate(269,47)"/>
<path d="M0 0 C2.46800047 1.15173355 4.04783565 2.04783565 6 4 C6.4230957 5.96777344 6.4230957 5.96777344 6.67578125 8.359375 C6.83530273 9.66261719 6.83530273 9.66261719 6.99804688 10.9921875 C7.20577616 12.81401206 7.40388018 14.63696286 7.59179688 16.4609375 C8.37005101 22.63235627 9.72425173 25.50844109 14 30 C15.03454078 32.36591183 15.44035386 34.45615391 16 37 C13.78023089 38.34771696 12.49852224 39.04398726 9.875 38.8125 C8 38 8 38 6 35 C5.32862042 32.80532222 4.71003267 30.59425616 4.125 28.375 C2.962194 24.13315339 1.75673336 20.19502624 -0.1875 16.25 C-2.4083847 11.62533422 -2.78792867 7.07910843 -3 2 C-2.01 1.34 -1.02 0.68 0 0 Z " fill="#958473" transform="translate(191,103)"/>
<path d="M0 0 C1.65 0.33 3.3 0.66 5 1 C4.84330386 7.69519885 3.55231474 12.4268133 0.33203125 18.2734375 C-1.69251525 22.41752389 -2.81118899 26.77251132 -4.0078125 31.21484375 C-4.98239815 33.95059007 -5.77629274 35.19716389 -8 37 C-9.98 36.34 -11.96 35.68 -14 35 C-12.52307692 30.32307692 -12.52307692 30.32307692 -9.875 28.6875 C-9.25625 28.460625 -8.6375 28.23375 -8 28 C-8 27.34 -8 26.68 -8 26 C-8.66 26 -9.32 26 -10 26 C-9.13066242 12.27361712 -9.13066242 12.27361712 -7 6 C-6.01 5.67 -5.02 5.34 -4 5 C-4 9.66666667 -4 14.33333333 -4 19 C-1.56953809 12.67162748 -0.40939975 6.76215448 0 0 Z " fill="#B6AD9F" transform="translate(298,105)"/>
<path d="M0 0 C-1.32 0.33 -2.64 0.66 -4 1 C-4.08636719 1.6084375 -4.17273438 2.216875 -4.26171875 2.84375 C-5.21424592 5.62573412 -6.27013742 6.10382315 -8.8125 7.5 C-12.03093801 9.35966991 -14.41195647 11.31241633 -17 14 C-17.66 14 -18.32 14 -19 14 C-19 14.66 -19 15.32 -19 16 C-19.99 16.66 -20.98 17.32 -22 18 C-22.54838752 20.78551937 -22.54838752 20.78551937 -22.625 23.9375 C-22.79451907 27.25926649 -22.94517084 29.83551251 -24 33 C-24.07973476 34.33525717 -24.10771338 35.67412083 -24.09765625 37.01171875 C-24.09443359 37.76904297 -24.09121094 38.52636719 -24.08789062 39.30664062 C-24.07951172 40.09232422 -24.07113281 40.87800781 -24.0625 41.6875 C-24.05798828 42.48478516 -24.05347656 43.28207031 -24.04882812 44.10351562 C-24.0370585 46.06904257 -24.01912348 48.03453085 -24 50 C-25.32 50 -26.64 50 -28 50 C-28 51.65 -28 53.3 -28 55 C-28.33 55 -28.66 55 -29 55 C-32.49759682 40.41727779 -29.3830593 26.76468687 -22 14 C-17.65110012 7.604559 -8.10285287 -2.43085586 0 0 Z " fill="#B19B84" transform="translate(227,46)"/>
<path d="M0 0 C2.60334924 2.71182212 2.99456691 3.89133813 3.1875 7.75 C3.125625 8.8225 3.06375 9.895 3 11 C3.66 11.33 4.32 11.66 5 12 C5.09764636 20.74477436 5.08690314 29.30477491 4 38 C0.37 38 -3.26 38 -7 38 C-7 37.34 -7 36.68 -7 36 C-5.02 35.505 -5.02 35.505 -3 35 C-3 34.01 -3 33.02 -3 32 C-3.66 32 -4.32 32 -5 32 C-5 30.68 -5 29.36 -5 28 C-3.68 28 -2.36 28 -1 28 C-1.5259375 27.13375 -1.5259375 27.13375 -2.0625 26.25 C-3.14917407 23.64198224 -2.93065133 22.60582371 -2 20 C-1.34 20 -0.68 20 0 20 C-0.350625 19.29875 -0.70125 18.5975 -1.0625 17.875 C-2.1639193 14.49731414 -1.79516141 12.41919407 -1 9 C-1.66 8.67 -2.32 8.34 -3 8 C-2.37240135 5.07120629 -1.41377341 2.63904371 0 0 Z " fill="#F6E4E6" transform="translate(237,148)"/>
<path d="M0 0 C-0.33 0.66 -0.66 1.32 -1 2 C-0.02160156 2.61875 -0.02160156 2.61875 0.9765625 3.25 C9.47911989 8.86820901 15.09088291 14.39442956 17.54296875 24.50390625 C18.55995102 32.28338603 18.20697553 40.17325876 18 48 C17.67 48 17.34 48 17 48 C16.94839722 47.13217896 16.94839722 47.13217896 16.89575195 46.24682617 C16.14139463 31.63149532 16.14139463 31.63149532 11.12109375 18.05859375 C10 16 10 16 9.53515625 13.78515625 C9.35855469 13.19605469 9.18195313 12.60695313 9 12 C8.01 11.67 7.02 11.34 6 11 C5.5875 10.566875 5.175 10.13375 4.75 9.6875 C3.00464895 8.00448291 1.51126226 7.1698686 -0.625 6.0625 C-4 4 -4 4 -4.7109375 1.87109375 C-4.80632812 1.25363281 -4.90171875 0.63617188 -5 0 C-21.82803941 -1.48695784 -21.82803941 -1.48695784 -38.5625 -0.375 C-41 0 -41 0 -44 -2 C-31.42740023 -9.25342295 -12.61804378 -5.04721751 0 0 Z " fill="#C5B19B" transform="translate(271,46)"/>
<path d="M0 0 C2.99200581 0.88951524 4.66757647 1.58347886 6.63671875 4.05078125 C8.39959041 7.86444345 8.4414118 11.37842838 8.5 15.5 C8.72676922 22.48434977 9.57241311 28.72822711 11.37890625 35.49609375 C12 38 12 38 12 41 C12.66 41 13.32 41 14 41 C14.33 41.99 14.66 42.98 15 44 C14.34 44 13.68 44 13 44 C13 43.34 13 42.68 13 42 C12.34 42 11.68 42 11 42 C10.505 40.515 10.505 40.515 10 39 C7.98491642 38.26676204 7.98491642 38.26676204 6 38 C6.04125 36.948125 6.0825 35.89625 6.125 34.8125 C6.22522933 31.17352067 6.22522933 31.17352067 5.0625 28.6875 C3.67778131 25.18497626 3.51695594 21.84616766 3.24609375 18.109375 C3.22296498 16.01616395 3.22296498 16.01616395 2 15 C1.95907063 12.66702567 1.95758277 10.33294775 2 8 C1.34 8 0.68 8 0 8 C0 9.98 0 11.96 0 14 C-1.98 14.99 -1.98 14.99 -4 16 C-3.855625 15.28328125 -3.71125 14.5665625 -3.5625 13.828125 C-3.20024712 12.006798 -2.84548304 10.18395733 -2.5 8.359375 C-2.335 7.49828125 -2.17 6.6371875 -2 5.75 C-1.835 4.87859375 -1.67 4.0071875 -1.5 3.109375 C-1 1 -1 1 0 0 Z " fill="#99478B" transform="translate(256,135)"/>
<path d="M0 0 C-0.99 0.33 -1.98 0.66 -3 1 C-2.95359375 1.59425781 -2.9071875 2.18851562 -2.859375 2.80078125 C-2.55213756 9.85626966 -3.96486428 15.61956871 -7 22 C-7.66 22.66 -8.32 23.32 -9 24 C-8.835 23.05125 -8.67 22.1025 -8.5 21.125 C-7.81458208 16.4236123 -7.91416559 11.73996714 -8 7 C-8.66 7 -9.32 7 -10 7 C-10.12375 8.0725 -10.2475 9.145 -10.375 10.25 C-11.07143296 15.86183661 -12.04342268 21.42770496 -13 27 C-12.01 26.67 -11.02 26.34 -10 26 C-10.25 27.875 -10.25 27.875 -11 30 C-11.9590625 30.4640625 -11.9590625 30.4640625 -12.9375 30.9375 C-15.26452391 31.87279303 -15.26452391 31.87279303 -16.25 34.625 C-16.4975 35.40875 -16.745 36.1925 -17 37 C-17.33 37 -17.66 37 -18 37 C-18.125 30.25 -18.125 30.25 -17 28 C-16.75 24.5 -16.75 24.5 -17 21 C-17.66 20.34 -18.32 19.68 -19 19 C-18.60167969 18.41992188 -18.20335937 17.83984375 -17.79296875 17.2421875 C-15.44535277 13.78073912 -13.22532135 10.47768126 -11.4375 6.6875 C-8.78058715 1.72022814 -5.69613193 -0.65098651 0 0 Z " fill="#7B684D" transform="translate(301,104)"/>
<path d="M0 0 C0.66 0.33 1.32 0.66 2 1 C1.7834375 2.07314453 1.7834375 2.07314453 1.5625 3.16796875 C-1.06363039 17.26518258 -1.98859312 33.4166605 6 46 C6.45632812 46.72445312 6.91265625 47.44890625 7.3828125 48.1953125 C10.54123636 52.80892641 12.55413607 54.39099475 18 56 C19.375 58.625 19.375 58.625 20 61 C18.68 60.67 17.36 60.34 16 60 C16 59.34 16 58.68 16 58 C15.01 58 14.02 58 13 58 C13 57.34 13 56.68 13 56 C11.35 56 9.7 56 8 56 C8 54.68 8 53.36 8 52 C7.01 52 6.02 52 5 52 C4.34 50.02 3.68 48.04 3 46 C2.34 46 1.68 46 1 46 C-2.85153933 35.93225533 -6.57792167 24.733765 -3 14 C-2.73269846 10.90693933 -2.55548241 7.81431891 -2.37890625 4.71484375 C-2 2 -2 2 0 0 Z " fill="#CAA889" transform="translate(206,62)"/>
<path d="M0 0 C5.37305699 0.2642487 5.37305699 0.2642487 8 1 C10 3.5625 10 3.5625 11 6 C10.01 6.495 10.01 6.495 9 7 C8.21303805 19.12504343 10.5250729 34.05014579 16 45 C16.33 42.03 16.66 39.06 17 36 C17.33 36 17.66 36 18 36 C18 40.62 18 45.24 18 50 C15 49 15 49 13.3125 46.0625 C12 43 12 43 12 41 C11.34 41 10.68 41 10 41 C7.15890964 31.41957903 5.46857478 22.51088748 5.59204102 12.47338867 C5.5265748 6.61572097 4.16745053 4.13442794 0 0 Z " fill="#601553" transform="translate(258,135)"/>
<path d="M0 0 C3.13720927 3.13720927 3.50319239 7.46077094 4.5 11.67773438 C4.94418355 13.46661423 5.46673013 15.23562663 6 17 C6.66 17.33 7.32 17.66 8 18 C8.66 17.34 9.32 16.68 10 16 C9.79375 16.804375 9.5875 17.60875 9.375 18.4375 C8.84534134 23.46925729 9.7223025 28.444605 12 33 C12.039992 34.99960012 12.04346799 37.00047242 12 39 C12.66 39 13.32 39 14 39 C14 38.34 14 37.68 14 37 C14.66 37 15.32 37 16 37 C15.25 44.75 15.25 44.75 13 47 C13 45.68 13 44.36 13 43 C12.34 43 11.68 43 11 43 C11 41.68 11 40.36 11 39 C10.34 39 9.68 39 9 39 C8.67 37.02 8.34 35.04 8 33 C7.34 33 6.68 33 6 33 C5.89042969 32.3709375 5.78085938 31.741875 5.66796875 31.09375 C4.90532098 26.9766921 4.16141976 23.14061593 2.4375 19.3125 C-0.02636694 13.30215791 0.24231857 6.41726412 0 0 Z " fill="#924281" transform="translate(201,113)"/>
<path d="M0 0 C2 1 2 1 2.95703125 3.29296875 C5.28976195 11.18590689 5.28976195 11.18590689 3.6875 15.6875 C3.130625 16.450625 2.57375 17.21375 2 18 C2.99 18.33 3.98 18.66 5 19 C4.67 21.31 4.34 23.62 4 26 C3.34 26 2.68 26 2 26 C2 25.34 2 24.68 2 24 C0.02 24.66 -1.96 25.32 -4 26 C-3.40546697 8.14350797 -3.40546697 8.14350797 0 0 Z " fill="#AA5492" transform="translate(232,138)"/>
<path d="M0 0 C0.66 0 1.32 0 2 0 C2.144375 1.134375 2.28875 2.26875 2.4375 3.4375 C2.61171478 6.80777201 2.61171478 6.80777201 4 8 C4.18425439 9.57932331 4.32254756 11.16412556 4.4375 12.75 C4.69742001 15.75399352 4.95453754 17.89139524 6.125 20.6875 C7.3727787 23.98520086 6.6661064 26.60285737 6 30 C6.99 30 7.98 30 9 30 C8.67 30.99 8.34 31.98 8 33 C6.02 32.01 4.04 31.02 2 30 C2 29.01 2 28.02 2 27 C1.505 26.154375 1.01 25.30875 0.5 24.4375 C-1.49402669 19.86785549 -1.262018 15.91041138 -1 11 C-1.66 10.67 -2.32 10.34 -3 10 C-2.690625 9.46375 -2.38125 8.9275 -2.0625 8.375 C-0.82172561 5.6015043 -0.4090325 2.99957163 0 0 Z " fill="#AE5A99" transform="translate(256,143)"/>
<path d="M0 0 C0.42065661 11.99650336 0.7752532 24.55557482 -6 35 C-6.33 35.7425 -6.66 36.485 -7 37.25 C-8 39 -8 39 -11 40 C-10.18861663 36.30774986 -8.87519018 32.85325778 -7.5625 29.3125 C-4.11785642 19.80676263 -1.54653947 11.12052469 -4 1 C-1 0 -1 0 0 0 Z " fill="#661459" transform="translate(226,141)"/>
<path d="M0 0 C0.33 0.99 0.66 1.98 1 3 C-0.12279462 3.98169476 -1.24831473 4.96027298 -2.375 5.9375 C-3.31472656 6.75541016 -3.31472656 6.75541016 -4.2734375 7.58984375 C-6 9 -6 9 -8 10 C-8.33 10.99 -8.66 11.98 -9 13 C-11.21701147 14.58965571 -13.57862473 15.72327486 -16 17 C-15.67 17.66 -15.34 18.32 -15 19 C-15.66 19 -16.32 19 -17 19 C-16.87625 20.11375 -16.87625 20.11375 -16.75 21.25 C-17.07105184 24.78157027 -18.35265617 25.76630364 -21 28 C-21.99 27.34 -22.98 26.68 -24 26 C-24.33 26.66 -24.66 27.32 -25 28 C-25.33 27.01 -25.66 26.02 -26 25 C-24.35 24.67 -22.7 24.34 -21 24 C-21.103125 22.948125 -21.20625 21.89625 -21.3125 20.8125 C-21 17 -21 17 -18.8125 14.25 C-16.27216129 12.21772904 -13.83084603 10.58803558 -11 9 C-9.948125 8.278125 -8.89625 7.55625 -7.8125 6.8125 C-5 5 -5 5 -3 5 C-2.690625 4.360625 -2.38125 3.72125 -2.0625 3.0625 C-1 1 -1 1 0 0 Z " fill="#DBBDA1" transform="translate(275,110)"/>
<path d="M0 0 C0.33 0 0.66 0 1 0 C2.2806988 9.76100163 2.54052403 19.96674693 -2 29 C-2.99 29.33 -3.98 29.66 -5 30 C-5.29168557 22.89016432 -4.26914355 16.80847102 -2.5 9.9375 C-2.26152344 8.97650391 -2.02304688 8.01550781 -1.77734375 7.02539062 C-1.19418428 4.68108957 -0.60162494 2.339617 0 0 Z " fill="#89397D" transform="translate(220,144)"/>
<path d="M0 0 C2.27024968 -0.08097324 4.54132075 -0.13917704 6.8125 -0.1875 C8.07707031 -0.22230469 9.34164063 -0.25710937 10.64453125 -0.29296875 C14 0 14 0 15.94921875 1.38671875 C17 3 17 3 17 5 C18.0828125 5.4021875 18.0828125 5.4021875 19.1875 5.8125 C21.99766383 6.99901362 24.48416557 8.27485639 27 10 C27 10.66 27 11.32 27 12 C28.32 12.33 29.64 12.66 31 13 C31.33 14.32 31.66 15.64 32 17 C31.34 17 30.68 17 30 17 C30 16.34 30 15.68 30 15 C28.68 14.67 27.36 14.34 26 14 C26 13.34 26 12.68 26 12 C25.01 12 24.02 12 23 12 C22.67 11.34 22.34 10.68 22 10 C19.67799776 8.93187897 17.36757931 7.95360833 15 7 C13.80375 6.46375 12.6075 5.9275 11.375 5.375 C8.16617575 3.93289056 8.16617575 3.93289056 5.25 3.5 C2.5976793 2.9105954 1.80724908 1.95265993 0 0 Z " fill="#F1DEC3" transform="translate(250,45)"/>
<path d="M0 0 C2 1 2 1 2.59423828 2.7590332 C2.75134277 3.51531006 2.90844727 4.27158691 3.0703125 5.05078125 C3.2446582 5.88963867 3.41900391 6.72849609 3.59863281 7.59277344 C3.77233398 8.4902832 3.94603516 9.38779297 4.125 10.3125 C4.30385742 11.21645508 4.48271484 12.12041016 4.66699219 13.05175781 C5.93240223 19.79820108 6.50258496 26.1313389 6 33 C-1.15021447 24.15014439 -0.16415846 10.77973874 0 0 Z " fill="#86387A" transform="translate(268,147)"/>
<path d="M0 0 C1.32 0.33 2.64 0.66 4 1 C4.09744014 9.72630608 4.16711095 18.33003296 3 27 C0.36 27 -2.28 27 -5 27 C-5 26.34 -5 25.68 -5 25 C-3.35 24.67 -1.7 24.34 0 24 C0 23.01 0 22.02 0 21 C-0.66 20.67 -1.32 20.34 -2 20 C-1.34 19.34 -0.68 18.68 0 18 C-0.2475 16.6078125 -0.2475 16.6078125 -0.5 15.1875 C-1.0631027 11.59772031 -0.44986924 10.24088418 1 7 C1 5.68 1 4.36 1 3 C0.34 3 -0.32 3 -1 3 C-0.67 2.01 -0.34 1.02 0 0 Z " fill="#FBF2E2" transform="translate(238,159)"/>
<path d="M0 0 C-2.3110094 2.3110094 -8.90491632 1.35622036 -12.2109375 1.4296875 C-18.14233485 1.66153365 -21.69060364 2.69060364 -26 7 C-29.37514568 8.59875322 -31.16558757 9 -35 9 C-35.33 9.99 -35.66 10.98 -36 12 C-36.66 12 -37.32 12 -38 12 C-38.33 12.99 -38.66 13.98 -39 15 C-39.33 14.34 -39.66 13.68 -40 13 C-38.88872515 9.98368254 -37.66796417 8.37977488 -34.86328125 6.78515625 C-28.70818505 4 -28.70818505 4 -26 4 C-26 3.34 -26 2.68 -26 2 C-8.40121282 -4.77341637 -8.40121282 -4.77341637 0 0 Z " fill="#F7E4C9" transform="translate(254,47)"/>
<path d="M0 0 C2 1.3125 2 1.3125 4 3 C4 3.99 4 4.98 4 6 C2.68 6 1.36 6 0 6 C0 7.32 0 8.64 0 10 C0.66 10 1.32 10 2 10 C2 10.99 2 11.98 2 13 C0.68 13.33 -0.64 13.66 -2 14 C-2 14.66 -2 15.32 -2 16 C-4.875 16.125 -4.875 16.125 -8 16 C-8.66 15.34 -9.32 14.68 -10 14 C-9.01 14 -8.02 14 -7 14 C-6.896875 13.278125 -6.79375 12.55625 -6.6875 11.8125 C-5.93654526 8.74041242 -4.7124083 6.63996279 -3 4 C-2.67 3.34 -2.34 2.68 -2 2 C-1.34 2 -0.68 2 0 2 C0 1.34 0 0.68 0 0 Z " fill="#803B6A" transform="translate(232,170)"/>
<path d="M0 0 C0.66 0 1.32 0 2 0 C2 0.66 2 1.32 2 2 C3.65 2 5.3 2 7 2 C7.33 1.34 7.66 0.68 8 0 C9.32 0 10.64 0 12 0 C12.33 2.64 12.66 5.28 13 8 C13.99 8 14.98 8 16 8 C16 8.99 16 9.98 16 11 C16.66 11 17.32 11 18 11 C18 11.99 18 12.98 18 14 C14.81390075 13.64598897 13.20933322 13.16972964 10.6875 11.125 C9 9 9 9 9 6 C7.6078125 5.8453125 7.6078125 5.8453125 6.1875 5.6875 C2.97535795 4.99468505 1.88069983 4.6120831 0 2 C0 1.34 0 0.68 0 0 Z " fill="#E0C0A7" transform="translate(215,112)"/>
<path d="M0 0 C2.49310643 3.73965964 2.0603261 5.29070641 1.625 9.6875 C1.51414062 10.86699219 1.40328125 12.04648438 1.2890625 13.26171875 C1.19367188 14.16535156 1.09828125 15.06898438 1 16 C1.99 15.67 2.98 15.34 4 15 C3.75 16.875 3.75 16.875 3 19 C2.0409375 19.4640625 2.0409375 19.4640625 1.0625 19.9375 C-1.26452391 20.87279303 -1.26452391 20.87279303 -2.25 23.625 C-2.4975 24.40875 -2.745 25.1925 -3 26 C-3.33 26 -3.66 26 -4 26 C-4.125 19.25 -4.125 19.25 -3 17 C-2.75 13.5 -2.75 13.5 -3 10 C-3.66 9.34 -4.32 8.68 -5 8 C-3.35 5.36 -1.7 2.72 0 0 Z " fill="#834B5E" transform="translate(287,115)"/>
<path d="M0 0 C1.5 1.1875 1.5 1.1875 3 3 C3.1875 5.6875 3.1875 5.6875 3 8 C3.66 8 4.32 8 5 8 C5.54466387 12.084979 6 15.8725485 6 20 C5.34 20 4.68 20 4 20 C4 20.66 4 21.32 4 22 C3.34 22 2.68 22 2 22 C1.5218392 20.12151115 1.04663435 18.24222299 0.5859375 16.359375 C0.19407194 14.78146303 -0.21757605 13.20833773 -0.6484375 11.640625 C-1.81815686 7.11365915 -2.47591715 4.26407954 0 0 Z " fill="#A95196" transform="translate(211,130)"/>
<path d="M0 0 C0.99 0 1.98 0 3 0 C3.18175781 1.15757813 3.36351562 2.31515625 3.55078125 3.5078125 C3.80417733 5.04695908 4.05811219 6.58601702 4.3125 8.125 C4.48942383 9.26582031 4.48942383 9.26582031 4.66992188 10.4296875 C5.45796052 15.11750712 6.67277814 18.79477872 9 23 C10 26 10 26 11 29 C11.97004121 31.01470098 12.96244882 33.01922047 14 35 C12.35 34.67 10.7 34.34 9 34 C8.76925781 33.20078125 8.53851563 32.4015625 8.30078125 31.578125 C6.58211665 25.79036911 4.73993493 20.25481342 2.25 14.75 C-0.02743785 9.5125894 -0.472308 5.66769601 0 0 Z " fill="#E7D7C0" transform="translate(190,105)"/>
<path d="M0 0 C3.65636815 3.66609254 3.4313856 7.55774549 3.5 12.4375 C3.72621799 19.44458464 4.56662001 25.70652377 6.37890625 32.49609375 C7 35 7 35 7 38 C7.66 38 8.32 38 9 38 C9.33 38.99 9.66 39.98 10 41 C9.34 41 8.68 41 8 41 C8 40.34 8 39.68 8 39 C7.34 39 6.68 39 6 39 C1.67720564 27.47254837 -0.91455612 14.34664136 -1 2 C-0.67 1.34 -0.34 0.68 0 0 Z " fill="#813173" transform="translate(261,138)"/>
<path d="M0 0 C0.66 0.33 1.32 0.66 2 1 C1.7834375 2.07314453 1.7834375 2.07314453 1.5625 3.16796875 C-0.56305977 14.57809169 -2.8018333 30.79725005 4 41 C4 41.99 4 42.98 4 44 C3.34 44 2.68 44 2 44 C-4.23473634 31.24713022 -4.38517924 15.81603822 -2 2 C-1.34 1.34 -0.68 0.68 0 0 Z " fill="#DCBD9E" transform="translate(206,62)"/>
<path d="M0 0 C-0.54227479 4.31693266 -3.223023 7.30572762 -5.8125 10.625 C-6.25142578 11.21023437 -6.69035156 11.79546875 -7.14257812 12.3984375 C-9.46593437 15.40878912 -11.36537126 17.69526148 -15 19 C-15 16.69 -15 14.38 -15 12 C-14.1028125 11.938125 -14.1028125 11.938125 -13.1875 11.875 C-10.69982519 11.16090062 -10.69982519 11.16090062 -9.625 8.25 C-7.7510678 4.50213561 -4.6358728 0 0 0 Z " fill="#CA9D98" transform="translate(284,119)"/>
<path d="M0 0 C0.33 0 0.66 0 1 0 C2.32719886 6.96779403 2.08825381 13.92988911 2 21 C1.34 21 0.68 21 0 21 C-0.0825 21.66 -0.165 22.32 -0.25 23 C-1.56180692 28.24722767 -3.79245146 33.45332296 -8 37 C-8.66 37 -9.32 37 -10 37 C-7 31 -7 31 -4 25 C-3.34 25 -2.68 25 -2 25 C-1.34 16.75 -0.68 8.5 0 0 Z " fill="#E0C1A4" transform="translate(286,73)"/>
<path d="M0 0 C0.33 1.32 0.66 2.64 1 4 C2.32 4 3.64 4 5 4 C4.33333333 6.66666667 3.66666667 9.33333333 3 12 C4.65 12.33 6.3 12.66 8 13 C8 13.33 8 13.66 8 14 C4.37 14 0.74 14 -3 14 C-3 9 -3 9 -2 8 C-2.309375 6.824375 -2.309375 6.824375 -2.625 5.625 C-2.74875 4.75875 -2.8725 3.8925 -3 3 C-1.5625 1.1875 -1.5625 1.1875 0 0 Z " fill="#F5E2E4" transform="translate(251,172)"/>
<path d="M0 0 C0.66 0 1.32 0 2 0 C2.33 1.65 2.66 3.3 3 5 C4.65 5.33 6.3 5.66 8 6 C7.67 6.66 7.34 7.32 7 8 C7.66 8.33 8.32 8.66 9 9 C9 9.99 9 10.98 9 12 C10.32 12.66 11.64 13.32 13 14 C8.07872966 14.16682272 4.49656104 14.24828052 0 12 C0.52268466 9.23723823 1.10869587 6.6739124 2 4 C1.01 4 0.02 4 -1 4 C-0.67 2.68 -0.34 1.36 0 0 Z " fill="#844468" transform="translate(254,172)"/>
<path d="M0 0 C0.66 0.33 1.32 0.66 2 1 C0.125 6.875 0.125 6.875 -1 8 C-1.33926947 10.33247761 -1.67240066 12.66585471 -2 15 C-2.33 15.66 -2.66 16.32 -3 17 C-2.49489805 18.61632624 -1.98926361 20.23248868 -1.48046875 21.84765625 C-0.58716184 25.84938072 -0.85235666 29.92340344 -1 34 C-6.3094522 23.49263871 -5.71254668 14.57758242 -2.8515625 3.3359375 C-2 1 -2 1 0 0 Z " fill="#FAE9CC" transform="translate(212,63)"/>
<path d="M0 0 C3.875 1.75 3.875 1.75 5 4 C4.39421747 6.01927511 3.73080266 8.02253397 3 10 C-0.63 10 -4.26 10 -8 10 C-7.01 8.02 -6.02 6.04 -5 4 C-4.34 4 -3.68 4 -3 4 C-3 3.34 -3 2.68 -3 2 C-2.01 2 -1.02 2 0 2 C0 1.34 0 0.68 0 0 Z M1 1 C0.67 2.32 0.34 3.64 0 5 C0.66 4.67 1.32 4.34 2 4 C1.67 3.01 1.34 2.02 1 1 Z " fill="#A24C93" transform="translate(221,176)"/>
<path d="M0 0 C1.56454159 4.02014661 0.46223974 7.69925681 -0.4375 11.75 C-0.58509766 12.44738281 -0.73269531 13.14476562 -0.88476562 13.86328125 C-1.24868033 15.5772021 -1.62329068 17.28884581 -2 19 C-2.33 19 -2.66 19 -3 19 C-3.33 21.64 -3.66 24.28 -4 27 C-4.33 27 -4.66 27 -5 27 C-5.33 20.07 -5.66 13.14 -6 6 C-4.68 6 -3.36 6 -2 6 C-2 4.68 -2 3.36 -2 2 C-1.34 2 -0.68 2 0 2 C0 1.34 0 0.68 0 0 Z " fill="#632B5C" transform="translate(279,154)"/>
<path d="M0 0 C2.67892029 2.67892029 3.15637375 5.62156588 4.0625 9.1875 C4.23587891 9.83525391 4.40925781 10.48300781 4.58789062 11.15039062 C6.42041091 18.17856231 7.12664335 24.78132878 7 32 C1.96544988 22.43001465 -0.25856371 10.76022805 0 0 Z " fill="#753A59" transform="translate(201,113)"/>
<path d="M0 0 C0.33 0 0.66 0 1 0 C1.125 6.625 1.125 6.625 0 10 C-0.40930042 16.06335732 -0.25372231 21.29940827 2 27 C2.36920191 28.99369031 2.71325582 30.99279077 3 33 C1.29159719 31.36587557 0.06546953 30.13093906 -1 28 C-1.039992 26.00039988 -1.04346799 23.99952758 -1 22 C-1.66 22 -2.32 22 -3 22 C-3.02697137 19.39576408 -3.04682489 16.79180756 -3.0625 14.1875 C-3.07087891 13.44951172 -3.07925781 12.71152344 -3.08789062 11.95117188 C-3.10259828 8.70077932 -3.03531702 6.10595105 -2 3 C-1.34 3 -0.68 3 0 3 C0 2.01 0 1.02 0 0 Z " fill="#F1D8BC" transform="translate(208,66)"/>
<path d="M0 0 C0.99 0.66 1.98 1.32 3 2 C3.38411275 4.609621 3.60293197 7.0058074 3.6875 9.625 C3.72166016 10.33140625 3.75582031 11.0378125 3.79101562 11.765625 C3.87351308 13.50985688 3.93843335 15.25490395 4 17 C2 14 2 14 1 10 C1 15.28 1 20.56 1 26 C-2.78684365 18.4263127 -2.12453871 10.30258059 -2 2 C-1.67 2.66 -1.34 3.32 -1 4 C-0.67 2.68 -0.34 1.36 0 0 Z " fill="#732361" transform="translate(268,138)"/>
<path d="M0 0 C1.32 0.33 2.64 0.66 4 1 C4.125 7.75 4.125 7.75 3 10 C2.96976415 12.27632724 3.06648382 14.53422718 3.16015625 16.80859375 C3 19 3 19 1 22 C0.80083984 20.60974609 0.80083984 20.60974609 0.59765625 19.19140625 C0.42105469 17.99386719 0.24445313 16.79632813 0.0625 15.5625 C-0.11152344 14.36753906 -0.28554688 13.17257813 -0.46484375 11.94140625 C-0.68985213 9.12044324 -0.68985213 9.12044324 -2 8 C-2.33 7.34 -2.66 6.68 -3 6 C-2.06553465 3.96855359 -1.06775224 1.96466413 0 0 Z " fill="#8F4B70" transform="translate(281,124)"/>
<path d="M0 0 C4.07479169 7.27641374 4.49049142 14.83445462 5 23 C4.01 23 3.02 23 2 23 C-0.16240414 15.7919862 -0.86735299 8.52006513 -1 1 C-0.67 0.67 -0.34 0.34 0 0 Z " fill="#C4A999" transform="translate(198,107)"/>
<path d="M0 0 C0.75861328 -0.01224609 1.51722656 -0.02449219 2.29882812 -0.03710938 C6.16841651 -0.04735542 8.01942722 -0.00788185 11.3125 2.1875 C10.20132813 2.23648438 9.09015625 2.28546875 7.9453125 2.3359375 C-3.0336519 2.86680863 -3.0336519 2.86680863 -13.8046875 4.98046875 C-15.6875 5.1875 -15.6875 5.1875 -18.6875 3.1875 C-12.89017952 -0.15710797 -6.50513373 0.00561271 0 0 Z " fill="#AF9C8F" transform="translate(245.6875,40.8125)"/>
<path d="M0 0 C2.83453939 2.83453939 2.29999688 4.79901288 2.3125 8.75 C2.32925781 9.96171875 2.34601563 11.1734375 2.36328125 12.421875 C1.97082191 16.28738853 0.8820235 18.63719658 -1 22 C-1.309375 23.0725 -1.61875 24.145 -1.9375 25.25 C-3 28 -3 28 -5.06640625 29.171875 C-5.70449219 29.44515625 -6.34257812 29.7184375 -7 30 C-6.35699811 28.51960029 -5.71051501 27.04071218 -5.0625 25.5625 C-4.70285156 24.73878906 -4.34320313 23.91507813 -3.97265625 23.06640625 C-3 21 -3 21 -2 20 C-1.77376479 18.51562191 -1.60587035 17.02222575 -1.46484375 15.52734375 C-1.33432617 14.17866211 -1.33432617 14.17866211 -1.20117188 12.80273438 C-1.0706543 11.38444336 -1.0706543 11.38444336 -0.9375 9.9375 C-0.80118164 8.5134082 -0.80118164 8.5134082 -0.66210938 7.06054688 C-0.43743502 4.70737865 -0.21691818 2.35389381 0 0 Z " fill="#FAE8CE" transform="translate(282,72)"/>
<path d="M0 0 C-0.99 0.495 -0.99 0.495 -2 1 C-4.32955272 6.4245299 -4.3899333 11.63722252 -4.56640625 17.4296875 C-4.79760886 22.79760886 -4.79760886 22.79760886 -7 25 C-7 19.06 -7 13.12 -7 7 C-7.99 6.67 -8.98 6.34 -10 6 C-10.33 5.01 -10.66 4.02 -11 3 C-7.16674383 0.29417212 -4.67461851 -0.32613618 0 0 Z " fill="#6E2757" transform="translate(232,135)"/>
<path d="M0 0 C3 1 3 1 3.984375 2.71484375 C6.08031916 8.79949796 6.09458103 13.68308057 5 20 C4.67 18.68 4.34 17.36 4 16 C3.34 16 2.68 16 2 16 C1.66104344 14.27192682 1.32908475 12.54248026 1 10.8125 C0.814375 9.84957031 0.62875 8.88664062 0.4375 7.89453125 C0.03122388 5.2065794 -0.07933572 2.71228981 0 0 Z " fill="#B39477" transform="translate(201,96)"/>
<path d="M0 0 C0.99 0.33 1.98 0.66 3 1 C2.34 2.65 1.68 4.3 1 6 C1.66 6 2.32 6 3 6 C3.33 6.99 3.66 7.98 4 9 C4.66 7.02 5.32 5.04 6 3 C7.09898702 6.29696105 6.87124444 7.40494903 6.0625 10.6875 C5.86785156 11.49574219 5.67320312 12.30398437 5.47265625 13.13671875 C5.31667969 13.75160156 5.16070312 14.36648437 5 15 C4.34 15 3.68 15 3 15 C2.67 16.32 2.34 17.64 2 19 C2 17.02 2 15.04 2 13 C1.34 13 0.68 13 0 13 C-0.06058594 12.30132812 -0.12117188 11.60265625 -0.18359375 10.8828125 C-0.26738281 9.97273437 -0.35117187 9.06265625 -0.4375 8.125 C-0.51871094 7.22007812 -0.59992188 6.31515625 -0.68359375 5.3828125 C-0.86989285 2.98889139 -0.86989285 2.98889139 -2 1 C-1.34 0.67 -0.68 0.34 0 0 Z " fill="#974586" transform="translate(271,137)"/>
<path d="M0 0 C-1.32 0.33 -2.64 0.66 -4 1 C-4.08378906 1.60714844 -4.16757813 2.21429688 -4.25390625 2.83984375 C-5.22619721 5.65490606 -6.36185791 6.15125307 -8.9375 7.5625 C-11.99398709 9.25438487 -12.98340303 9.97510454 -15 13 C-15.66 13 -16.32 13 -17 13 C-15.7377001 7.10926715 -12.761472 4.33503946 -8 1 C-4.8448167 -0.80802639 -3.48330037 -1.24403584 0 0 Z " fill="#B7A896" transform="translate(227,46)"/>
<path d="M0 0 C2 3 2 3 2 6 C2.66 6 3.32 6 4 6 C4 7.32 4 8.64 4 10 C4.66 10 5.32 10 6 10 C6.33 11.98 6.66 13.96 7 16 C6.34 16 5.68 16 5 16 C4.67 17.98 4.34 19.96 4 22 C3.67 22 3.34 22 3 22 C2.49311395 19.45953542 1.99433126 16.91791124 1.5 14.375 C1.35691406 13.66214844 1.21382812 12.94929687 1.06640625 12.21484375 C0.26950574 8.07855065 -0.16034056 4.23566321 0 0 Z " fill="#713666" transform="translate(208,146)"/>
<path d="M0 0 C0.33 2.64 0.66 5.28 1 8 C-1.475 9.485 -1.475 9.485 -4 11 C-4.12117187 10.36191406 -4.24234375 9.72382813 -4.3671875 9.06640625 C-4.53476563 8.24011719 -4.70234375 7.41382813 -4.875 6.5625 C-5.03742188 5.73878906 -5.19984375 4.91507813 -5.3671875 4.06640625 C-5.57601562 3.38449219 -5.78484375 2.70257813 -6 2 C-6.66 1.67 -7.32 1.34 -8 1 C-5.07175348 0.02391783 -3.04386724 -0.08226668 0 0 Z " fill="#F4D8C6" transform="translate(240,132)"/>
<path d="M0 0 C0.99 0.495 0.99 0.495 2 1 C2 1.66 2 2.32 2 3 C2.66 3 3.32 3 4 3 C5.01866229 4.65532623 6.01810813 6.32260138 7 8 C7.66 8.33 8.32 8.66 9 9 C9.33 9.99 9.66 10.98 10 12 C10.66 12.33 11.32 12.66 12 13 C12.68132451 14.66072849 13.34742127 16.327767 14 18 C15.95216435 19.95216435 17.53199953 20.84826645 20 22 C18.02 22.99 18.02 22.99 16 24 C16 23.34 16 22.68 16 22 C15.38769531 21.7421875 14.77539062 21.484375 14.14453125 21.21875 C11.74227489 19.85353327 11.02728856 18.8775157 9.6875 16.5 C7.15413158 12.17744013 4.2978156 8.15434729 1.35546875 4.1015625 C0 2 0 2 0 0 Z " fill="#D2A4A6" transform="translate(204,115)"/>
<path d="M0 0 C0 0.33 0 0.66 0 1 C-6.66666667 2.33333333 -13.33333333 3.66666667 -20 5 C-20 5.66 -20 6.32 -20 7 C-23.465 8.485 -23.465 8.485 -27 10 C-26.67 9.01 -26.34 8.02 -26 7 C-25.34 7 -24.68 7 -24 7 C-24 6.34 -24 5.68 -24 5 C-23.01 5 -22.02 5 -21 5 C-21 4.34 -21 3.68 -21 3 C-13.92444501 -0.0017506 -7.62951555 -0.34855655 0 0 Z " fill="#E8D3BC" transform="translate(248,44)"/>
<path d="M0 0 C0.78375 0.04125 1.5675 0.0825 2.375 0.125 C1.22300941 3.58097176 0.64166429 3.85582846 -2.375 5.625 C-3.09558594 6.05554688 -3.81617188 6.48609375 -4.55859375 6.9296875 C-6.18462279 7.87026385 -7.81099734 8.81024291 -9.4375 9.75 C-11.48363755 11.0361436 -13.00952894 12.33947935 -14.625 14.125 C-15.285 12.805 -15.945 11.485 -16.625 10.125 C-10 7.25 -10 7.25 -6.625 6.125 C-5.53333725 4.19169397 -5.53333725 4.19169397 -4.625 2.125 C-2.625 0.125 -2.625 0.125 0 0 Z " fill="#EACEB1" transform="translate(270.625,111.875)"/>
<path d="M0 0 C0.99 0.66 1.98 1.32 3 2 C3.1875 5.125 3.1875 5.125 3 8 C2.690625 7.360625 2.38125 6.72125 2.0625 6.0625 C1.1654837 4.06389179 1.1654837 4.06389179 0 3 C-0.66 5.97 -1.32 8.94 -2 12 C-2.66 12 -3.32 12 -4 12 C-4 13.98 -4 15.96 -4 18 C-4.33 18 -4.66 18 -5 18 C-5.76681614 6.36143498 -5.76681614 6.36143498 -3.88671875 3.0234375 C-2.5 1.6875 -2.5 1.6875 0 0 Z " fill="#8B377A" transform="translate(232,135)"/>
<path d="M0 0 C0.35368021 7.12600133 -0.04328652 12.47059106 -3 19 C-3.33 19 -3.66 19 -4 19 C-4.02717692 16.93757383 -4.0464758 14.87504297 -4.0625 12.8125 C-4.07410156 11.66394531 -4.08570313 10.51539062 -4.09765625 9.33203125 C-4.01127783 6.38479964 -3.82198363 3.82783048 -3 1 C-1 0 -1 0 0 0 Z " fill="#EACCBA" transform="translate(294,110)"/>
<path d="M0 0 C0.66 0 1.32 0 2 0 C4.28571429 8.42857143 4.28571429 8.42857143 4 13 C3.34 12.67 2.68 12.34 2 12 C2 9.69 2 7.38 2 5 C1.34 5 0.68 5 0 5 C0 6.98 0 8.96 0 11 C-1.98 11.99 -1.98 11.99 -4 13 C-3.27991594 8.39146203 -1.68704061 4.32762591 0 0 Z " fill="#996082" transform="translate(256,138)"/>
<path d="M0 0 C2 2 2 2 2.1953125 5.6953125 C2.182009 7.17200108 2.15814835 8.64862358 2.125 10.125 C2.11597656 10.87910156 2.10695313 11.63320312 2.09765625 12.41015625 C2.0740687 14.27357254 2.03819719 16.13682593 2 18 C0.68 17.34 -0.64 16.68 -2 16 C-1.814375 14.7625 -1.62875 13.525 -1.4375 12.25 C-1.11507397 9.77516235 -0.95328497 8.18686012 -1.5625 5.75 C-2 4 -2 4 -1.0625 1.75 C-0.711875 1.1725 -0.36125 0.595 0 0 Z " fill="#94557E" transform="translate(254,152)"/>
<path d="M0 0 C0.66 0 1.32 0 2 0 C1.00986069 3.15044326 0.21679413 4.81250237 -2.3125 7 C-6.7263139 11.03285973 -8.11021677 17.50756618 -10 23 C-10.33 23 -10.66 23 -11 23 C-10.42021625 14.10998252 -6.16570119 6.33234176 0 0 Z " fill="#9B8C7E" transform="translate(210,54)"/>
<path d="M0 0 C2.55571918 2.55571918 5.09816736 5.10535034 7.5625 7.75 C9.73583714 10.13047428 9.73583714 10.13047428 12.1875 10.5 C12.785625 10.665 13.38375 10.83 14 11 C15.25 13.5625 15.25 13.5625 16 16 C14.68 15.67 13.36 15.34 12 15 C12 14.34 12 13.68 12 13 C11.01 13 10.02 13 9 13 C9 12.34 9 11.68 9 11 C7.35 11 5.7 11 4 11 C3.52014033 9.72942818 3.0411407 8.45853152 2.5625 7.1875 C2.16224609 6.12595703 2.16224609 6.12595703 1.75390625 5.04296875 C1.13774814 3.37327604 0.56280765 1.68842296 0 0 Z " fill="#D2B096" transform="translate(210,107)"/>
<path d="M0 0 C1.5 1.375 1.5 1.375 3 3 C3 3.66 3 4.32 3 5 C3.99 4.67 4.98 4.34 6 4 C5.75 5.875 5.75 5.875 5 8 C4.360625 8.309375 3.72125 8.61875 3.0625 8.9375 C0.73547609 9.87279303 0.73547609 9.87279303 -0.25 12.625 C-0.4975 13.40875 -0.745 14.1925 -1 15 C-1.33 15 -1.66 15 -2 15 C-2.22577402 9.5814234 -1.46670113 5.22512279 0 0 Z " fill="#76464B" transform="translate(285,126)"/>
<path d="M0 0 C0.33 0.99 0.66 1.98 1 3 C1.66 3 2.32 3 3 3 C2.28571429 11.57142857 2.28571429 11.57142857 -1 15 C-2.32 14.67 -3.64 14.34 -5 14 C-4.34 12.02 -3.68 10.04 -3 8 C-2.34 8 -1.68 8 -1 8 C-0.67 5.36 -0.34 2.72 0 0 Z " fill="#7B3270" transform="translate(214,171)"/>
<path d="M0 0 C2.475 0.99 2.475 0.99 5 2 C4.67 4.31 4.34 6.62 4 9 C3.34 9 2.68 9 2 9 C2 8.34 2 7.68 2 7 C0.68 7.33 -0.64 7.66 -2 8 C-2.33 7.01 -2.66 6.02 -3 5 C-1.5625 2.3125 -1.5625 2.3125 0 0 Z " fill="#A95F90" transform="translate(232,155)"/>
<path d="M0 0 C0.33 0.99 0.66 1.98 1 3 C1.66 3 2.32 3 3 3 C2.3547078 5.93015334 1.4319105 8.48756475 0.125 11.1875 C-0.20242187 11.88230469 -0.52984375 12.57710937 -0.8671875 13.29296875 C-2 15 -2 15 -5 16 C-4.19429304 12.50577615 -3.08208283 9.14682647 -1.9375 5.75 C-1.57527344 4.67234375 -1.21304688 3.5946875 -0.83984375 2.484375 C-0.56269531 1.66453125 -0.28554687 0.8446875 0 0 Z " fill="#6C1E62" transform="translate(220,165)"/>
<path d="M0 0 C2.45605371 2.55274874 2.98802939 3.85890643 3.29296875 7.453125 C3.24076172 9.33257812 3.24076172 9.33257812 3.1875 11.25 C3.14689453 13.14492187 3.14689453 13.14492187 3.10546875 15.078125 C3.07066406 16.04234375 3.03585937 17.0065625 3 18 C2.67 16.68 2.34 15.36 2 14 C1.34 14 0.68 14 0 14 C-0.19456705 12.04235617 -0.38044247 10.08384679 -0.5625 8.125 C-0.66691406 7.03445312 -0.77132813 5.94390625 -0.87890625 4.8203125 C-1 2 -1 2 0 0 Z " fill="#792667" transform="translate(261,138)"/>
<path d="M0 0 C0.99 0.33 1.98 0.66 3 1 C3 1.66 3 2.32 3 3 C3.99 3 4.98 3 6 3 C7.6875 4.25 7.6875 4.25 9 6 C9 7.32 9 8.64 9 10 C7.68 10 6.36 10 5 10 C2 6.78571429 2 6.78571429 2 4 C1.34 4 0.68 4 0 4 C0 2.68 0 1.36 0 0 Z " fill="#FBECCF" transform="translate(270,54)"/>
<path d="M0 0 C0.99 0.33 1.98 0.66 3 1 C0.63907689 3.73370045 -1.56538728 4.91097645 -5 6 C-6.32 6 -7.64 6 -9 6 C-9.33 6.99 -9.66 7.98 -10 9 C-10.66 9 -11.32 9 -12 9 C-12.33 9.99 -12.66 10.98 -13 12 C-13.33 11.34 -13.66 10.68 -14 10 C-12.88937295 6.98544086 -11.68916655 5.38049049 -8.86328125 3.8203125 C-6.59498014 2.81948399 -4.31178148 1.89488315 -2 1 C-1.34 0.67 -0.68 0.34 0 0 Z " fill="#FCEFD6" transform="translate(228,50)"/>
<path d="M0 0 C2.475 0.99 2.475 0.99 5 2 C5 6.95 5 11.9 5 17 C4.67 17 4.34 17 4 17 C3.34 12.38 2.68 7.76 2 3 C1.34 3 0.68 3 0 3 C-0.66 4.32 -1.32 5.64 -2 7 C-1.125 1.125 -1.125 1.125 0 0 Z " fill="#904677" transform="translate(256,135)"/>
<path d="M0 0 C0.99 0.33 1.98 0.66 3 1 C1.69386058 4.91841827 0.16870152 7.32640809 -3 10 C-3.66 10 -4.32 10 -5 10 C-5 7.69 -5 5.38 -5 3 C-4.360625 2.87625 -3.72125 2.7525 -3.0625 2.625 C-2.0415625 2.315625 -2.0415625 2.315625 -1 2 C-0.67 1.34 -0.34 0.68 0 0 Z " fill="#D6AEA1" transform="translate(274,128)"/>
<path d="M0 0 C0.66 0.33 1.32 0.66 2 1 C1.28972656 1.60328125 0.57945312 2.2065625 -0.15234375 2.828125 C-1.07144531 3.62734375 -1.99054688 4.4265625 -2.9375 5.25 C-3.85402344 6.03890625 -4.77054687 6.8278125 -5.71484375 7.640625 C-7.91526249 9.91251033 -8.66832555 10.92319022 -9 14 C-9.99 13.67 -10.98 13.34 -12 13 C-10.26116659 7.46734824 -7.00087133 4.39595674 -2.3125 1.125 C-1.549375 0.75375 -0.78625 0.3825 0 0 Z " fill="#C8A68B" transform="translate(272,118)"/>
<path d="M0 0 C0.99 0 1.98 0 3 0 C3.33 4.62 3.66 9.24 4 14 C0.04725898 10.04725898 0.04725898 10.04725898 -0.09765625 6.8359375 C-0.08605469 6.02382812 -0.07445312 5.21171875 -0.0625 4.375 C-0.05347656 3.55773437 -0.04445312 2.74046875 -0.03515625 1.8984375 C-0.02355469 1.27195312 -0.01195312 0.64546875 0 0 Z " fill="#F6EDD7" transform="translate(190,105)"/>
<path d="M0 0 C0.33 0 0.66 0 1 0 C1.05449228 2.83359844 1.09390733 5.66612485 1.125 8.5 C1.14175781 9.29148437 1.15851563 10.08296875 1.17578125 10.8984375 C1.21979212 16.26776306 0.73626712 20.89468476 -1 26 C-1.99 26.33 -2.98 26.66 -4 27 C-3.52747119 24.32233677 -2.96008018 21.89396297 -2 19.34375 C-0.81594075 15.38455189 -0.55324281 11.73201141 -0.375 7.625 C-0.33632813 6.88894531 -0.29765625 6.15289062 -0.2578125 5.39453125 C-0.16442002 3.59672594 -0.0811629 1.79839892 0 0 Z " fill="#EED2B6" transform="translate(285,72)"/>
<path d="M0 0 C0.33 0 0.66 0 1 0 C0.40692016 4.84348539 -0.59054601 9.33118364 -2 14 C-2.34135927 15.33130115 -2.67925956 16.66358148 -3 18 C-3.66 18 -4.32 18 -5 18 C-5 18.66 -5 19.32 -5 20 C-5.66 20 -6.32 20 -7 20 C-6.71125 19.154375 -6.4225 18.30875 -6.125 17.4375 C-5.3808172 15.16360811 -4.69202688 12.87076521 -4.0625 10.5625 C-2.95912194 6.86293828 -1.57907723 3.51703565 0 0 Z " fill="#8C3D82" transform="translate(226,158)"/>
<path d="M0 0 C1.5625 1.25 1.5625 1.25 3 3 C2.75 4.9375 2.75 4.9375 2 7 C1.814375 7.7425 1.62875 8.485 1.4375 9.25 C1.293125 9.8275 1.14875 10.405 1 11 C-0.65 11 -2.3 11 -4 11 C-4 9.35 -4 7.7 -4 6 C-2.68 5.34 -1.36 4.68 0 4 C0 2.68 0 1.36 0 0 Z " fill="#EFD9D7" transform="translate(251,157)"/>
<path d="M0 0 C1.65 0.33 3.3 0.66 5 1 C4.67 1.556875 4.34 2.11375 4 2.6875 C2.8690399 5.30284522 2.84337026 7.1806646 3 10 C2.01 10.33 1.02 10.66 0 11 C-1.125 3.375 -1.125 3.375 0 0 Z " fill="#FCE8E8" transform="translate(249,152)"/>
<path d="M0 0 C1.66666667 0 3.33333333 0 5 0 C5.33 2.64 5.66 5.28 6 8 C6.66 8 7.32 8 8 8 C8 8.99 8 9.98 8 11 C7.01 10.67 6.02 10.34 5 10 C4.67 8.35 4.34 6.7 4 5 C2.68 4.67 1.36 4.34 0 4 C0 2.68 0 1.36 0 0 Z " fill="#EAD1B5" transform="translate(222,112)"/>
<path d="M0 0 C0.66 0 1.32 0 2 0 C2.27429625 5.39449293 2.36055646 8.51925805 -1 13 C-1.66 12.67 -2.32 12.34 -3 12 C-3 10.35 -3 8.7 -3 7 C-2.34 7 -1.68 7 -1 7 C-1.020625 6.030625 -1.04125 5.06125 -1.0625 4.0625 C-1 1 -1 1 0 0 Z " fill="#FADBDF" transform="translate(252,138)"/>
<path d="M0 0 C0 2.62113708 -0.31292445 4.50935112 -1 7 C-0.01 6.67 0.98 6.34 2 6 C2 6.66 2 7.32 2 8 C-0.60582371 8.93065133 -1.64198224 9.14917407 -4.25 8.0625 C-4.8275 7.711875 -5.405 7.36125 -6 7 C-4.52307692 2.32307692 -4.52307692 2.32307692 -1.875 0.6875 C-1.25625 0.460625 -0.6375 0.23375 0 0 Z " fill="#9E8C82" transform="translate(290,133)"/>
<path d="M0 0 C0.99 0 1.98 0 3 0 C4.6442351 4.93270529 3.18615592 7.54024193 1 12 C0.67 12 0.34 12 0 12 C0 8.04 0 4.08 0 0 Z " fill="#F4E7D8" transform="translate(298,105)"/>
<path d="M0 0 C0.33 0 0.66 0 1 0 C1.33 4.29 1.66 8.58 2 13 C-3 13 -3 13 -6 11 C-6 9.68 -6 8.36 -6 7 C-6.66 7 -7.32 7 -8 7 C-7.67 6.01 -7.34 5.02 -7 4 C-7 4.66 -7 5.32 -7 6 C-6.34 6 -5.68 6 -5 6 C-4.34 7.65 -3.68 9.3 -3 11 C-2.34 11 -1.68 11 -1 11 C-0.67 7.37 -0.34 3.74 0 0 Z " fill="#8F5388" transform="translate(276,173)"/>
<path d="M0 0 C2.27024968 -0.08097324 4.54132075 -0.13917704 6.8125 -0.1875 C8.07707031 -0.22230469 9.34164063 -0.25710937 10.64453125 -0.29296875 C14 0 14 0 15.94921875 1.44921875 C17 3 17 3 17 4 C11.27601207 3.25339288 5.65146223 2.17122859 0 1 C0 0.67 0 0.34 0 0 Z " fill="#DBC6AF" transform="translate(250,45)"/>
<path d="M0 0 C2.32590854 3.63423209 2.16265833 6.77088331 2 11 C1.01 10.67 0.02 10.34 -1 10 C-2.1875 6.4375 -2.1875 6.4375 -3 3 C-2.01 2.01 -1.02 1.02 0 0 Z " fill="#FCF5EC" transform="translate(251,172)"/>
<path d="M0 0 C0.5534764 2.07553648 1 3.84365964 1 6 C1.33 6.99 1.66 7.98 2 9 C-0.875 9.125 -0.875 9.125 -4 9 C-4.66 8.34 -5.32 7.68 -6 7 C-5.01 7 -4.02 7 -3 7 C-2.87625 6.21625 -2.7525 5.4325 -2.625 4.625 C-2 2 -2 2 0 0 Z " fill="#933C83" transform="translate(228,177)"/>
<path d="M0 0 C0.66 0 1.32 0 2 0 C2 3.96 2 7.92 2 12 C-0.90315776 8.12912299 -1.69702983 6.64554253 -2 2 C-1.34 1.34 -0.68 0.68 0 0 Z " fill="#7C2B75" transform="translate(272,168)"/>
<path d="M0 0 C2 1 2 1 2.8515625 3.36328125 C3.10679687 4.33652344 3.36203125 5.30976563 3.625 6.3125 C3.88539063 7.27800781 4.14578125 8.24351562 4.4140625 9.23828125 C5 12 5 12 5 16 C4.34 16 3.68 16 3 16 C2.49411853 14.08487728 1.99551609 12.16783078 1.5 10.25 C1.2215625 9.18265625 0.943125 8.1153125 0.65625 7.015625 C0 4 0 4 0 0 Z " fill="#5B0E4D" transform="translate(265,156)"/>
<path d="M0 0 C2.56564811 2.56564811 3.13640893 4.47920562 4 8 C3.625 11.875 3.625 11.875 3 15 C2.34 15 1.68 15 1 15 C0.67 10.05 0.34 5.1 0 0 Z " fill="#824F58" transform="translate(201,113)"/>
<path d="M0 0 C2 2 2 2 2.125 5.125 C2.08375 6.07375 2.0425 7.0225 2 8 C1.34 6.68 0.68 5.36 0 4 C-0.66 4 -1.32 4 -2 4 C-2.33 6.64 -2.66 9.28 -3 12 C-3.66 11.67 -4.32 11.34 -5 11 C-4.50769231 4.6 -4.50769231 4.6 -1.9375 1.5625 C-0.9784375 0.7890625 -0.9784375 0.7890625 0 0 Z " fill="#8F6D67" transform="translate(293,107)"/>
<path d="M0 0 C1.485 0.99 1.485 0.99 3 2 C2.67 2.99 2.34 3.98 2 5 C2.66 4.67 3.32 4.34 4 4 C3.34 7.63 2.68 11.26 2 15 C1.67 15 1.34 15 1 15 C1 12.69 1 10.38 1 8 C0.34 8 -0.32 8 -1 8 C-0.835 7.236875 -0.67 6.47375 -0.5 5.6875 C0.09145396 2.96403764 0.09145396 2.96403764 0 0 Z " fill="#A45790" transform="translate(273,135)"/>
<path d="M0 0 C4.87549176 1.30108431 7.7234779 3.17085748 11.375 6.625 C12.24898438 7.44226562 13.12296875 8.25953125 14.0234375 9.1015625 C15.00183594 10.04128906 15.00183594 10.04128906 16 11 C15.34 11.66 14.68 12.32 14 13 C13.360625 12.13375 12.72125 11.2675 12.0625 10.375 C9.15095208 6.8323362 5.66104899 4.60335998 1.79296875 2.19921875 C1.20128906 1.80347656 0.60960937 1.40773437 0 1 C0 0.67 0 0.34 0 0 Z " fill="#A6998A" transform="translate(269,47)"/>
<path d="M0 0 C0.99 0.33 1.98 0.66 3 1 C2.67 1.33 2.34 1.66 2 2 C2.66 2.33 3.32 2.66 4 3 C4 3.99 4 4.98 4 6 C5.32 6.66 6.64 7.32 8 8 C5.69 8 3.38 8 1 8 C0.34 5.69 -0.32 3.38 -1 1 C-0.67 0.67 -0.34 0.34 0 0 Z " fill="#974081" transform="translate(259,178)"/>
<path d="M0 0 C0.33 0.66 0.66 1.32 1 2 C1.66 2.33 2.32 2.66 3 3 C4.13617383 5.99536737 3.97110486 7.97878489 3 11 C2.34 11 1.68 11 1 11 C0.87625 10.195625 0.7525 9.39125 0.625 8.5625 C0.315625 7.2940625 0.315625 7.2940625 0 6 C-0.66 5.67 -1.32 5.34 -2 5 C-1.34 3.35 -0.68 1.7 0 0 Z " fill="#9F4E89" transform="translate(256,166)"/>
<path d="M0 0 C0.33 0.99 0.66 1.98 1 3 C1.66 3 2.32 3 3 3 C3 2.01 3 1.02 3 0 C3.66 0 4.32 0 5 0 C4.75 3.375 4.75 3.375 4 7 C2.02 7.99 2.02 7.99 0 9 C0 6.03 0 3.06 0 0 Z " fill="#813177" transform="translate(215,165)"/>
<path d="M0 0 C2.52259061 1.97420135 2.9929808 2.96745642 3.6875 6.1875 C3.790625 7.115625 3.89375 8.04375 4 9 C2.1875 8.8125 2.1875 8.8125 0 8 C-1.8125 5.5625 -1.8125 5.5625 -3 3 C-2.67 2.34 -2.34 1.68 -2 1 C-1.34 1.33 -0.68 1.66 0 2 C0 1.34 0 0.68 0 0 Z " fill="#9F826E" transform="translate(202,130)"/>
<path d="M0 0 C2 1.3125 2 1.3125 4 3 C4 3.99 4 4.98 4 6 C1.69 6.33 -0.62 6.66 -3 7 C-2.67 5.35 -2.34 3.7 -2 2 C-1.34 2 -0.68 2 0 2 C0 1.34 0 0.68 0 0 Z " fill="#914A7A" transform="translate(232,170)"/>
<path d="M0 0 C0.99 0.99 1.98 1.98 3 3 C1.02 5.97 1.02 5.97 -1 9 C-1.99 8.67 -2.98 8.34 -4 8 C-2.25 2.25 -2.25 2.25 0 0 Z " fill="#F7F5ED" transform="translate(204,56)"/>
<path d="M0 0 C1.65 0 3.3 0 5 0 C5.33 0.66 5.66 1.32 6 2 C5.01 2.495 5.01 2.495 4 3 C3.34227572 6.02934491 3.34227572 6.02934491 3 9 C1.68 9.33 0.36 9.66 -1 10 C-1 9.34 -1 8.68 -1 8 C-0.01 8 0.98 8 2 8 C2 7.01 2 6.02 2 5 C1.34 5 0.68 5 0 5 C0 3.35 0 1.7 0 0 Z " fill="#EBD6C1" transform="translate(248,136)"/>
<path d="M0 0 C2 1.4375 2 1.4375 4 4 C4.35442445 7.02824418 4.23347235 9.96485939 4 13 C3.70480469 12.40316406 3.40960938 11.80632812 3.10546875 11.19140625 C2.21216628 9.42058404 1.26968915 7.67462105 0.3125 5.9375 C-1 3 -1 3 0 0 Z " fill="#CFB7A1" transform="translate(282,59)"/>
<path d="M0 0 C5.37305699 0.2642487 5.37305699 0.2642487 8 1 C10 3.5625 10 3.5625 11 6 C10.01 6.495 10.01 6.495 9 7 C9 6.34 9 5.68 9 5 C8.01 5 7.02 5 6 5 C6 4.34 6 3.68 6 3 C5.38125 2.87625 4.7625 2.7525 4.125 2.625 C2 2 2 2 0 0 Z " fill="#5F2043" transform="translate(258,135)"/>
<path d="M0 0 C0 1.32 0 2.64 0 4 C-1.98 4.33 -3.96 4.66 -6 5 C-6 4.01 -6 3.02 -6 2 C-6.66 1.67 -7.32 1.34 -8 1 C-5.07175348 0.02391783 -3.04386724 -0.08226668 0 0 Z " fill="#E3C5B0" transform="translate(240,132)"/>
<path d="M0 0 C0.144375 0.639375 0.28875 1.27875 0.4375 1.9375 C0.81007181 3.97545146 0.81007181 3.97545146 2 5 C2.33 4.01 2.66 3.02 3 2 C3.33 3.32 3.66 4.64 4 6 C2.68 6 1.36 6 0 6 C-0.33 6.99 -0.66 7.98 -1 9 C-1 8.34 -1 7.68 -1 7 C-1.66 6.67 -2.32 6.34 -3 6 C-2.625 3.5625 -2.625 3.5625 -2 1 C-1.34 0.67 -0.68 0.34 0 0 Z " fill="#F1DDCF" transform="translate(249,146)"/>
<path d="M0 0 C1 3 1 3 0 6 C-0.03954234 8.33299825 -0.04401732 10.66708189 0 13 C-2.39763185 10.60236815 -2.34280586 9.66726502 -2.625 6.375 C-2.69976562 5.55773437 -2.77453125 4.74046875 -2.8515625 3.8984375 C-2.90054688 3.27195313 -2.94953125 2.64546875 -3 2 C-2.34 2 -1.68 2 -1 2 C-0.67 1.34 -0.34 0.68 0 0 Z " fill="#9C4585" transform="translate(210,129)"/>
<path d="M0 0 C0.33 0 0.66 0 1 0 C1.12375 1.0725 1.2475 2.145 1.375 3.25 C1.89643936 6.37863615 2.40088254 8.33480424 4 11 C2.35 11.33 0.7 11.66 -1 12 C-0.67 8.04 -0.34 4.08 0 0 Z " fill="#BC988E" transform="translate(289,119)"/>
<path d="M0 0 C2.37945265 4.75890529 3.10095578 7.54838765 3 13 C-0.54039643 9.30567329 -0.67693402 5.9267562 -1 1 C-0.67 0.67 -0.34 0.34 0 0 Z " fill="#DDC5B6" transform="translate(198,107)"/>
<path d="M0 0 C0.33 0.99 0.66 1.98 1 3 C-0.14453125 5.2265625 -0.14453125 5.2265625 -1.8125 7.625 C-2.35519531 8.42164062 -2.89789063 9.21828125 -3.45703125 10.0390625 C-5 12 -5 12 -7 13 C-6.37240135 10.07120629 -5.41377341 7.63904371 -4 5 C-3.34 5 -2.68 5 -2 5 C-1.34 3.35 -0.68 1.7 0 0 Z " fill="#F0D3B7" transform="translate(280,99)"/>
<path d="M0 0 C0.66 0.33 1.32 0.66 2 1 C0.515 7.435 0.515 7.435 -1 14 C-1.33 14 -1.66 14 -2 14 C-2.05389087 12.04196493 -2.09274217 10.08351091 -2.125 8.125 C-2.14820313 7.03445312 -2.17140625 5.94390625 -2.1953125 4.8203125 C-2 2 -2 2 0 0 Z " fill="#C9AF99" transform="translate(206,62)"/>
<path d="M0 0 C-0.33 2.31 -0.66 4.62 -1 7 C-1.66 7 -2.32 7 -3 7 C-3 7.99 -3 8.98 -3 10 C-3.66 10 -4.32 10 -5 10 C-4.71872579 8.51882199 -4.42466268 7.04006751 -4.125 5.5625 C-3.96257812 4.73878906 -3.80015625 3.91507813 -3.6328125 3.06640625 C-3.42398438 2.38449219 -3.21515625 1.70257813 -3 1 C-1 0 -1 0 0 0 Z " fill="#DEC5A7" transform="translate(211,59)"/>
<path d="M0 0 C1.15957207 3.47871621 0.77456651 4.34219645 -0.4375 7.6875 C-0.72496094 8.49574219 -1.01242187 9.30398437 -1.30859375 10.13671875 C-1.53675781 10.75160156 -1.76492188 11.36648437 -2 12 C-2.66 12 -3.32 12 -4 12 C-4.33 11.01 -4.66 10.02 -5 9 C-4.34 8.34 -3.68 7.68 -3 7 C-1.96157435 4.68351201 -0.9578025 2.35096976 0 0 Z " fill="#EFE2D1" transform="translate(293,128)"/>
<path d="M0 0 C3 0 3 0 4.6875 1.5 C5.120625 1.995 5.55375 2.49 6 3 C6.33 2.01 6.66 1.02 7 0 C7 0.99 7 1.98 7 3 C7.66 3 8.32 3 9 3 C9 3.99 9 4.98 9 6 C5.32579134 5.69381595 4.21864487 5.24228216 1.6875 2.4375 C1.130625 1.633125 0.57375 0.82875 0 0 Z " fill="#D9BB9E" transform="translate(224,120)"/>
<path d="M0 0 C2.62386487 3.06117568 3 3.73173127 3 8 C3.66 8 4.32 8 5 8 C4.67 9.32 4.34 10.64 4 12 C1.95780294 10.30820672 1.08206694 9.36272334 0.48828125 6.73828125 C0.43027344 5.93777344 0.37226563 5.13726562 0.3125 4.3125 C0.24675781 3.50425781 0.18101562 2.69601563 0.11328125 1.86328125 C0.07589844 1.24839844 0.03851563 0.63351563 0 0 Z " fill="#BEA08F" transform="translate(200,104)"/>
<path d="M0 0 C0.33 1.32 0.66 2.64 1 4 C-1.64 4 -4.28 4 -7 4 C-7 3.34 -7 2.68 -7 2 C-2.25 0 -2.25 0 0 0 Z " fill="#FCF9ED" transform="translate(240,182)"/>
<path d="M0 0 C0.66 0 1.32 0 2 0 C0.84826645 2.46800047 -0.04783565 4.04783565 -2 6 C-2.99 5.34 -3.98 4.68 -5 4 C-5.33 4.66 -5.66 5.32 -6 6 C-6.33 5.01 -6.66 4.02 -7 3 C-6 2 -6 2 -2.9375 1.9375 C-1.4834375 1.9684375 -1.4834375 1.9684375 0 2 C0 1.34 0 0.68 0 0 Z " fill="#E3C1B2" transform="translate(256,132)"/>
<path d="M0 0 C0.66 0.33 1.32 0.66 2 1 C2 1.66 2 2.32 2 3 C3.32 3.33 4.64 3.66 6 4 C6.33 5.32 6.66 6.64 7 8 C6.34 8 5.68 8 5 8 C5 7.34 5 6.68 5 6 C4.38125 5.9175 3.7625 5.835 3.125 5.75 C1 5 1 5 -0.25 2.9375 C-0.62125 1.9784375 -0.62125 1.9784375 -1 1 C-0.67 0.67 -0.34 0.34 0 0 Z " fill="#E7CDB3" transform="translate(275,54)"/>
<path d="M0 0 C0.33 0 0.66 0 1 0 C1.33 3.3 1.66 6.6 2 10 C0.68 9.34 -0.64 8.68 -2 8 C-1.47731534 5.23723823 -0.89130413 2.6739124 0 0 Z " fill="#88546F" transform="translate(254,160)"/>
<path d="M0 0 C0.66 0 1.32 0 2 0 C4.28571429 8.42857143 4.28571429 8.42857143 4 13 C3.34 12.67 2.68 12.34 2 12 C2 9.69 2 7.38 2 5 C1.34 5 0.68 5 0 5 C0 3.35 0 1.7 0 0 Z " fill="#A24C88" transform="translate(256,138)"/>
<path d="M0 0 C0.99 0.33 1.98 0.66 3 1 C2.01 1.99 1.02 2.98 0 4 C-0.33 3.34 -0.66 2.68 -1 2 C-0.67 1.34 -0.34 0.68 0 0 Z M-7 4 C-5.02 4 -3.04 4 -1 4 C-1 4.99 -1 5.98 -1 7 C-3.4375 6.625 -3.4375 6.625 -6 6 C-6.33 5.34 -6.66 4.68 -7 4 Z " fill="#F6F4EE" transform="translate(293,137)"/>
<path d="M0 0 C-0.66 1.32 -1.32 2.64 -2 4 C-4.64 3.67 -7.28 3.34 -10 3 C-7.29536552 -0.8183075 -4.37912428 -0.24787496 0 0 Z " fill="#D3A09C" transform="translate(235,132)"/>
<path d="M0 0 C0.99 0.99 1.98 1.98 3 3 C2.34 4.32 1.68 5.64 1 7 C0.34 7 -0.32 7 -1 7 C-1.625 5.1875 -1.625 5.1875 -2 3 C-1.34 2.01 -0.68 1.02 0 0 Z " fill="#975A7E" transform="translate(234,146)"/>
<path d="M0 0 C0.66 0 1.32 0 2 0 C0.87548273 2.9719385 -0.22293791 5.33440687 -2 8 C-2.66 8 -3.32 8 -4 8 C-2.25 2.25 -2.25 2.25 0 0 Z " fill="#B3A28F" transform="translate(214,51)"/>
<path d="M0 0 C3.33727786 1.17255709 5.77437487 2.18868404 8 5 C8 5.66 8 6.32 8 7 C7.34 7 6.68 7 6 7 C5.67 6.34 5.34 5.68 5 5 C2.97536745 4.34786708 2.97536745 4.34786708 1 4 C0.67 2.68 0.34 1.36 0 0 Z " fill="#ECD9BB" transform="translate(267,50)"/>
<path d="M0 0 C0.66 0.66 1.32 1.32 2 2 C1.01 3.32 0.02 4.64 -1 6 C-2.32 5.67 -3.64 5.34 -5 5 C-4.67 4.01 -4.34 3.02 -4 2 C-2.68 2 -1.36 2 0 2 C0 1.34 0 0.68 0 0 Z " fill="#703263" transform="translate(214,180)"/>
<path d="M0 0 C0.99 0.33 1.98 0.66 3 1 C2.67 1.33 2.34 1.66 2 2 C1.76636119 3.84891946 1.58696365 5.70488031 1.4375 7.5625 C1.35371094 8.57441406 1.26992188 9.58632812 1.18359375 10.62890625 C1.12300781 11.41136719 1.06242187 12.19382813 1 13 C0.67 13 0.34 13 0 13 C-0.06058594 12.30132812 -0.12117188 11.60265625 -0.18359375 10.8828125 C-0.26738281 9.97273437 -0.35117187 9.06265625 -0.4375 8.125 C-0.51871094 7.22007812 -0.59992188 6.31515625 -0.68359375 5.3828125 C-0.86989285 2.98889139 -0.86989285 2.98889139 -2 1 C-1.34 0.67 -0.68 0.34 0 0 Z " fill="#8C4072" transform="translate(271,137)"/>
<path d="M0 0 C2.66735273 2.48952921 4.55746343 4.63408134 6 8 C4.68 8.33 3.36 8.66 2 9 C1.34 6.03 0.68 3.06 0 0 Z " fill="#96576D" transform="translate(203,116)"/>
<path d="M0 0 C2.475 0.99 2.475 0.99 5 2 C5 2.66 5 3.32 5 4 C3.02 4.66 1.04 5.32 -1 6 C-0.67 4.02 -0.34 2.04 0 0 Z " fill="#AD599D" transform="translate(264,178)"/>
<path d="M0 0 C0.66 0.33 1.32 0.66 2 1 C2 2.98 2 4.96 2 7 C0.68 7.33 -0.64 7.66 -2 8 C-1.47731534 5.23723823 -0.89130413 2.6739124 0 0 Z " fill="#9D5186" transform="translate(232,138)"/>
<path d="M0 0 C0.33 0 0.66 0 1 0 C1 3.3 1 6.6 1 10 C0.34 9.67 -0.32 9.34 -1 9 C-1.75 5.5625 -1.75 5.5625 -2 2 C-1.34 1.34 -0.68 0.68 0 0 Z " fill="#9F8671" transform="translate(297,105)"/>
<path d="M0 0 C1.485 0.99 1.485 0.99 3 2 C3.1875 5.125 3.1875 5.125 3 8 C2.01 8.495 2.01 8.495 1 9 C-0.4783226 6.04335481 -0.06032783 3.25770263 0 0 Z " fill="#A38D77" transform="translate(198,78)"/>
<path d="M0 0 C0.33 0.66 0.66 1.32 1 2 C0.34 2 -0.32 2 -1 2 C-1.33 2.99 -1.66 3.98 -2 5 C-2.66 5 -3.32 5 -4 5 C-4.33 5.99 -4.66 6.98 -5 8 C-5.33 7.34 -5.66 6.68 -6 6 C-4.75 3.4375 -4.75 3.4375 -3 1 C-2.01 0.67 -1.02 0.34 0 0 Z " fill="#F9E6C9" transform="translate(220,54)"/>
<path d="M0 0 C0.33 0 0.66 0 1 0 C0.38461538 6.52307692 0.38461538 6.52307692 -1.5625 8.9375 C-2.036875 9.288125 -2.51125 9.63875 -3 10 C-2.25 3.375 -2.25 3.375 0 0 Z " fill="#863376" transform="translate(226,158)"/>
<path d="M0 0 C1.98 0 3.96 0 6 0 C6 1.32 6 2.64 6 4 C3.69 3.34 1.38 2.68 -1 2 C-0.67 1.34 -0.34 0.68 0 0 Z " fill="#BC8F92" transform="translate(263,134)"/>
<path d="M0 0 C0.99 0.33 1.98 0.66 3 1 C4.1875 3.5625 4.1875 3.5625 5 6 C3.68 5.67 2.36 5.34 1 5 C0.67 3.35 0.34 1.7 0 0 Z " fill="#CBAD8E" transform="translate(216,128)"/>
<path d="M0 0 C2.56687367 3.8503105 1.83288724 5.58569763 1 10 C-1.56687367 6.1496895 -0.83288724 4.41430237 0 0 Z " fill="#A69585" transform="translate(291,98)"/>
<path d="M0 0 C0 0.66 0 1.32 0 2 C-0.99 2 -1.98 2 -3 2 C-3 2.66 -3 3.32 -3 4 C-4.65 4.33 -6.3 4.66 -8 5 C-7 2 -7 2 -5.125 0.8125 C-3 0 -3 0 0 0 Z " fill="#D2BAA9" transform="translate(230,45)"/>
<path d="M0 0 C3 2 3 2 4 4 C0.37673261 5.2077558 -0.64146369 4.54311128 -4 3 C-2.68 2.01 -1.36 1.02 0 0 Z " fill="#F8F4EC" transform="translate(264,40)"/>
<path d="M0 0 C0.99 0.66 1.98 1.32 3 2 C3.1875 5.125 3.1875 5.125 3 8 C2.731875 7.360625 2.46375 6.72125 2.1875 6.0625 C1.11332248 3.66868314 1.11332248 3.66868314 -2 3 C-2 2.34 -2 1.68 -2 1 C-1.34 0.67 -0.68 0.34 0 0 Z " fill="#8B4C67" transform="translate(232,135)"/>
<path d="M0 0 C0.66 0.33 1.32 0.66 2 1 C1.67 1.99 1.34 2.98 1 4 C-0.98 4 -2.96 4 -5 4 C-4.34 3.67 -3.68 3.34 -3 3 C-3 2.34 -3 1.68 -3 1 C-2.01 0.67 -1.02 0.34 0 0 Z " fill="#CFA3A1" transform="translate(262,131)"/>
<path d="M0 0 C0.33 0.99 0.66 1.98 1 3 C-0.28965176 4.37562854 -1.62689293 5.70766393 -3 7 C-3.66 7 -4.32 7 -5 7 C-4.6875 5.0625 -4.6875 5.0625 -4 3 C-3.01 2.67 -2.02 2.34 -1 2 C-0.67 1.34 -0.34 0.68 0 0 Z " fill="#C19992" transform="translate(288,111)"/>
<path d="M0 0 C0.99 0 1.98 0 3 0 C2.67 2.31 2.34 4.62 2 7 C1.34 7 0.68 7 0 7 C0 4.69 0 2.38 0 0 Z " fill="#F9F2E0" transform="translate(190,105)"/>
<path d="M0 0 C0.33 0 0.66 0 1 0 C1.2493357 1.60115576 1.47378648 3.20620159 1.6875 4.8125 C1.87892578 6.15248047 1.87892578 6.15248047 2.07421875 7.51953125 C2 10 2 10 -1 13 C-0.67 8.71 -0.34 4.42 0 0 Z " fill="#EFE4D8" transform="translate(293,96)"/>
<path d="M0 0 C0.33 0 0.66 0 1 0 C1 1.98 1 3.96 1 6 C0.34 6 -0.32 6 -1 6 C-1.66 7.32 -2.32 8.64 -3 10 C-2.67 7.69 -2.34 5.38 -2 3 C-1.34 3 -0.68 3 0 3 C0 2.01 0 1.02 0 0 Z " fill="#C29E83" transform="translate(286,98)"/>
<path d="M0 0 C2.6875 -0.3125 2.6875 -0.3125 5 0 C2.6875 2.5 2.6875 2.5 0 5 C-0.99 5 -1.98 5 -3 5 C-1.8125 2.5 -1.8125 2.5 0 0 Z " fill="#F5EFE6" transform="translate(213,48)"/>
</svg>
